<?xml version="1.0" encoding="utf-8"?>
<!-- Generator: Adobe Illustrator 19.2.0, SVG Export Plug-In . SVG Version: 6.00 Build 0)  -->
<svg version="1.1" id="Layer_1" xmlns="http://www.w3.org/2000/svg" xmlns:xlink="http://www.w3.org/1999/xlink" x="0px" y="0px"
	 width="642.8px" height="500px" viewBox="0 0 642.8 500" style="enable-background:new 0 0 642.8 500;" xml:space="preserve">
<title>Icon/Arrow right/Grey</title>
<desc>Created with Sketch.</desc>
<path class="st0" d="M2.7,263.6c1.8,4.4,4.4,8.3,7.7,11.6l214.3,214.3c13.9,13.9,36.6,13.9,50.5,0c13.9-13.9,13.9-36.6,0-50.5
	L121.9,285.7h485.2c19.7,0,35.7-16,35.7-35.7s-16-35.7-35.7-35.7H121.9L275.2,61c13.9-13.9,13.9-36.6,0-50.5
	c-13.9-13.9-36.6-13.9-50.5,0L10.4,224.7c-3.3,3.3-5.9,7.2-7.7,11.6C-0.9,245.1-0.9,254.9,2.7,263.6z"/>
</svg>
