<?xml version="1.0" encoding="utf-8"?>
<!-- Generator: Adobe Illustrator 19.2.0, SVG Export Plug-In . SVG Version: 6.00 Build 0)  -->
<svg version="1.1" id="Layer_1" xmlns="http://www.w3.org/2000/svg" xmlns:xlink="http://www.w3.org/1999/xlink" x="0px" y="0px"
	 width="500px" height="500px" viewBox="0 0 500 500" style="enable-background:new 0 0 500 500;" xml:space="preserve">
<title>Icon/Arrow right/Grey</title>
<desc>Created with Sketch.</desc>
<path class="st0" d="M497.9,239.4c-1.4-3.4-3.4-6.5-6-9L325.2,63.7c-10.8-10.8-28.5-10.8-39.3,0s-10.8,28.5,0,39.3l119.2,119.2H27.8
	C12.4,222.2,0,234.7,0,250c0,15.3,12.4,27.8,27.8,27.8h377.4L285.9,397c-10.8,10.8-10.8,28.5,0,39.3s28.5,10.8,39.3,0l166.7-166.7
	c2.6-2.6,4.6-5.6,6-9C500.7,253.8,500.7,246.2,497.9,239.4z"/>
</svg>
