<svg xmlns="http://www.w3.org/2000/svg" viewBox="0 0 70 70">
	<g stroke="#ed193a" stroke-width="2" fill="none" fill-rule="evenodd" stroke-linecap="round" stroke-linejoin="round">
		<path d="M64.8 27.8c1.8 2.4 3.9 5 3.8 8.7 -0.1 3.7-1.1 8-4.4 13.2 -1 2-1.5 3.2-1.6 3.9 0 0.7 0.4 2.4-2.2 2.9 -2.6 0.5-3.7 1.3-4.8 0.8 -1.1-0.5-2-1.2-2-1.2s-1.9 1.7-3.8 1.7c-1.9 0-7.3-4.2-8.2-7.6 -0.8 0.5-1.4 0.9-1.8 0.8S38.9 51 36.3 48.7c-2.6-2.3-4.1-2.8-6.1-2.7 -2 0.2-6.9 3-14 7.7 -4.6 2.2-6.3 1.6-7.5 0.5C8.4 53.9 8.1 53.2 8.1 52c0-1.1 0.4-1.7-1.6-4.1 -1.9-2.4-6.4-12.2-4.7-17s7.8-3.4 10.6-6.3 2.2-5.7 6.7-10.3c2.1-2.1 2.2-2.8 5.1-1.3l1.4 0.9c0 0 0.8-2.2 1.1-2.9s0.2-2 2.9-2.4c2.7-0.4 8.4-0.7 10.2 0.2"/><line x1="48.6" y1="35.9" x2="48.6" y2="17.1"/><path d="M43.9 9.9c0-2.6 2.1-8.2 4.8-8.2s4.8 5.6 4.8 8.3 -2.1 6.9-4.7 6.9S43.9 12.5 43.9 9.9z"/><path d="M51.3 18.7c2.1-2.1 8.2-4.8 10.3-2.8s-0.7 8.2-2.8 10.3 -7.2 3.8-9.2 1.7C47.5 25.9 49.2 20.8 51.3 18.7z"/><path d="M46 18.7c-2.1-2.1-8.2-4.8-10.3-2.8s0.7 8.2 2.8 10.3c2.1 2.1 7.2 3.8 9.2 1.7S48.1 20.8 46 18.7z"/><path d="M56.8 68.2c2.8 0 4.6-2.9 4.6-5.1s-1.6-2.6-2.3-2.6 -2 0.3-2.5 0.3c-0.4 0-2.1-0.6-2.8-0.4 -0.7 0.1-1.9 1.1-1.2 3.6S54.7 68.2 56.8 68.2z"/>
	</g>
</svg>


