<svg xmlns="http://www.w3.org/2000/svg" viewBox="0 0 10 8.67"><title>chevron-left-double</title><g id="Layer_2" data-name="Layer 2"><g id="Layer_1-2" data-name="Layer 1"><g id="Layer_2-2" data-name="Layer 2"><g id="Layer_1-2-2" data-name="Layer 1-2"><g id="Page-1"><g id="_4.0_Blog_Listing_SML" data-name=" 4.0 Blog Listing SML"><g id="Icon_Chevrons-right_Grey" data-name="Icon Chevrons-right Grey"><g id="chevrons-right"><path id="Shape" d="M4.33,0A1,1,0,0,1,5,.3,1,1,0,0,1,5,1.67L2.41,4.34,5,7A1,1,0,0,1,5,8.37H5a1,1,0,0,1-1.41,0L.29,5A1,1,0,0,1,0,4.34a1,1,0,0,1,.29-.67L3.63.3A1,1,0,0,1,4.33,0Z"/><path id="Shape-2" d="M9,0a1,1,0,0,1,1,1,1,1,0,0,1-.26.64L7.08,4.34,9.71,7A1,1,0,0,1,8.29,8.38L5,5a1,1,0,0,1-.29-.7A1,1,0,0,1,5,3.67L8.29.3A1,1,0,0,1,9,0Z"/></g></g></g></g></g></g></g></g></svg>