<svg xmlns="http://www.w3.org/2000/svg" viewBox="0 0 10 8.67"><defs></defs><g id="Layer_2" data-name="Layer 2"><g id="Layer_1-2" data-name="Layer 1"><g id="Page-1"><g id="_4.0_Blog_Listing_SML" data-name="4.0_Blog_Listing_SML"><g id="Icon_Chevrons-right_Grey" data-name="Icon/Chevrons-right/Grey"><g id="chevrons-right"><path class="cls-1" d="M5.67 8.67a1 1 0 0 1-.67-.3A1 1 0 0 1 5 7l2.59-2.67L5 1.71A1 1 0 0 1 5 .29a1 1 0 0 1 1.41 0l3.3 3.34a1 1 0 0 1 .29.7 1 1 0 0 1-.29.67L6.37 8.37a1 1 0 0 1-.7.3z" id="Shape"/><path class="cls-1" d="M1 8.67A1 1 0 0 1 .29 7l2.63-2.67L.29 1.71A1 1 0 0 1 1.71.29L5 3.63a1 1 0 0 1 .29.7A1 1 0 0 1 5 5L1.71 8.37a1 1 0 0 1-.71.3z" id="Shape-2" data-name="Shape"/></g></g></g></g></g></g></svg>