<?xml version="1.0" encoding="utf-8"?>
<!-- Generator: Adobe Illustrator 19.2.0, SVG Export Plug-In . SVG Version: 6.00 Build 0)  -->
<svg version="1.1" id="Layer_1" xmlns="http://www.w3.org/2000/svg" xmlns:xlink="http://www.w3.org/1999/xlink" x="0px" y="0px"
	 width="500px" height="500px" viewBox="0 0 500 500" style="enable-background:new 0 0 500 500;" xml:space="preserve">
<title>Icon/X/Grey</title>
<desc>Created with Sketch.</desc>
<path class="st0" d="M300.5,250l189-189c14-14,14-36.6,0-50.5s-36.6-14-50.5,0l-189,189L61,10.5c-14-14-36.6-14-50.5,0
	s-14,36.6,0,50.5l189,189l-189,189c-14,14-14,36.6,0,50.5c7,7,16.1,10.5,25.3,10.5S54,496.5,61,489.5l189-189l189,189
	c7,7,16.1,10.5,25.3,10.5c9.1,0,18.3-3.5,25.3-10.5c14-14,14-36.6,0-50.5L300.5,250z"/>
</svg>
