<svg xmlns="http://www.w3.org/2000/svg" viewBox="0 0 70 70">
	<g stroke="#ed193a" stroke-width="2" fill="none" fill-rule="evenodd" stroke-linecap="round" stroke-linejoin="round">
		<path d="M34.98,34.42"/>
		<path class="st0" d="M58.4,10.83c-8.48-4.4-18.92-1.09-23.33,7.39c-0.03,0.05-0.05,0.1-0.08,0.15c-0.03-0.05-0.05-0.1-0.08-0.15
			c-4.4-8.48-14.84-11.79-23.33-7.39c-8.48,4.4-11.79,14.84-7.39,23.33c2.36,4.55,9.3,13.08,16.53,19.33
			c2.04-8.12,7.65-13.95,14.26-13.95c6.61,0,12.22,5.83,14.26,13.95c7.23-6.25,14.17-14.78,16.53-19.33
			C70.19,25.67,66.88,15.23,58.4,10.83z"/>
			<path class="st0" d="M49.26,53.49C44.15,57.9,38.9,61.18,35,61.12c-3.9,0.06-9.15-3.22-14.26-7.63"/>
			<path d="M27.8,29a7.2,7.2 0 1,0 14.4,0a7.2,7.2 0 1,0 -14.4,0"/>
	</g>
</svg>
