<?xml version="1.0" encoding="utf-8"?>
<!-- Generator: Adobe Illustrator 19.2.0, SVG Export Plug-In . SVG Version: 6.00 Build 0)  -->
<svg version="1.1" id="Layer_1" xmlns="http://www.w3.org/2000/svg" xmlns:xlink="http://www.w3.org/1999/xlink" x="0px" y="0px"
	 width="500px" height="846.2px" viewBox="0 0 500 846.2" style="enable-background:new 0 0 500 846.2;" xml:space="preserve">
<title>Icon/Facebook/Grey</title>
<desc>Created with Sketch.</desc>
<g id="Icon_x2F_Facebook_x2F_Grey">
	<g id="facebook" transform="translate(6.000000, 2.000000)">
		<path class="st0" d="M301.7,844.2H147.8c-21.2,0-38.5-17.2-38.5-38.5V536.5H32.5C11.2,536.5-6,519.2-6,498V344.2
			c0-21.2,17.2-38.5,38.5-38.5h76.9v-76.9C109.4,101.5,212.9-2,340.2-2h115.4C476.8-2,494,15.2,494,36.5v153.8
			c0,21.2-17.2,38.5-38.5,38.5H340.2v76.9h115.4c11.9,0,23,5.5,30.3,14.8c7.3,9.3,9.9,21.5,7,33l-38.5,153.8
			c-4.3,17.1-19.7,29.1-37.3,29.1h-76.9v269.2C340.2,826.9,322.9,844.2,301.7,844.2z M186.3,767.2h76.9V498
			c0-21.2,17.2-38.5,38.5-38.5H387l19.2-76.9H301.7c-21.2,0-38.5-17.2-38.5-38.5V228.8c0-42.4,34.5-76.9,76.9-76.9h76.9V74.9h-76.9
			c-84.8,0-153.8,69-153.8,153.8v115.4c0,21.2-17.2,38.5-38.5,38.5H70.9v76.9h76.9c21.2,0,38.5,17.2,38.5,38.5V767.2z"/>
	</g>
</g>
</svg>
