<svg version="1.1" id="leaves" xmlns="http://www.w3.org/2000/svg" xmlns:xlink="http://www.w3.org/1999/xlink" x="0px" y="0px"
     viewBox="0 0 500 100" style="enable-background:new 0 0 500 100;" xml:space="preserve">
<path class="leaf" class="st0" d="M14.9,87.6c-7.2-9.7-8.6-39.7,10.8-54S71.9,21.3,84.5,7.4c2.7,21.6,3.8,44.9-12,62.4
    C59.8,83.7,40,85.9,23.3,92.6c0-10,2.3-27.3,31.3-48.7C18.7,62.3,14.9,87.6,14.9,87.6z"/>
<path class="leaf" class="st0" d="M115.9,87.6c-7.2-9.7-8.6-39.7,10.8-54s46.2-12.3,58.8-26.2c2.7,21.6,3.8,44.9-12,62.4
    c-12.7,13.9-32.5,16.1-49.2,22.8c0-10,2.3-27.3,31.3-48.7C119.7,62.3,115.9,87.6,115.9,87.6z"/>
<path class="leaf" class="st0" d="M216.8,87.6c-7.2-9.7-8.6-39.7,10.8-54s46.2-12.3,58.8-26.2c2.7,21.6,3.8,44.9-12,62.4
    c-12.7,13.9-32.5,16.1-49.2,22.8c0-10,2.3-27.3,31.3-48.7C220.6,62.3,216.8,87.6,216.8,87.6z"/>
<path class="leaf" class="st0" d="M317.8,87.6c-7.2-9.7-8.6-39.7,10.8-54c19.4-14.3,46.2-12.3,58.8-26.2c2.7,21.6,3.8,44.9-12,62.4
    c-12.7,13.9-32.5,16.1-49.2,22.8c0-10,2.3-27.3,31.3-48.7C321.6,62.3,317.8,87.6,317.8,87.6z"/>
<path class="leaf-last" class="st1" d="M418.8,87.6c-7.2-9.7-8.6-39.7,10.8-54c19.4-14.3,46.2-12.3,58.8-26.2
    c2.7,21.6,3.8,44.9-12,62.4c-12.7,13.9-32.5,16.1-49.2,22.8c0-10,2.3-27.3,31.3-48.7C422.6,62.3,418.8,87.6,418.8,87.6z"/>
</svg>
