<?xml version="1.0" encoding="utf-8"?>
<!-- Generator: Adobe Illustrator 19.2.0, SVG Export Plug-In . SVG Version: 6.00 Build 0)  -->
<svg version="1.1" id="Layer_1" xmlns="http://www.w3.org/2000/svg" xmlns:xlink="http://www.w3.org/1999/xlink" x="0px" y="0px"
	 width="500px" height="500px" viewBox="0 0 500 500" style="enable-background:new 0 0 500 500;" xml:space="preserve">
<title>Icon/Insta/Grey</title>
<desc>Created with Sketch.</desc>
<g id="Icon_x2F_Insta_x2F_Grey">
	<g id="instagram" transform="translate(2.000000, 2.000000)">
		<path class="st0" d="M361.6,498H134.4C59.2,498-2,436.8-2,361.6V134.4C-2,59.2,59.2-2,134.4-2h227.3C436.8-2,498,59.2,498,134.4
			v227.3C498,436.8,436.8,498,361.6,498z M134.4,43.5c-50.1,0-90.9,40.8-90.9,90.9v227.3c0,50.1,40.8,90.9,90.9,90.9h227.3
			c50.1,0,90.9-40.8,90.9-90.9V134.4c0-50.1-40.8-90.9-90.9-90.9H134.4z"/>
		<path class="st0" d="M248.9,360.7c-29.4,0-58.4-11.5-80.3-33.3c-34.7-34.7-43.2-87.6-21.2-131.4c22.1-43.9,69.5-68.6,118.2-61.3
			c49.9,7.4,88.3,45.9,95.7,95.7v0c7.2,48.6-17.4,96.1-61.3,118.2C283.8,356.7,266.3,360.7,248.9,360.7z M248.9,178.8
			c-25.5,0-49.1,14.2-60.8,37.5c-13.3,26.3-8.2,58,12.7,78.9c20.8,20.9,52.6,25.9,78.9,12.7c26.3-13.2,41.1-41.7,36.8-70.9l0,0
			c-4.4-29.9-27.5-53-57.4-57.5C255.6,179.1,252.2,178.8,248.9,178.8z"/>
	</g>
</g>
</svg>
