<?xml version="1.0" encoding="utf-8"?>
<!-- Generator: Adobe Illustrator 19.2.0, SVG Export Plug-In . SVG Version: 6.00 Build 0)  -->
<svg version="1.1" id="Layer_1" xmlns="http://www.w3.org/2000/svg" xmlns:xlink="http://www.w3.org/1999/xlink" x="0px" y="0px"
	 width="500px" height="477.3px" viewBox="0 0 500 477.3" style="enable-background:new 0 0 500 477.3;" xml:space="preserve">
<title>Icon/Linkedin/Grey</title>
<desc>Created with Sketch.</desc>
<g id="Icon_x2F_Linkedin_x2F_Grey">
	<g id="linkedin" transform="translate(2.000000, 3.000000)">
		<path class="st0" d="M475.3,474.3h-90.9c-12.6,0-22.7-10.2-22.7-22.7V292.5c0-12.5-10.2-22.7-22.7-22.7s-22.7,10.2-22.7,22.7
			v159.1c0,12.6-10.2,22.7-22.7,22.7h-90.9c-12.6,0-22.7-10.2-22.7-22.7V292.5c0-87.7,71.4-159.1,159.1-159.1
			c87.7,0,159.1,71.4,159.1,159.1v159.1C498,464.1,487.8,474.3,475.3,474.3z M407.1,428.8h45.5V292.5c0-62.7-51-113.6-113.6-113.6
			s-113.6,51-113.6,113.6v136.4h45.5V292.5c0-37.6,30.6-68.2,68.2-68.2s68.2,30.6,68.2,68.2V428.8z"/>
		<path class="st0" d="M111.6,474.3H20.7C8.2,474.3-2,464.1-2,451.5V178.8c0-12.6,10.2-22.7,22.7-22.7h90.9
			c12.6,0,22.7,10.2,22.7,22.7v272.7C134.4,464.1,124.2,474.3,111.6,474.3z M43.5,428.8h45.5V201.5H43.5V428.8z"/>
		<path class="st0" d="M66.2,133.4C28.6,133.4-2,102.8-2,65.2S28.6-3,66.2-3s68.2,30.6,68.2,68.2S103.8,133.4,66.2,133.4z
			 M66.2,42.5c-12.5,0-22.7,10.2-22.7,22.7s10.2,22.7,22.7,22.7s22.7-10.2,22.7-22.7S78.7,42.5,66.2,42.5z"/>
	</g>
</g>
</svg>
