<svg xmlns="http://www.w3.org/2000/svg" viewBox="0 0 70 70">
	<g stroke="#ed193a" stroke-width="2" fill="none" fill-rule="evenodd" stroke-linecap="round" stroke-linejoin="round">
		<path d="M52.9 42.5h5.4c0-12.9-10.4-23.3-23.3-23.3S11.7 29.6 11.7 42.5h3.7"/><path d="M28.8 51c1.2 1.5 3.6 2.7 6 2.7 2.3 0 3.6-0.9 3.6-2.4 0-1.7-2-2.2-4.3-2.8 -2.8-0.6-6.5-1.7-6.5-5.9 0-3 2.2-5.2 5.6-5.9v-1.2c0-1.5 0.5-2.2 1.8-2.2h0.2c1.3 0 1.8 0.7 1.8 2.2v1.1c3.5 0.4 5.5 2 5.5 3.6 0 1.4-1.6 2.4-1.7 2.3 -1.2-1.4-3.3-2.4-5.4-2.4 -2.1 0-3.4 1-3.4 2.4 0 1.7 1.7 2.1 4.2 2.6 2.9 0.6 6.8 1.8 6.8 6 0 3.2-2.2 5.4-5.9 6v1.2c0 1.5-0.6 2.2-1.8 2.2h-0.2c-1.3 0-1.8-0.7-1.8-2.2v-1.2c-3.8-0.4-6-2.2-6-3.9C27.1 51.8 28.7 50.8 28.8 51z"/><line x1="35" y1="9.6" x2="35" y2="15.5"/><line x1="18.5" y1="14" x2="21.5" y2="19.1"/><line x1="6.5" y1="26" x2="11.6" y2="29"/><line x1="2.1" y1="42.5" x2="8" y2="42.5"/><line x1="68" y1="42.5" x2="62" y2="42.5"/><line x1="63.5" y1="26" x2="58.4" y2="29"/><line x1="51.5" y1="14" x2="48.5" y2="19.1"/>
	</g>
</svg>
