<?xml version="1.0" encoding="utf-8"?>
<!-- Generator: Adobe Illustrator 22.1.0, SVG Export Plug-In . SVG Version: 6.00 Build 0)  -->
<svg version="1.1" id="Layer_1" xmlns="http://www.w3.org/2000/svg" xmlns:xlink="http://www.w3.org/1999/xlink" x="0px" y="0px"
	 viewBox="0 0 41 41" style="enable-background:new 0 0 41 41;" xml:space="preserve">
<title>Icon/Home/Base</title>
<desc>Created with Sketch.</desc>
<g id="Page-1">
	<g id="_x32_.1_x5F_Getaprice_x5F_Business_x5F_LGE" transform="translate(-566.000000, -424.000000)">
		<g id="Icon_x2F_Phone_x2F_White" transform="translate(563.000000, 422.000000)">
			<g id="phone" transform="translate(3.833333, 3.833333)">
				<g id="Shape">
					<path class="st0" d="M34.5,39.2c-0.1,0-0.3,0-0.4,0c-6-0.7-11.9-2.7-17-6c-4.7-3-8.8-7.1-11.8-11.8c-3.3-5.1-5.4-11-6-17
						c-0.1-1.4,0.3-2.7,1.2-3.7C1.4-0.4,2.7-1,4-1h5.8c0,0,0,0,0,0c2.4,0,4.4,1.8,4.8,4.2c0.2,1.8,0.7,3.5,1.3,5.2
						c0.7,1.8,0.2,3.8-1.1,5.1l-1.9,1.9c2.5,4.1,6,7.6,10.1,10.1l1.9-1.9c1.3-1.3,3.3-1.8,5.1-1.1c1.7,0.6,3.4,1.1,5.2,1.3
						c2.4,0.3,4.2,2.4,4.2,4.9v5.7c0,1.4-0.6,2.7-1.6,3.6C36.9,38.7,35.7,39.2,34.5,39.2z M9.8,1C9.8,1,9.8,1,9.8,1H4
						C3.3,1,2.5,1.3,2,1.9C1.4,2.5,1.2,3.3,1.2,4.1C1.8,9.8,3.8,15.4,7,20.3c2.9,4.5,6.7,8.4,11.2,11.2c4.8,3.1,10.4,5.1,16.1,5.7
						c0.8,0.1,1.6-0.2,2.2-0.7c0.6-0.5,0.9-1.3,0.9-2.1v-5.8c0,0,0,0,0,0c0-1.4-1-2.7-2.4-2.9c-1.9-0.3-3.8-0.7-5.6-1.4
						c-1-0.4-2.2-0.1-3,0.6l-2.4,2.4c-0.3,0.3-0.8,0.4-1.2,0.2c-5-2.8-9.1-6.9-11.9-11.9c-0.2-0.4-0.2-0.9,0.2-1.2l2.4-2.4
						c0.8-0.8,1-2,0.6-3c-0.7-1.8-1.1-3.7-1.4-5.6C12.4,2,11.2,1,9.8,1z"/>
				</g>
			</g>
		</g>
	</g>
</g>
</svg>
