<svg xmlns="http://www.w3.org/2000/svg" viewBox="0 0 500 500.87">
  <g data-name="Layer 2">
    <path d="M441 294.67a271.37 271.37 0 0 1-59.39-14.77 68.49 68.49 0 0 0-72.25 15.44l-16.47 16.47a342.71 342.71 0 0 1-104.71-104.76l16.38-16.38a68.57 68.57 0 0 0 15.51-72.38 270.1 270.1 0 0 1-14.72-59.14A68.59 68.59 0 0 0 136.79 0H68.48A68.54 68.54 0 0 0 .28 74.7 475.26 475.26 0 0 0 74 283.11 468.22 468.22 0 0 0 218 427a474.59 474.59 0 0 0 206.92 73.55A68.52 68.52 0 0 0 500 432.1v-68.19a68.53 68.53 0 0 0-59-69.24zm13.3 137.52a22.83 22.83 0 0 1-24.9 22.93 428.79 428.79 0 0 1-186.76-66.54 423 423 0 0 1-130.21-130.14A429.48 429.48 0 0 1 45.74 70.23a22.86 22.86 0 0 1 22.77-24.54H137a22.9 22.9 0 0 1 23.07 19.64 315.47 315.47 0 0 0 17.21 69 22.88 22.88 0 0 1-5.12 24.15l-28.92 28.92a22.84 22.84 0 0 0-3.71 27.44 388.25 388.25 0 0 0 145.64 145.61 22.85 22.85 0 0 0 27.44-3.71l29-29a22.8 22.8 0 0 1 24-5.05 316.11 316.11 0 0 0 69.24 17.26c11.28 1.59 19.72 11.56 19.43 23.72z" data-name="Layer 1"/>
  </g>
</svg>
