<?xml version="1.0" encoding="utf-8"?>
<!-- Generator: Adobe Illustrator 19.2.0, SVG Export Plug-In . SVG Version: 6.00 Build 0)  -->
<svg version="1.1" id="Layer_1" xmlns="http://www.w3.org/2000/svg" xmlns:xlink="http://www.w3.org/1999/xlink" x="0px" y="0px"
	 width="500px" height="500px" viewBox="0 0 500 500" style="enable-background:new 0 0 500 500;" xml:space="preserve">
<title>Icon/Search/Grey</title>
<desc>Created with Sketch.</desc>
<path class="st0" d="M492.7,457.3l-92-92C431.5,326.9,450,278,450,225C450,100.9,349.1,0,225,0C100.9,0,0,100.9,0,225
	c0,124.1,100.9,225,225,225c53,0,101.9-18.5,140.4-49.3l92,92c4.9,4.9,11.3,7.3,17.7,7.3s12.8-2.4,17.7-7.3
	C502.4,482.9,502.4,467.1,492.7,457.3z M50,225c0-96.5,78.5-175,175-175c96.5,0,175,78.5,175,175c0,47.4-19,90.5-49.7,122
	c-0.6,0.5-1.2,1-1.7,1.6s-1.1,1.1-1.6,1.7C315.5,381,272.4,400,225,400C128.5,400,50,321.5,50,225z"/>
</svg>
