<?xml version="1.0" encoding="UTF-8"?>
<svg width="53px" height="70px" viewBox="0 0 53 70" version="1.1" xmlns="http://www.w3.org/2000/svg" xmlns:xlink="http://www.w3.org/1999/xlink">
    <!-- Generator: Sketch 50.2 (55047) - http://www.bohemiancoding.com/sketch -->
    <title>LargeIcon/Leaf Copy 4</title>
    <desc>Created with Sketch.</desc>
    <defs></defs>
    <g id="Design-system" stroke="none" stroke-width="1" fill="none" fill-rule="evenodd">
        <g id="2-Icons" transform="translate(-852.000000, -1636.000000)">
            <g id="LargeIcon/ShopPower" transform="translate(837.000000, 1631.000000)">
                <g id="smartphone" transform="translate(16.666667, 6.666667)">
                    <rect id="Rectangle-path" stroke="#ed193a" stroke-width="2" stroke-linecap="round" stroke-linejoin="round" x="0" y="0" width="50" height="66.6666667" rx="2"></rect>
                    <circle id="Oval-2" fill="#ed193a" cx="25" cy="58.3333333" r="1.66666667"></circle>
                    <polygon id="Shape" stroke="#ed193a" stroke-width="2" stroke-linecap="round" stroke-linejoin="round" points="28.3333333 9.33333333 18.3333333 21.3333333 27.3333333 21.3333333 26.3333333 29.3333333 36.3333333 17.3333333 27.3333333 17.3333333"></polygon>
                    <circle id="Oval" stroke="#ed193a" stroke-width="2" stroke-linecap="round" stroke-linejoin="round" cx="19.8333333" cy="39.8333333" r="1.5"></circle>
                    <circle id="Oval" stroke="#ed193a" stroke-width="2" stroke-linecap="round" stroke-linejoin="round" cx="34.8333333" cy="39.8333333" r="1.5"></circle>
                    <path d="M7.33333333,14.3333333 L12.4242424,14.3333333 L15.8351515,31.2935796 C16.0753622,32.4971764 17.147822,33.3563741 18.3806061,33.3328624 L35.7515152,33.3328624 C36.9842992,33.3563741 38.056759,32.4971764 38.2969697,31.2935796 L40.3333333,20.6665097" id="Shape" stroke="#ed193a" stroke-width="2" stroke-linecap="round" stroke-linejoin="round"></path>
                    <path d="M1.33112637,50.8333333 L49.3359373,50.8333333" id="Line-Copy-2" stroke="#ed193a" stroke-width="2" stroke-linecap="square"></path>
                </g>
            </g>
        </g>
    </g>
</svg>
