<?xml version="1.0" encoding="utf-8"?>
<!-- Generator: Adobe Illustrator 19.2.0, SVG Export Plug-In . SVG Version: 6.00 Build 0)  -->
<svg version="1.1" id="Layer_1" xmlns="http://www.w3.org/2000/svg" xmlns:xlink="http://www.w3.org/1999/xlink" x="0px" y="0px"
	 width="500px" height="415.7px" viewBox="0 0 500 415.7" style="enable-background:new 0 0 500 415.7;" xml:space="preserve">
<title>Icon/Twitter/Grey</title>
<desc>Created with Sketch.</desc>
<g id="Icon_x2F_Twitter_x2F_Grey">
	<g id="twitter" transform="translate(1.000000, 2.000000)">
		<path class="st0" d="M171.2,413.7c-54.1,0-109.6-14.4-161.4-43.2c-8.4-4.7-12.5-14.5-9.9-23.8c2.6-9.3,11.7-16,20.9-15.2
			c35.5,1.5,70-5.5,101.6-20.1C-36.2,214,41.6,33.3,42.5,31.4c3-6.9,9.5-11.5,17-12.3c7.4-0.7,14.8,2.6,19.1,8.8
			c34.9,49.7,89.8,80.6,149.6,85c-0.4-47.2,29-90.5,73.5-107.4C341.7-9.8,386.9-1.1,418.4,27c16.9-6.2,32.9-14.6,47.7-25.1
			c7.1-5,16.5-5.1,23.7-0.2c7.2,4.9,10.6,13.7,8.5,22.1c-7.1,29.3-21.4,56.3-41.6,78.6c0.3,3.4,0.5,6.7,0.5,10.1
			c0,114.3-50.6,209.5-138.8,261.4C273.6,400.5,223,413.7,171.2,413.7z M102.3,363.2c67.7,17.4,137,9.2,195.1-25
			c75.1-44.2,118.2-126.4,118.2-225.4c0-4.5-0.4-9-1.3-13.3c-1.3-6.8,0.9-13.9,5.8-18.8c4.6-4.6,9-9.5,12.9-14.6
			c-4.7,1.7-9.5,3.3-14.3,4.8c-7.8,2.4-16.3-0.1-21.7-6.3c-19.9-22.9-52.3-30.9-80.6-20.2c-28.3,10.8-47,38.4-46.6,68.7v21.1
			c0,11.3-9,20.5-20.3,20.8c-68.3,2-133-24.9-179.8-72.8c-12.4,53.2-17.3,155.3,104.4,209.4c6.9,3.1,11.6,9.7,12.3,17.2
			c0.7,7.5-2.8,14.8-9.1,19.1C154.1,343.7,128.8,355.5,102.3,363.2z"/>
	</g>
</g>
</svg>
