<svg id="Layer_1" xmlns="http://www.w3.org/2000/svg" width="500" height="500" viewBox="0 0 500 500"><path class="st0" d="M475 300c-13.8 0-25 11.2-25 25v100c0 13.8-11.2 25-25 25H75c-13.8 0-25-11.2-25-25V325c0-13.8-11.2-25-25-25S0 311.1 0 325v100c0 41.4 33.6 75 75 75h350c41.4 0 75-33.6 75-75V325c0-13.9-11.2-25-25-25z"/><path class="st0" d="M142.7 167.6L225 85.3V325c0 13.8 11.2 25 25 25s25-11.2 25-25V85.3l82.3 82.3c4.9 4.9 11.3 7.3 17.7 7.3s12.8-2.4 17.7-7.3c9.8-9.8 9.8-25.6 0-35.4l-125-125c-2.3-2.3-5.1-4.1-8.1-5.4-6.1-2.5-13-2.5-19.1 0-3.1 1.3-5.8 3.1-8.1 5.4l-125 125c-9.8 9.8-9.8 25.6 0 35.4s25.5 9.8 35.3 0z"/></svg>