<?xml version="1.0" encoding="utf-8"?>
<!-- Generator: Adobe Illustrator 19.2.0, SVG Export Plug-In . SVG Version: 6.00 Build 0)  -->
<svg version="1.1" id="Layer_1" xmlns="http://www.w3.org/2000/svg" xmlns:xlink="http://www.w3.org/1999/xlink" x="0px" y="0px"
	 width="500px" height="555.6px" viewBox="0 0 500 555.6" style="enable-background:new 0 0 500 555.6;" xml:space="preserve">
<title>Icon/User/Grey</title>
<desc>Created with Sketch.</desc>
<g id="Icon_x2F_User_x2F_Grey">
	<g id="user" transform="translate(4.000000, 3.000000)">
		<path class="st0" d="M468.2,552.6c-15.4,0-27.8-12.4-27.8-27.8v-55.6c0-46-37.4-83.3-83.3-83.3H134.9c-46,0-83.3,37.4-83.3,83.3
			v55.6c0,15.4-12.4,27.8-27.8,27.8S-4,540.1-4,524.8v-55.6c0-76.6,62.3-138.9,138.9-138.9h222.2c76.6,0,138.9,62.3,138.9,138.9
			v55.6C496,540.1,483.6,552.6,468.2,552.6z"/>
		<path class="st0" d="M246,274.8c-76.6,0-138.9-62.3-138.9-138.9S169.4-3,246-3s138.9,62.3,138.9,138.9S322.6,274.8,246,274.8z
			 M246,52.6c-46,0-83.3,37.4-83.3,83.3s37.4,83.3,83.3,83.3s83.3-37.4,83.3-83.3S292,52.6,246,52.6z"/>
	</g>
</g>
</svg>
