<?xml version="1.0" encoding="utf-8"?>
<!-- Generator: Adobe Illustrator 19.2.0, SVG Export Plug-In . SVG Version: 6.00 Build 0)  -->
<svg version="1.1" id="Layer_1" xmlns="http://www.w3.org/2000/svg" xmlns:xlink="http://www.w3.org/1999/xlink" x="0px" y="0px"
	 width="500px" height="363.7px" viewBox="0 0 500 363.7" style="enable-background:new 0 0 500 363.7;" xml:space="preserve">
<title>Icon/Youtube/Grey</title>
<desc>Created with Sketch.</desc>
<g id="Icon_x2F_Youtube_x2F_Grey">
	<g id="youtube" transform="translate(0.000000, 4.000000)">
		<path class="st0" d="M250,359.7c-15,0-147.1-0.3-184.5-10.3c-26.5-7.3-47.6-28.1-55.1-54.4C3.1,255.2-0.2,216.6,0,178.2
			c-0.2-37.9,3.1-76.3,9.9-113.8c7.1-28.6,28.2-50.4,55.2-58C102.9-3.7,235-4,250-4c14.9,0,146.9,0.3,184.1,9.3
			c27.8,7.8,48.8,29.5,55.7,56.8c0.1,0.4,0.2,0.9,0.3,1.4c6.8,37.7,10.1,76.4,9.9,114.9c0.1,37.7-3.2,75.8-9.9,113
			c-7.1,28.6-28.2,50.4-55.3,58C397.1,359.4,265,359.7,250,359.7z M250,37.7c-56.5,0-149.4,2.4-173.8,8.9
			c-12.5,3.5-22.4,13.8-25.6,26.6c-6,33.6-9.1,69.4-9,105c-0.2,36.1,2.9,72.2,9.2,107.4c3.1,10.4,13,20.2,25.4,23.6
			c24.2,6.5,117.1,8.8,173.7,8.8s149.4-2.4,173.8-8.9c12.5-3.5,22.4-13.8,25.6-26.6c6-33.3,9.1-68.8,9-104.2
			c0.2-35.9-2.8-71.7-9.1-106.7c-3.4-12.6-13.2-22.5-25.7-26.1C396.8,39.1,289.2,37.7,250,37.7z"/>
		<path class="st0" d="M203.1,267.2c-3.6,0-7.2-0.9-10.5-2.8c-6.4-3.7-10.4-10.6-10.4-18V110.2c0-7.4,3.9-14.3,10.4-18
			c6.4-3.7,14.3-3.8,20.8-0.1l119.8,68.1c6.5,3.7,10.5,10.6,10.5,18.1c0,7.5-4,14.4-10.5,18.1l-119.8,68.1
			C210.2,266.3,206.7,267.2,203.1,267.2z M224,146v64.6l56.8-32.3L224,146z"/>
	</g>
</g>
</svg>
