<svg xmlns="http://www.w3.org/2000/svg" viewBox="0 0 36.5 40.33">
  <g data-name="Layer 2">
    <g data-name="Layer 1">
      <g data-name="7.1_MakeTheSwitch_LGE">
        <path d="M16.33 40.33a.88.88 0 0 1-.39-.08 1 1 0 0 1-.6-1L17.12 25H1a1 1 0 0 1-.91-.58 1 1 0 0 1 .14-1.06L19.4.36a1 1 0 0 1 1.17-.28 1 1 0 0 1 .59 1l-1.78 14.25H35.5a1 1 0 0 1 .91.58 1 1 0 0 1-.14 1.09L17.1 40a1 1 0 0 1-.77.33zM3.14 23h15.11a1 1 0 0 1 .75.34 1 1 0 0 1 .24.78l-1.49 12 15.62-18.79H18.25a1 1 0 0 1-.75-.33 1 1 0 0 1-.24-.78l1.49-12z" data-name="Icon/Zap/Base"/>
      </g>
    </g>
  </g>
</svg>