<svg xmlns="http://www.w3.org/2000/svg" width="500" height="550" viewBox="0 0 500 550"><path d="M225 550c-3.3 0-6.7-.7-9.9-2.1-10.2-4.4-16.2-15-14.9-26L221.7 350H25c-9.7 0-18.5-5.6-22.6-14.4-4.1-8.8-2.8-19.1 3.4-26.6l250-300c7.1-8.6 19-11.3 29.2-6.9s16.2 15 14.8 26L278.3 200H475c9.7 0 18.5 5.6 22.6 14.4 4.1 8.8 2.8 19.2-3.4 26.6l-250 300c-4.9 5.8-11.9 9-19.2 9zM78.4 300H250c7.2 0 14 3.1 18.7 8.4 4.7 5.4 7 12.5 6.1 19.7l-14.4 115.4L421.6 250H250c-7.2 0-14-3.1-18.7-8.5-4.7-5.4-7-12.5-6.1-19.6l14.4-115.4L78.4 300z" /></svg>