<svg xmlns="http://www.w3.org/2000/svg" viewBox="0 0 59 42.99">
  <g data-name="Layer 2">
    <g data-name="Layer 1">
      <path d="M58 21.61c-.76-2.09-2-4.13-4.43-7.6.37.51-6.42-8.89-9.15-12.84L43.64 0l-.83 1.16C40.55 4.35 34.73 12.29 34 13.3l1.63 1.16c.64-.89 5.36-7.35 8-11 3.08 4.39 8.7 12.18 8.36 11.69a31.52 31.52 0 0 1 4.19 7.13A15.43 15.43 0 0 1 57 27.8a13.17 13.17 0 0 1-6.81 11.49 7.8 7.8 0 0 0 1.14-4.06 8.86 8.86 0 0 0-.48-3.12 15.94 15.94 0 0 0-2.13-3.74c.17.24-3-4.23-4.27-6.11l-.81-1.2-.84 1.19c-1 1.49-3.82 5.38-4.24 6a16.09 16.09 0 0 0-2.16 3.85 9.06 9.06 0 0 0-.48 3.13 7.72 7.72 0 0 0 1.29 4.3c-3.83-1.67-7.33-4.63-8.94-8.15l-1.82.83C29.29 38.43 37.08 43 43.63 43A15.29 15.29 0 0 0 59 27.8a17.24 17.24 0 0 0-1-6.19zM37.92 35.23a7.13 7.13 0 0 1 .37-2.47 14.26 14.26 0 0 1 1.91-3.38c.33-.48 2.15-3 3.42-4.81 1.47 2.13 3.61 5.15 3.46 4.94A14.33 14.33 0 0 1 49 32.78a7.11 7.11 0 0 1 .36 2.45 5.71 5.71 0 1 1-11.41 0z"/>
      <path d="M36.41 16.48a1 1 0 0 0-.91-.57H19.38L21.16 1.7A1 1 0 0 0 19.4.93l-19.17 23A1 1 0 0 0 .09 25a1 1 0 0 0 .91.57h16.12l-1.78 14.21a1 1 0 0 0 .6 1 .89.89 0 0 0 .39.09 1 1 0 0 0 .77-.36l19.17-23a1 1 0 0 0 .14-1.03zM17.75 36.65l1.49-11.95a1 1 0 0 0-.24-.79 1 1 0 0 0-.75-.34H3.14L18.75 4.83l-1.49 12a1 1 0 0 0 .24.79 1 1 0 0 0 .75.34h15.12z"/>
    </g>
  </g>
</svg>