<svg version="1.1" id="Layer_1" xmlns="http://www.w3.org/2000/svg" xmlns:xlink="http://www.w3.org/1999/xlink" x="0px" y="0px"
   viewBox="0 0 1055 330" style="enable-background:new 0 0 1055 330;" xml:space="preserve">
<style type="text/css">
  .st0{fill:#AFDFFA;}
  .st1{opacity:0.66;}
  .st2{fill:#FFFFFF;}

  .white{fill:#FFFFFF;}
  .st3{fill:none;}
  .st4{fill:#9CD8DF;}
  .st5{fill:#69BD45;}
  .st6{fill:#61B747;}
  .st7{fill:#FA0E68;}
  .st8{opacity:0.1;fill:#662244;enable-background:new    ;}
  .st9{fill:#EF5A92;}

  .st13{fill-rule:evenodd;clip-rule:evenodd;fill:#FFFFFF;}


    @keyframes spin {
      from {
          transform:rotate(0deg);
      }
      to {
          transform:rotate(360deg);
      }
  }

  @keyframes slowdown {
      0% { -webkit-transform: rotate(0deg); }
     13% { -webkit-transform: rotate(630deg); }
     25% { -webkit-transform: rotate(1080deg); }
     38% { -webkit-transform: rotate(1530deg); }
     50% { -webkit-transform: rotate(1890deg); }
     63% { -webkit-transform: rotate(2160deg); }
     75% { -webkit-transform: rotate(2340deg); }
     88% { -webkit-transform: rotate(2430deg); }
    100% { -webkit-transform: rotate(2466deg); }
}

  #windwheel-1,
  #windwheel-2 {
    animation-name: spin;
    animation-duration: 1000ms;
    animation-iteration-count: infinite;
    animation-timing-function: linear;

    width: 120px;
    height: 120px;

    transform-origin: 40.05% 37.7%;
  }



  #windwheel-1 {
    transform-origin: 40.05% 37.7%;
    animation-name: slowdown;
    animation-name: spin;
    animation-duration: 900ms;
    animation-delay: 1200ms;
  }
  
  #windwheel-2 {
    transform-origin: 54.4% 20.8%;
    animation-name: slowdown;
    animation-name: spin;
    animation-duration: 1200ms;
    animation-delay: 800ms;
  }
</style>
<g id="Layer_1_1_">
  <rect class="st0" width="1055" height="330"/>
  <g class="st1">
    <path class="st2" d="M206.9,152.7c8.4,3.6,16.8,6.7,25.5,8.9c1.1,0.3,2.2,0.5,3.3,0.8c1.1,0.2,2.2,0.5,3.3,0.8
      c2.2,0.4,4.4,0.9,6.6,1.2c2.2,0.3,4.4,0.7,6.6,0.9l3.3,0.3l1.7,0.2l1.7,0.1l3.3,0.2c1.1,0.1,2.2,0.1,3.3,0.1c2.2,0,4.5,0,6.7,0
      c2.2-0.1,4.5-0.1,6.7-0.2c2.2-0.2,4.5-0.3,6.7-0.5c8.9-0.8,17.9-2.2,26.8-3.5c-8.6,3-17.4,5.2-26.5,6.6c-2.3,0.3-4.5,0.6-6.8,0.9
      c-2.3,0.2-4.6,0.4-6.8,0.5c-4.6,0.2-9.2,0.2-13.8,0c-4.6-0.3-9.2-0.8-13.7-1.7c-2.3-0.4-4.5-1-6.7-1.5c-2.2-0.6-4.4-1.2-6.6-1.9
      C222.8,161.7,214.5,157.7,206.9,152.7z"/>
  </g>
  <g class="st1">
    <path class="st2" d="M361.1,170.2c-3.1-0.8-5.9-1.3-8.8-1.2c-2.8,0.1-5.6,0.6-8.4,1.3s-5.7,1.6-8.6,2.4c-3,0.8-6,1.5-9.2,1.6
      c2.6-1.7,5.3-3.2,8.1-4.5c2.8-1.3,5.6-2.5,8.7-3.3s6.4-1.1,9.7-0.5C355.9,166.5,358.9,168,361.1,170.2z"/>
  </g>
  <g class="st1">
    <path class="st2" d="M611.7,176c5.4-0.1,10.7-0.2,15.9-0.4c5.3-0.2,10.5-0.5,15.7-1c5.2-0.4,10.5-1,15.7-1.6s10.5-1.3,15.9-1.9
      c-4.9,2.1-10.1,3.7-15.3,4.9s-10.6,2.1-15.9,2.5c-5.4,0.4-10.8,0.5-16.1,0.1C622.2,178.3,616.9,177.5,611.7,176z"/>
  </g>
  <g class="st1">
    <path class="st2" d="M446.7,78.8c5.4-0.1,10.7-0.2,15.9-0.4c5.3-0.2,10.5-0.5,15.7-1c5.2-0.4,10.5-1,15.7-1.6s10.5-1.3,15.9-1.9
      c-4.9,2.1-10.1,3.7-15.3,4.9c-5.2,1.2-10.6,2.1-15.9,2.5c-5.4,0.4-10.8,0.5-16.1,0.1C457.2,81.1,451.9,80.3,446.7,78.8z"/>
  </g>
  <g class="st1">
    <path class="st2" d="M807.3,132.2c-6.6-0.9-13-1.8-19.5-2.3s-12.9-0.6-19.4-0.3s-12.9,1-19.3,2c-6.4,1-12.8,2.3-19.3,3.6
      c6-2.9,12.3-5.1,18.7-6.7c6.5-1.6,13.1-2.6,19.8-2.9s13.4,0.1,19.9,1.2C794.7,127.9,801.2,129.7,807.3,132.2z"/>
  </g>
  <g class="st1">
    <path class="st2" d="M378.2,74.3c4.6,1,9.2,1.1,13.8,0.6c4.6-0.5,9-1.6,13.4-2.8c4.4-1.3,8.8-2.7,13.2-4.3l13.2-4.5
      c4.5-1.4,9-2.8,13.5-3.9c4.6-1.1,9.2-2.1,13.9-2.7c9.3-1.4,18.9-1.5,28.1-0.1c-9.4,0.2-18.6,1.2-27.6,3.1c-4.5,1-9,2-13.4,3.3
      c-4.4,1.2-8.9,2.6-13.3,4.1c-8.8,2.8-17.7,6-26.9,8c-4.6,1-9.3,1.7-14.1,1.8C387.3,76.9,382.5,76.1,378.2,74.3z"/>
  </g>
  <g class="st1">
    <path class="st2" d="M675.6,16.4c-9.2-2-18.4-3.7-27.7-4.1c-9.2-0.4-18.4,0.8-27.2,3.6c-4.4,1.3-8.8,2.9-13.4,4.3
      c-4.5,1.4-9.1,2.7-13.9,3.4c-4.7,0.7-9.6,0.9-14.3,0.6c-4.8-0.4-9.4-1.2-14-2.4c4.7,0.4,9.4,0.7,14,0.5c4.6-0.1,9.2-0.7,13.7-1.7
      c9-1.9,17.5-5.7,26.7-8.5c4.6-1.3,9.3-2.4,14.1-2.9s9.6-0.5,14.4,0C657.7,10.2,666.8,12.9,675.6,16.4z"/>
  </g>
  <g class="st1">
    <path class="st2" d="M651.1,133.1c4.7-0.2,9.2-1.4,13.4-3.4c4.2-1.9,8.1-4.3,12.1-6.8l11.8-7.7c4-2.5,8.1-4.9,12.3-7.1
      c4.2-2.1,8.6-4.1,13.2-5.6c4.5-1.5,9.2-2.7,13.9-3.4c4.7-0.7,9.5-0.9,14.3-0.7c4.7,0.3,9.4,1,14,2.1c-4.7-0.2-9.4-0.4-14-0.1
      s-9.2,0.9-13.7,1.8c-4.5,1-8.9,2.2-13.2,3.9c-4.3,1.6-8.5,3.5-12.6,5.6c-8.3,4.2-16,9.3-24.3,13.9c-4.1,2.3-8.4,4.5-12.9,6
      C660.7,133.1,655.8,133.8,651.1,133.1z"/>
  </g>
  <rect x="0.3" class="st3" width="1054.7" height="329.6"/>
  <g id="qkbq5e_5_">
    <g>
      <path class="st2" d="M880.1,57.5c9-4,18.2-3.7,27.3-0.4c11.4-13.7,29.4-16.7,43.2-13c18.4,4.9,26.6,15.7,25.8,31
        c3.4,1,6.7,1.7,9.7,3c7.3,3.2,12,8,12.1,15c0.1,6.8-4.2,12-11.5,14.9c-4.5,1.8-9.9,3-14.9,3c-38.1,0.2-76.2,0.1-114.3,0.1
        c-10.7,0-19.7-7.2-20.3-16.1c-0.7-10.2,6.7-18.5,17.9-19.5c3.5-0.3,7,0.3,11,0.5C866.6,67.9,871.1,61.5,880.1,57.5z"/>
    </g>
  </g>
  <path class="st4" d="M405.8,330c-92.9-39.9-238.6-94-351.1-97.3c-14.3-0.3-32.9,2.1-54.7,6.5V330H405.8z"/>
  <g>
    <path class="st5" d="M1055,330V199.3c-49.4-10.6-99.7-17.3-150.3-18.9C584.8,170.8,211.5,285.6,36.3,330H1055z"/>
  </g>
  <path class="st2" d="M142.3,71.9c2.9-0.6,5.6-1.6,8.4-1.8c6.2-0.5,10.9,2,13.9,6.6c3,4.5,2.3,10-1.4,13.9c-3,3.2-6.9,4.8-11.7,4.8
    c-14.9,0-29.8,0-44.8,0c-6.2,0-11.1-4.1-11.4-9.2c-0.2-5,4.5-9.4,10.5-9.7c1.6-0.1,3.2,0.2,5.1,0.3c-1.3-5.2-0.5-9.9,3.9-13.8
    c2.6-2.3,5.9-3.7,9.6-4c4.6-0.5,8.7,0.7,12.2,3.3C140.3,64.7,141.6,68.3,142.3,71.9z"/>
  <g>
    <path class="st6" d="M1055,196.5c-23.5-3-47.5-4.9-72-5.6c-297.3-9-640.6,89.5-828.3,139.1H1055V196.5z"/>
  </g>
  <g id="YpSM9X.tif_16_">
    <g>
      <path class="st2" d="M1023,277.2c-0.5,2-1.7,3.4-3.8,4c-2.2,0.6-4.2,0.3-6.1-1c-1.1-0.8-1.8-2-2-3.5c1-0.2,2-0.5,3-0.8
        c0.1,0.2,0.2,0.3,0.2,0.5c0.4,1.9,2.4,2.4,3.9,1.9c0.7-0.2,1.1-0.6,1.1-1.3c0-0.7-0.4-1.2-1.1-1.4c-0.8-0.2-1.6-0.3-2.4-0.5
        c-1.9-0.4-3.4-1.2-4.1-3.1c-0.6-1.9,0.1-4,1.8-5.2c2.1-1.4,4.4-1.4,6.7-0.2c1.3,0.7,1.9,1.7,2.2,3.2c-1,0.3-2,0.6-2.9,0.8
        c-0.9-1.6-1.8-2.1-3.2-1.8c-0.8,0.2-1.4,0.8-1.4,1.5c0,0.9,0.6,1.2,1.3,1.4c0.5,0.1,1,0.2,1.4,0.3c2.5,0.4,4.4,1.4,5.1,4.1
        C1023,276.4,1023,276.8,1023,277.2z"/>
      <path class="st2" d="M973.8,300.6c-0.7-0.1-1.4-0.2-2-0.4c-3.6-1.1-5.6-4.4-5.3-8.5c0.3-3.1,2.3-5.7,5.3-6.6s6.2,0.1,8.2,2.5
        c2.9,3.6,2.3,11.2-4.3,12.7c-0.4,0.1-0.9,0.2-1.3,0.3C974.1,300.6,973.9,300.6,973.8,300.6z M973.9,286.8c-3.2,0-5.4,2.5-5.4,5.9
        s2.2,5.8,5.4,5.8s5.4-2.4,5.3-6C979.3,289.2,977.1,286.8,973.9,286.8z"/>
      <path class="st2" d="M945.9,300.6c-0.8-0.2-1.7-0.3-2.4-0.5c-2.9-1.1-4.4-3.2-4.8-6.3c-0.3-2.7,0.3-5.1,2.3-7
        c3.2-3.1,8.9-2.5,11,1.2c0.3,0.5,0.5,1,0.7,1.6c-0.4,0.1-0.7,0.3-1,0.4s-0.6,0.2-0.9,0.3c-0.1-0.1-0.2-0.1-0.2-0.1
        c-0.9-2.4-2.3-3.4-4.8-3.3c-2.3,0.1-4.2,1.5-4.8,3.8c-0.5,2-0.4,4,0.8,5.7s2.9,2.4,5,2.1c1.8-0.2,3.1-1.3,3.8-3
        c0.1-0.2,0.2-0.3,0.3-0.6c0.6,0.2,1.2,0.4,1.8,0.6c-0.3,2.1-2.2,4.1-4.5,4.7c-0.6,0.1-1.2,0.2-1.7,0.3
        C946.3,300.6,946.1,300.6,945.9,300.6z"/>
      <path class="st2" d="M926.5,276.1c0.6-1.7,1.2-3.1,1.8-4.6c0.6-1.6,1.2-3.2,1.8-4.8c0.2-0.4,0.4-0.6,0.9-0.6c1.3,0,2.6,0,4,0
        c0,5,0,10,0,15c-1.1,0-2.1,0-3.2,0c0-3.1,0-6.2,0-9.3c-0.1,0-0.1,0-0.2-0.1c-0.1,0.2-0.2,0.4-0.3,0.7c-1,2.7-2.1,5.3-3.1,8
        c-0.2,0.6-0.5,0.8-1.1,0.8c-2,0-2,0-2.7-1.8c-0.9-2.3-1.8-4.5-2.7-6.8c-0.1-0.2-0.2-0.4-0.4-0.5c0,3,0,6.1,0,9.1
        c-1.1,0-2.1,0-3.2,0c0-5,0-9.9,0-15c1.4,0,2.7,0,4,0c0.2,0,0.5,0.4,0.6,0.6c1.2,2.8,2.3,5.7,3.5,8.5
        C926.2,275.4,926.3,275.6,926.5,276.1z"/>
      <path class="st2" d="M1009,281.1c-1.1,0-2.1,0-3.2,0c0-3.1,0-6.2,0-9.3c-0.1,0-0.1,0-0.2,0c-0.5,1.3-1.1,2.6-1.6,4
        c-0.6,1.6-1.2,3.1-1.8,4.7c-0.2,0.5-0.4,0.7-1,0.7c-2,0-2,0-2.8-1.9c-0.9-2.3-1.8-4.5-2.7-6.8c-0.1-0.2-0.1-0.3-0.4-0.5
        c0,3,0,6,0,9.1c-1.1,0-2.1,0-3.2,0c0-4.9,0-9.9,0-15c1.3,0,2.7,0,4.1,0c0.2,0,0.4,0.4,0.5,0.6c1.1,2.7,2.2,5.5,3.3,8.2
        c0.1,0.3,0.3,0.6,0.5,1.1c0.2-0.4,0.3-0.6,0.4-0.9c1.1-2.8,2.2-5.6,3.3-8.4c0.2-0.4,0.4-0.6,0.9-0.6c1.3,0,2.6,0,4,0
        C1009,271.1,1009,276,1009,281.1z"/>
      <path class="st2" d="M977.3,266.1c1.1,0,2.2,0,3.3,0c0,0.3,0,0.6,0,0.9c0,2.8,0,5.6,0,8.3c0,1.9,1.1,2.9,3,2.7
        c1.4-0.1,2.2-1.1,2.2-2.7c0-2.8,0-5.5,0-8.3c0-0.3,0-0.6,0-0.9c1.2,0,2.2,0,3.3,0c0,0.1,0.1,0.1,0.1,0.2c0,3.4,0.1,6.8-0.1,10.1
        c-0.1,2.9-2.3,4.9-5.3,5c-2.1,0.1-4-0.3-5.4-2.1c-0.9-1-1.2-2.3-1.2-3.6c0-3.1,0-6.3,0-9.4C977.2,266.3,977.3,266.2,977.3,266.1z
        "/>
      <path class="st2" d="M937.6,266.1c1.1,0,2.2,0,3.3,0c0,0.3,0,0.6,0,0.9c0,2.7,0,5.5,0,8.2c0,1.8,0.8,2.7,2.2,2.8
        c1.9,0.2,3-0.8,3-2.8c0-2.7,0-5.5,0-8.2c0-0.3,0-0.6,0-1c1.1,0,2.2,0,3.4,0c0,0.4,0,0.8,0,1.2c0,2.7,0,5.5,0,8.2
        c0,2.4-0.9,4.4-3.2,5.3c-2.5,1-4.9,0.9-7.1-0.9c-1.3-1.1-1.7-2.6-1.8-4.2c0-3.1,0-6.2,0-9.3C937.5,266.3,937.5,266.2,937.6,266.1
        z"/>
      <path class="st2" d="M962.7,269.8c-1.1,0.3-2,0.6-3,0.8c-0.8-1.6-1.8-2.1-3.2-1.8c-0.8,0.2-1.4,0.8-1.4,1.5
        c0,0.8,0.6,1.2,1.3,1.3c0.9,0.2,1.9,0.4,2.8,0.6c2.4,0.6,3.7,2.2,3.7,4.4c0,2.2-1.5,3.9-3.7,4.6c-1.6,0.4-3.1,0.3-4.6-0.3
        c-1.9-0.8-3-2.2-3.4-4.3c1-0.3,2-0.5,3.1-0.8c0.3,1.3,0.9,2.2,2.1,2.4c0.6,0.1,1.3,0.1,2-0.1c0.6-0.1,1-0.6,1.1-1.3
        c0-0.7-0.4-1.2-1-1.3c-0.8-0.2-1.6-0.4-2.5-0.5c-1.7-0.3-3.2-1.1-3.9-2.7c-1-2.3,0.1-4.9,2.4-6c1.9-0.9,3.9-0.8,5.8,0.2
        C961.7,267.2,962.4,268.3,962.7,269.8z"/>
      <path class="st2" d="M974.7,266.1c0,1.1,0,2.1,0,3.2c-2,0-4,0-6.1,0c0,0.9,0,1.6,0,2.4c0,0.2,0.4,0.4,0.6,0.4c1.3,0,2.7,0,4,0
        c0.3,0,0.6,0,0.9,0c0,1,0,1.9,0,3c-1.9,0-3.7,0-5.5,0c0,1,0,1.9,0,2.8c2,0,4,0,6.1,0c0,1.1,0,2.1,0,3.2c-3.1,0-6.2,0-9.4,0
        c0-5,0-9.9,0-14.9C968.4,266.1,971.5,266.1,974.7,266.1z"/>
      <path class="st2" d="M990.5,294c1.2,2.1,2.3,4.1,3.6,6.3c-0.9,0-1.5,0-2.2,0c-0.2,0-0.4-0.3-0.5-0.5c-0.9-1.6-1.8-3.2-2.7-4.8
        c-0.3-0.7-0.7-1-1.5-0.9c-0.3,0.1-0.7,0-1.2,0c0,2,0,4,0,6.1c-0.8,0-1.4,0-2.1,0c0-5,0-10,0-15.1c0.7,0,1.5,0,2.2,0
        c1.4,0,2.7,0,4.1,0.1c2.2,0.2,3.7,1.7,4,3.8c0.2,2.3-0.8,4-3,4.8C990.8,293.8,990.7,293.9,990.5,294z M986,292.1
        c1.3,0,2.5,0.1,3.8,0c1.2-0.1,2-1,2.1-2.2c0.1-1.1-0.5-2.3-1.6-2.5c-1.4-0.3-2.9-0.3-4.3-0.4C986,288.8,986,290.4,986,292.1z"/>
      <path class="st2" d="M1001.5,300.2c0.1-0.3,0.2-0.6,0.2-0.8c1.8-4.5,3.6-9,5.3-13.5c0.3-0.7,0.6-1,1.3-0.9c0.3,0,0.6-0.1,0.9,0
        c0.3,0.1,0.7,0.3,0.8,0.5c1.9,4.7,3.8,9.5,5.7,14.2c0,0.1,0,0.2,0,0.4c-0.7,0-1.3,0-1.9,0c-0.2,0-0.4-0.3-0.5-0.5
        c-0.4-1-0.8-2-1.2-3c-0.2-0.4-0.4-0.6-0.9-0.6c-1.8,0-3.5,0-5.3,0c-0.5,0-0.7,0.2-0.9,0.6c-0.3,1-0.8,1.9-1.1,2.9
        c-0.2,0.6-0.5,0.8-1.1,0.7C1002.5,300.2,1002.1,300.2,1001.5,300.2z M1008.6,287.4c-0.9,2.3-1.7,4.4-2.5,6.5c1.7,0,3.3,0,5,0
        C1010.3,291.8,1009.5,289.7,1008.6,287.4z"/>
      <path class="st2" d="M918,285.1c0.7,0,1.3-0.1,1.9,0c0.2,0,0.5,0.4,0.6,0.7c1.3,3.6,2.6,7.2,4,10.8c0.1,0.2,0.2,0.4,0.3,0.7
        c0.9-2.3,1.7-4.5,2.5-6.8c0.6-1.6,1.2-3.1,1.7-4.7c0.2-0.6,0.4-0.8,1-0.7c0.5,0,0.9,0,1.5,0c-0.6,1.5-1.1,2.9-1.7,4.3
        c-1.3,3.4-2.6,6.7-3.9,10.1c-0.3,0.9-1,0.6-1.6,0.7s-0.9-0.1-1.1-0.7c-1.7-4.6-3.4-9.1-5.1-13.7
        C918.2,285.7,918.1,285.5,918,285.1z"/>
      <path class="st2" d="M953.7,287.1c0-0.7,0-1.3,0-2c0.3,0,0.5-0.1,0.8-0.1c3.5,0,7,0,10.5,0c0.9,0,0.9,0.4,0.9,1s0,1.1-0.9,1
        c-1.4-0.1-2.7,0-4.2,0c0,4.4,0,8.6,0,13c-0.7,0-1.4,0-2.1,0c0-4.3,0-8.6,0-13C957,287.1,955.4,287.1,953.7,287.1z"/>
      <path class="st2" d="M936.1,285.1c0,5.1,0,10,0,15.1c-0.6,0-1.2,0-1.7,0c-0.6,0-0.4-0.4-0.4-0.8c0-2.7,0-5.5,0-8.2
        c0-1.8,0-3.6,0-5.4c0-0.6,0.2-0.8,0.8-0.8C935.1,285.1,935.6,285.1,936.1,285.1z"/>
      <path class="st2" d="M997.2,285.1c0.7,0,1.3,0,2,0c0,5,0,10,0,15c-0.7,0-1.3,0-2,0C997.2,295.2,997.2,290.2,997.2,285.1z"/>
    </g>
  </g>
  <g id="iMYHIZ.tif_1_">
    <g>
      <path class="st2" d="M41.9,302c-0.6-0.1-1.1-0.2-1.7-0.4c-3.5-1.1-5.5-3.5-6.1-7.1c-0.2-1.6,0-3.2,0.7-4.6
        c3.4-7.9,6.8-15.7,10.2-23.6c1-2.4,2-4.8,3.1-7.1c1.3-2.8,3.4-4.5,6.5-5.1c3.4-0.6,6.9,1,8.6,4c0.7,1.1,1.2,2.4,1.7,3.6
        c1.5,3.3,2.9,6.7,4.3,10c0,0.1,0,0.1,0.1,0.2c0.3-0.7,0.6-1.4,0.9-2.1c1.6-3.6,3.1-7.3,4.7-10.9c1.3-2.8,3.5-4.4,6.5-4.8
        c3.9-0.6,7.5,1.4,9.1,5.1c1.8,4.1,3.6,8.2,5.4,12.3c0,0.1,0.1,0.2,0.2,0.4c0.3-0.7,0.5-1.2,0.8-1.8c1.6-3.6,3.1-7.3,4.7-10.9
        c1.3-2.9,3.5-4.6,6.6-5c4.5-0.7,8.8,2.4,9.6,6.9c0.3,1.9,0.1,3.6-0.7,5.3c-1.5,3.4-2.9,6.8-4.4,10.1c-2.8,6.5-5.7,13.1-8.5,19.6
        c-0.5,1.1-1,2.1-1.8,3c-1.5,1.7-3.3,2.6-5.5,2.9c-0.1,0-0.1,0-0.2,0.1c-0.5,0-0.9,0-1.4,0c-0.2,0-0.3,0-0.5-0.1
        c-3.1-0.5-5.4-2.2-6.7-5.1c-1.7-3.8-3.3-7.7-5-11.5c-0.2-0.4-0.3-0.8-0.5-1.2c-0.1,0.1-0.1,0.2-0.1,0.2c-1.4,3.1-2.7,6.3-4.1,9.4
        c-0.6,1.3-1.1,2.6-1.7,3.8c-1.2,2.1-3,3.6-5.4,4.2c-0.5,0.1-0.9,0.2-1.4,0.3c-0.5,0-1,0-1.6,0c-0.1,0-0.1,0-0.2-0.1
        c-1-0.1-2-0.4-2.9-0.9c-1.9-1-3.1-2.6-4-4.5c-1.7-3.8-3.3-7.6-4.9-11.4c-0.1-0.3-0.3-0.7-0.5-1c-0.1,0.1-0.1,0.2-0.1,0.2
        c-1.2,2.9-2.5,5.7-3.7,8.6c-0.6,1.5-1.2,3-1.9,4.4c-1.1,2.1-2.8,3.6-5.2,4.3c-0.6,0.2-1.2,0.2-1.7,0.4
        C42.9,302,42.4,302,41.9,302z M56.1,256.7c-0.2,0-0.4,0-0.6,0c-0.2,0-0.3,0-0.5,0.1c-2,0.4-3.5,1.6-4.3,3.5
        c-4.5,10.3-8.9,20.6-13.3,30.8c-0.5,1.1-0.6,2.3-0.4,3.5c0.6,3.1,3.8,5.3,6.9,4.6c2.1-0.5,3.4-1.8,4.2-3.7
        c2.2-5.1,4.4-10.2,6.6-15.2c0.3-0.6,0.7-1,1.3-1s1.1,0.4,1.3,1c1.7,4,3.4,8,5.1,11.9c0.6,1.3,1.1,2.6,1.7,3.9
        c1.4,2.8,4.1,3.7,6.7,3c1.9-0.5,3.1-1.8,3.9-3.5c1.5-3.3,2.9-6.6,4.3-9.9c0.8-1.8,1.6-3.6,2.4-5.4c0.3-0.7,0.9-1,1.6-0.8
        c0.5,0.1,0.8,0.5,1,0.9c2.2,5.2,4.4,10.3,6.7,15.5c1,2.3,2.8,3.5,5.3,3.5c2.2,0,4-1,5.1-2.9c0.5-0.9,0.9-1.9,1.3-2.8
        c4.1-9.5,8.2-19,12.3-28.5c0.5-1.2,0.7-2.4,0.4-3.7c-0.5-2.6-3.1-4.7-5.7-4.6c-2.5,0.1-4.3,1.3-5.3,3.6
        c-1.7,3.8-3.3,7.6-4.9,11.4c-0.6,1.3-1.2,2.7-1.7,4c-0.2,0.5-0.6,0.9-1.2,0.9c-0.6,0.1-1.1-0.2-1.4-0.7c-0.1-0.2-0.2-0.4-0.3-0.6
        c-1-2.2-2-4.5-2.9-6.7c-1.2-2.8-2.4-5.6-3.6-8.3c-1-2.1-2.7-3.3-5-3.4c-2.4-0.1-4.5,1.2-5.5,3.4c-2,4.5-3.9,9.1-5.9,13.7
        c-0.3,0.7-0.6,1.4-0.9,2c-0.2,0.5-0.7,0.8-1.3,0.7c-0.7,0-1.1-0.4-1.3-1c-0.6-1.3-1.2-2.6-1.7-3.9c-1.7-3.8-3.3-7.7-5-11.5
        C60.3,257.9,58.5,256.7,56.1,256.7z"/>
    </g>
  </g>
  <path class="st2" d="M458.6,298.7c0.9,0,1.8,0,2.7,0.1l-36.1-175.6l-6.1,1.2l35.8,174.2C456.1,298.6,457.3,298.6,458.6,298.7z"/>
  <path class="st2" d="M567.3,244.2L577.9,67l-6.2-0.4l-10.6,177.8C563.1,244.3,565.2,244.2,567.3,244.2z"/>
</g>
<g id="ps-logo">
  <g>
    <g>
      <path class="white" d="M713.1,293.6l-0.5,1.4c-0.1,0.3-0.3,0.6-0.5,0.7s-0.4,0.2-0.6,0.2c-0.1,0-0.3,0-0.4-0.1
        c-0.1,0-0.2-0.1-0.3-0.2s-0.2-0.1-0.2-0.2c-0.1-0.1-0.1-0.1-0.1-0.2l3-7.6c0.1-0.2,0.2-0.3,0.3-0.4c0.2-0.1,0.5-0.2,0.9-0.2
        c0.2,0,0.4,0,0.6,0c0.1,0,0.3,0.1,0.4,0.1c0.1,0.1,0.2,0.1,0.2,0.2c0.1,0.1,0.1,0.2,0.1,0.2l3,7.6c0,0,0,0.1-0.1,0.2
        s-0.1,0.1-0.2,0.2c-0.1,0.1-0.2,0.1-0.4,0.2c-0.1,0-0.3,0.1-0.4,0.1c-0.2,0-0.4-0.1-0.6-0.2c-0.2-0.1-0.4-0.4-0.5-0.7l-0.5-1.4
        L713.1,293.6L713.1,293.6z M715.9,292.2c-0.1-0.2-0.1-0.3-0.2-0.5c-0.1-0.1-0.1-0.3-0.2-0.5c-0.1-0.2-0.1-0.4-0.2-0.6l-0.6-1.6
        l-1.2,3.1h2.4V292.2z"/>
      <path class="white" d="M724,295c0,0.3-0.1,0.6-0.2,0.7c-0.2,0.1-0.4,0.2-0.6,0.2H723c-0.3,0-0.5-0.1-0.6-0.2
        c-0.2-0.1-0.2-0.4-0.2-0.7v-8.2c0,0,0.1-0.1,0.2-0.1c0.1-0.1,0.3-0.1,0.5-0.1c0.1,0,0.3,0,0.4,0.1c0.1,0,0.3,0.1,0.4,0.2
        c0.1,0.1,0.2,0.3,0.3,0.5s0.1,0.4,0.1,0.7v2.2c0.2-0.3,0.5-0.6,0.9-0.8c0.4-0.2,0.8-0.3,1.2-0.3s0.9,0.1,1.2,0.2
        c0.4,0.2,0.7,0.4,1,0.7c0.3,0.3,0.5,0.7,0.6,1.1s0.2,0.9,0.2,1.4s-0.1,1-0.2,1.4c-0.1,0.4-0.4,0.8-0.6,1.1
        c-0.3,0.3-0.6,0.5-1,0.7s-0.8,0.3-1.2,0.3c-0.5,0-0.9-0.1-1.3-0.3c-0.4-0.2-0.6-0.5-0.8-0.8l0,0L724,295L724,295z M724,292.9
        c0,0.2,0,0.4,0.1,0.6s0.2,0.4,0.3,0.5s0.3,0.2,0.5,0.3c0.2,0.1,0.4,0.1,0.6,0.1c0.5,0,0.9-0.2,1.2-0.5c0.3-0.4,0.5-0.8,0.5-1.4
        s-0.2-1-0.5-1.4s-0.7-0.5-1.2-0.5c-0.4,0-0.7,0.1-1,0.3c-0.3,0.2-0.5,0.5-0.6,0.8v1.2H724z"/>
      <path class="white" d="M732.2,294.2c0.3,0.3,0.8,0.4,1.3,0.4s0.9-0.1,1.2-0.3c0.3-0.2,0.5-0.4,0.7-0.7c0,0,0,0,0.1,0
        s0.2,0.1,0.3,0.1c0.1,0.1,0.2,0.1,0.3,0.3c0.1,0.1,0.1,0.3,0.1,0.5s-0.1,0.3-0.2,0.5c-0.1,0.2-0.3,0.3-0.5,0.5
        c-0.2,0.1-0.5,0.3-0.9,0.3c-0.4,0.1-0.8,0.1-1.2,0.1c-0.5,0-1-0.1-1.4-0.2c-0.4-0.2-0.8-0.4-1.1-0.7c-0.3-0.3-0.5-0.6-0.7-1.1
        c-0.2-0.4-0.3-0.9-0.3-1.4s0.1-1,0.3-1.4s0.4-0.8,0.7-1.1c0.3-0.3,0.7-0.5,1.1-0.7c0.4-0.2,0.9-0.3,1.4-0.3s0.9,0.1,1.3,0.2
        c0.4,0.2,0.7,0.4,1,0.7c0.3,0.3,0.5,0.6,0.7,1s0.2,0.8,0.2,1.3v0.1c0,0.2,0,0.3-0.1,0.4s-0.2,0.1-0.4,0.1h-4.5
        C731.6,293.6,731.8,293.9,732.2,294.2 M734.7,292c0-0.5-0.2-0.8-0.4-1.1c-0.3-0.3-0.6-0.4-1.1-0.4c-0.4,0-0.8,0.1-1.1,0.4
        s-0.5,0.6-0.5,1.1H734.7z"/>
      <path class="white" d="M737.8,290.8c-0.5,0-0.8-0.2-0.8-0.7V290c0-0.5,0.3-0.7,0.8-0.7h0.3v-0.8c0-0.3,0.1-0.5,0.2-0.7
        c0.2-0.1,0.4-0.2,0.6-0.2h0.2c0.3,0,0.5,0.1,0.6,0.2c0.2,0.1,0.2,0.4,0.2,0.7v0.8h1.1c0.3,0,0.5,0.1,0.6,0.2s0.2,0.3,0.2,0.5v0.1
        c0,0.5-0.3,0.7-0.8,0.7h-1.1v2.8c0,0.3,0.1,0.6,0.2,0.7c0.1,0.2,0.3,0.2,0.6,0.2c0.2,0,0.4,0,0.5-0.1s0.2-0.2,0.3-0.3
        c0,0,0,0,0.1,0c0,0,0.1,0.1,0.2,0.1c0.1,0.1,0.1,0.1,0.1,0.2s0.1,0.2,0.1,0.3c0,0.3-0.2,0.6-0.5,0.8c-0.3,0.2-0.7,0.3-1.3,0.3
        c-0.7,0-1.3-0.2-1.6-0.6s-0.5-0.9-0.5-1.7v-3h-0.3L737.8,290.8L737.8,290.8z"/>
      <path class="white" d="M743.1,290.8c-0.5,0-0.8-0.2-0.8-0.7V290c0-0.5,0.3-0.7,0.8-0.7h0.3v-0.8c0-0.3,0.1-0.5,0.2-0.7
        c0.2-0.1,0.4-0.2,0.6-0.2h0.2c0.3,0,0.5,0.1,0.6,0.2s0.2,0.4,0.2,0.7v0.8h1.1c0.3,0,0.5,0.1,0.6,0.2s0.2,0.3,0.2,0.5v0.1
        c0,0.5-0.3,0.7-0.8,0.7h-1.1v2.8c0,0.3,0.1,0.6,0.2,0.7c0.1,0.2,0.3,0.2,0.6,0.2c0.2,0,0.4,0,0.5-0.1s0.3-0.2,0.3-0.3
        c0,0,0,0,0.1,0c0,0,0.1,0.1,0.2,0.1c0.1,0.1,0.1,0.1,0.1,0.2s0.1,0.2,0.1,0.3c0,0.3-0.2,0.6-0.5,0.8c-0.3,0.2-0.7,0.3-1.3,0.3
        c-0.7,0-1.3-0.2-1.6-0.6s-0.5-0.9-0.5-1.7v-3h-0.3L743.1,290.8L743.1,290.8z"/>
      <path class="white" d="M750.1,294.2c0.3,0.3,0.8,0.4,1.3,0.4s0.9-0.1,1.2-0.3c0.3-0.2,0.5-0.4,0.7-0.7c0,0,0,0,0.1,0
        s0.2,0.1,0.3,0.1c0.1,0.1,0.2,0.1,0.3,0.3c0.1,0.1,0.1,0.3,0.1,0.5s-0.1,0.3-0.2,0.5c-0.1,0.2-0.3,0.3-0.5,0.5
        c-0.2,0.1-0.5,0.3-0.9,0.3c-0.4,0.1-0.8,0.1-1.2,0.1c-0.5,0-1-0.1-1.4-0.2c-0.4-0.2-0.8-0.4-1.1-0.7c-0.3-0.3-0.5-0.6-0.7-1.1
        c-0.2-0.4-0.3-0.9-0.3-1.4s0.1-1,0.3-1.4s0.4-0.8,0.7-1.1c0.3-0.3,0.7-0.5,1.1-0.7c0.4-0.2,0.9-0.3,1.4-0.3s0.9,0.1,1.3,0.2
        c0.4,0.2,0.7,0.4,1,0.7c0.3,0.3,0.5,0.6,0.7,1s0.2,0.8,0.2,1.3v0.1c0,0.2,0,0.3-0.1,0.4s-0.2,0.1-0.4,0.1h-4.5
        C749.5,293.6,749.7,293.9,750.1,294.2 M752.6,292c0-0.5-0.2-0.8-0.4-1.1c-0.3-0.3-0.6-0.4-1.1-0.4c-0.4,0-0.8,0.1-1.1,0.4
        s-0.5,0.6-0.5,1.1H752.6z"/>
      <path class="white" d="M757.3,290.4c0.1-0.4,0.3-0.7,0.6-0.9c0.3-0.2,0.6-0.3,1-0.3s0.7,0.1,0.9,0.3c0.2,0.2,0.3,0.5,0.3,0.8
        c0,0.2,0,0.3-0.1,0.5c-0.1,0.1-0.1,0.2-0.2,0.3c-0.1,0.1-0.1,0.1-0.2,0.2c-0.1,0-0.1,0-0.1,0c-0.1-0.1-0.2-0.2-0.4-0.2
        c-0.1-0.1-0.3-0.1-0.5-0.1c-0.5,0-0.8,0.2-1,0.6s-0.3,0.9-0.3,1.5v1.9c0,0.3-0.1,0.6-0.2,0.7c-0.2,0.1-0.4,0.2-0.6,0.2h-0.2
        c-0.3,0-0.5-0.1-0.6-0.2c-0.2-0.1-0.2-0.4-0.2-0.7v-5.5c0,0,0.1-0.1,0.2-0.1c0.1-0.1,0.3-0.1,0.5-0.1c0.1,0,0.3,0,0.4,0
        c0.1,0,0.2,0.1,0.3,0.2s0.2,0.2,0.3,0.3C757.2,289.9,757.3,290.1,757.3,290.4"/>
      <path class="white" d="M765.1,297.5c0,0.3-0.1,0.6-0.2,0.7c-0.2,0.1-0.4,0.2-0.6,0.2h-0.2c-0.3,0-0.5-0.1-0.6-0.2
        c-0.2-0.1-0.2-0.4-0.2-0.7v-8.1c0,0,0.1-0.1,0.2-0.1c0.1-0.1,0.3-0.1,0.5-0.1c0.1,0,0.3,0,0.4,0c0.1,0,0.2,0.1,0.3,0.2
        s0.2,0.2,0.3,0.3c0.1,0.1,0.1,0.3,0.2,0.6c0.2-0.4,0.5-0.7,0.9-0.9c0.4-0.2,0.8-0.3,1.3-0.3c0.4,0,0.9,0.1,1.2,0.2
        c0.4,0.2,0.7,0.4,1,0.7c0.3,0.3,0.5,0.7,0.6,1.1s0.2,0.9,0.2,1.4s-0.1,1-0.2,1.4c-0.1,0.4-0.4,0.8-0.6,1.1
        c-0.3,0.3-0.6,0.5-1,0.7s-0.8,0.3-1.2,0.3c-0.5,0-0.9-0.1-1.3-0.3c-0.4-0.2-0.6-0.5-0.8-0.8v2.6L765.1,297.5L765.1,297.5z
         M765.1,292.9c0,0.2,0,0.4,0.1,0.6s0.2,0.4,0.3,0.5s0.3,0.2,0.5,0.3c0.2,0.1,0.4,0.1,0.6,0.1c0.5,0,0.9-0.2,1.2-0.5
        c0.3-0.4,0.5-0.8,0.5-1.4s-0.2-1-0.5-1.4s-0.7-0.5-1.2-0.5c-0.4,0-0.7,0.1-1,0.3c-0.3,0.2-0.5,0.4-0.6,0.8v1.2H765.1z"/>
      <path class="white" d="M774.4,296c-0.5,0-1-0.1-1.4-0.2c-0.4-0.2-0.8-0.4-1.1-0.7c-0.3-0.3-0.5-0.7-0.7-1.1s-0.3-0.9-0.3-1.4
        s0.1-1,0.3-1.4s0.4-0.8,0.7-1.1c0.3-0.3,0.7-0.5,1.1-0.7c0.4-0.2,0.9-0.3,1.4-0.3s1,0.1,1.4,0.3c0.4,0.2,0.8,0.4,1.1,0.7
        c0.3,0.3,0.5,0.7,0.7,1.1s0.3,0.9,0.3,1.4s-0.1,1-0.3,1.4s-0.4,0.8-0.7,1.1c-0.3,0.3-0.7,0.5-1.1,0.7
        C775.4,295.9,775,296,774.4,296 M774.4,294.5c0.3,0,0.5,0,0.7-0.1s0.4-0.2,0.6-0.4c0.2-0.2,0.3-0.4,0.4-0.6
        c0.1-0.2,0.1-0.5,0.1-0.8s0-0.5-0.1-0.8c-0.1-0.2-0.2-0.4-0.4-0.6s-0.4-0.3-0.6-0.4c-0.2-0.1-0.5-0.1-0.7-0.1
        c-0.3,0-0.5,0-0.7,0.1s-0.4,0.2-0.6,0.4c-0.2,0.2-0.3,0.4-0.4,0.6c-0.1,0.2-0.1,0.5-0.1,0.8s0,0.5,0.1,0.8
        c0.1,0.2,0.2,0.4,0.4,0.6s0.4,0.3,0.6,0.4C773.9,294.5,774.2,294.5,774.4,294.5"/>
      <path class="white" d="M781.1,295.9c-0.2,0-0.4,0-0.6-0.1c-0.2-0.1-0.3-0.2-0.4-0.4l-1.7-5.6c0,0,0-0.1,0.1-0.1
        c0.1-0.1,0.2-0.1,0.3-0.2s0.2-0.1,0.4-0.2c0.1,0,0.3-0.1,0.4-0.1c0.2,0,0.4,0.1,0.5,0.2c0.2,0.1,0.3,0.3,0.4,0.6l0.8,3.9l1-3.4
        c0.1-0.2,0.2-0.4,0.4-0.5s0.4-0.2,0.7-0.2c0.6,0,0.9,0.2,1,0.6l1,3.3l0.8-3.8c0.1-0.3,0.2-0.5,0.3-0.6c0.2-0.1,0.3-0.2,0.5-0.2
        c0.1,0,0.3,0,0.4,0.1c0.1,0,0.3,0.1,0.4,0.2c0.1,0.1,0.2,0.1,0.3,0.2s0.1,0.1,0.1,0.1l-1.7,5.6c-0.1,0.2-0.2,0.4-0.4,0.4
        c-0.2,0.1-0.4,0.1-0.6,0.1c-0.3,0-0.6,0-0.7-0.1c-0.2-0.1-0.3-0.2-0.4-0.5l-1.1-3.3l-1.1,3.3c-0.1,0.3-0.2,0.4-0.3,0.5
        C781.7,295.9,781.4,295.9,781.1,295.9"/>
      <path class="white" d="M790.9,294.2c0.3,0.3,0.8,0.4,1.3,0.4s0.9-0.1,1.2-0.3c0.3-0.2,0.5-0.4,0.7-0.7c0,0,0,0,0.1,0
        s0.2,0.1,0.3,0.1c0.1,0.1,0.2,0.1,0.3,0.3c0.1,0.1,0.1,0.3,0.1,0.5s-0.1,0.3-0.2,0.5c-0.1,0.2-0.3,0.3-0.5,0.5
        c-0.2,0.1-0.5,0.3-0.9,0.3c-0.4,0.1-0.8,0.1-1.2,0.1c-0.5,0-1-0.1-1.4-0.2c-0.4-0.2-0.8-0.4-1.1-0.7c-0.3-0.3-0.5-0.6-0.7-1.1
        c-0.2-0.4-0.3-0.9-0.3-1.4s0.1-1,0.3-1.4s0.4-0.8,0.7-1.1c0.3-0.3,0.7-0.5,1.1-0.7c0.4-0.2,0.9-0.3,1.4-0.3s0.9,0.1,1.3,0.2
        c0.4,0.2,0.7,0.4,1,0.7c0.3,0.3,0.5,0.6,0.7,1s0.2,0.8,0.2,1.3v0.1c0,0.2,0,0.3-0.1,0.4s-0.2,0.1-0.4,0.1h-4.5
        C790.4,293.6,790.6,293.9,790.9,294.2 M793.5,292c0-0.5-0.2-0.8-0.4-1.1c-0.3-0.3-0.6-0.4-1.1-0.4c-0.4,0-0.8,0.1-1.1,0.4
        s-0.5,0.6-0.5,1.1H793.5z"/>
      <path class="white" d="M798.1,290.4c0.1-0.4,0.3-0.7,0.6-0.9c0.3-0.2,0.6-0.3,1-0.3s0.7,0.1,0.9,0.3c0.2,0.2,0.3,0.5,0.3,0.8
        c0,0.2,0,0.3-0.1,0.5c-0.1,0.1-0.1,0.2-0.2,0.3c-0.1,0.1-0.1,0.1-0.2,0.2c-0.1,0-0.1,0-0.1,0c-0.1-0.1-0.2-0.2-0.4-0.2
        c-0.1-0.1-0.3-0.1-0.5-0.1c-0.5,0-0.8,0.2-1,0.6s-0.3,0.9-0.3,1.5v1.9c0,0.3-0.1,0.6-0.2,0.7c-0.2,0.1-0.4,0.2-0.6,0.2h-0.2
        c-0.3,0-0.5-0.1-0.6-0.2c-0.2-0.1-0.2-0.4-0.2-0.7v-5.5c0,0,0.1-0.1,0.2-0.1c0.1-0.1,0.3-0.1,0.5-0.1c0.1,0,0.2,0,0.4,0
        c0.1,0,0.2,0.1,0.3,0.2s0.2,0.2,0.3,0.3C798,289.9,798.1,290.1,798.1,290.4"/>
      <path class="white" d="M807.2,296c-0.5,0-1-0.1-1.4-0.3c-0.4-0.2-0.8-0.4-1.1-0.7c-0.3-0.3-0.5-0.7-0.7-1.1s-0.3-0.9-0.3-1.4
        s0.1-1,0.3-1.4s0.4-0.8,0.7-1.1c0.3-0.3,0.7-0.5,1.1-0.7c0.4-0.2,0.9-0.3,1.4-0.3s0.9,0.1,1.3,0.2c0.4,0.1,0.6,0.3,0.9,0.5
        c0.2,0.2,0.4,0.4,0.5,0.6s0.2,0.4,0.2,0.5c0,0.2-0.1,0.3-0.2,0.5c-0.1,0.1-0.2,0.2-0.3,0.3c-0.1,0.1-0.2,0.1-0.4,0.1
        c-0.1,0-0.2,0-0.2,0c-0.1-0.3-0.3-0.6-0.6-0.8c-0.3-0.2-0.6-0.3-1.1-0.3c-0.3,0-0.5,0-0.7,0.1s-0.4,0.2-0.6,0.4
        c-0.2,0.2-0.3,0.4-0.4,0.6c-0.1,0.2-0.1,0.5-0.1,0.8s0,0.5,0.1,0.8c0.1,0.2,0.2,0.4,0.4,0.6s0.3,0.3,0.6,0.4
        c0.2,0.1,0.5,0.1,0.7,0.1c0.5,0,0.8-0.1,1.1-0.3c0.3-0.2,0.5-0.5,0.6-0.8c0,0,0.1,0,0.2,0c0.1,0,0.2,0,0.4,0.1
        c0.1,0.1,0.2,0.2,0.4,0.3c0.1,0.1,0.2,0.3,0.2,0.5s-0.1,0.3-0.2,0.5c-0.1,0.2-0.3,0.4-0.5,0.6s-0.5,0.3-0.9,0.5
        C808.1,295.9,807.6,296,807.2,296"/>
      <path class="white" d="M814.1,296c-0.5,0-1-0.1-1.4-0.2c-0.4-0.2-0.8-0.4-1.1-0.7c-0.3-0.3-0.5-0.7-0.7-1.1s-0.3-0.9-0.3-1.4
        s0.1-1,0.3-1.4s0.4-0.8,0.7-1.1c0.3-0.3,0.7-0.5,1.1-0.7c0.4-0.2,0.9-0.3,1.4-0.3s1,0.1,1.4,0.3c0.4,0.2,0.8,0.4,1.1,0.7
        c0.3,0.3,0.5,0.7,0.7,1.1s0.3,0.9,0.3,1.4s-0.1,1-0.3,1.4s-0.4,0.8-0.7,1.1c-0.3,0.3-0.7,0.5-1.1,0.7
        C815.1,295.9,814.6,296,814.1,296 M814.1,294.5c0.3,0,0.5,0,0.7-0.1s0.4-0.2,0.6-0.4c0.2-0.2,0.3-0.4,0.4-0.6
        c0.1-0.2,0.1-0.5,0.1-0.8s0-0.5-0.1-0.8c-0.1-0.2-0.2-0.4-0.4-0.6s-0.4-0.3-0.6-0.4c-0.2-0.1-0.5-0.1-0.7-0.1
        c-0.3,0-0.5,0-0.7,0.1s-0.4,0.2-0.6,0.4c-0.2,0.2-0.3,0.4-0.4,0.6c-0.1,0.2-0.1,0.5-0.1,0.8s0,0.5,0.1,0.8
        c0.1,0.2,0.2,0.4,0.4,0.6s0.4,0.3,0.6,0.4C813.6,294.5,813.8,294.5,814.1,294.5"/>
      <path class="white" d="M820.5,290.3c0.2-0.3,0.5-0.6,0.8-0.8c0.3-0.2,0.7-0.3,1.2-0.3s1,0.1,1.3,0.4c0.3,0.2,0.6,0.6,0.7,1
        c0.2-0.4,0.5-0.7,0.9-0.9c0.4-0.3,0.8-0.4,1.3-0.4c0.4,0,0.8,0.1,1.1,0.2s0.5,0.3,0.7,0.5s0.3,0.5,0.4,0.8
        c0.1,0.3,0.1,0.7,0.1,1.1v3.2c0,0.3-0.1,0.6-0.2,0.7c-0.2,0.1-0.4,0.2-0.6,0.2H828c-0.3,0-0.5-0.1-0.6-0.2
        c-0.2-0.1-0.2-0.4-0.2-0.7v-2.9c0-0.9-0.4-1.3-1.1-1.3c-0.3,0-0.5,0.1-0.8,0.2c-0.2,0.2-0.4,0.3-0.5,0.6v3.4
        c0,0.3-0.1,0.6-0.2,0.7c-0.2,0.1-0.4,0.2-0.6,0.2h-0.2c-0.2,0-0.5-0.1-0.6-0.2c-0.2-0.1-0.2-0.4-0.2-0.7v-2.9
        c0-0.9-0.4-1.4-1.1-1.4c-0.3,0-0.5,0.1-0.8,0.2c-0.2,0.2-0.4,0.3-0.5,0.6v3.4c0,0.3-0.1,0.6-0.2,0.7c-0.2,0.1-0.4,0.2-0.6,0.2
        h-0.2c-0.3,0-0.5-0.1-0.6-0.2c-0.2-0.1-0.2-0.4-0.2-0.7v-5.5c0,0,0.1-0.1,0.2-0.1c0.1-0.1,0.3-0.1,0.5-0.1c0.1,0,0.2,0,0.4,0
        c0.1,0,0.2,0.1,0.3,0.2s0.2,0.2,0.3,0.3C820.4,289.9,820.4,290.1,820.5,290.3"/>
      <path class="white" d="M832.3,297.5c0,0.3-0.1,0.6-0.2,0.7c-0.2,0.1-0.4,0.2-0.6,0.2h-0.2c-0.3,0-0.5-0.1-0.6-0.2
        c-0.2-0.1-0.2-0.4-0.2-0.7v-8.1c0,0,0.1-0.1,0.2-0.1c0.1-0.1,0.3-0.1,0.5-0.1c0.1,0,0.2,0,0.4,0c0.1,0,0.2,0.1,0.3,0.2
        s0.2,0.2,0.3,0.3c0.1,0.1,0.1,0.3,0.2,0.6c0.2-0.4,0.5-0.7,0.9-0.9c0.4-0.2,0.8-0.3,1.3-0.3c0.4,0,0.9,0.1,1.2,0.2
        c0.4,0.2,0.7,0.4,1,0.7c0.3,0.3,0.5,0.7,0.6,1.1s0.2,0.9,0.2,1.4s-0.1,1-0.2,1.4c-0.1,0.4-0.4,0.8-0.6,1.1
        c-0.3,0.3-0.6,0.5-1,0.7s-0.8,0.3-1.2,0.3c-0.5,0-0.9-0.1-1.3-0.3c-0.4-0.2-0.6-0.5-0.8-0.8v2.6L832.3,297.5L832.3,297.5z
         M832.3,292.9c0,0.2,0,0.4,0.1,0.6s0.2,0.4,0.3,0.5s0.3,0.2,0.5,0.3c0.2,0.1,0.4,0.1,0.6,0.1c0.5,0,0.9-0.2,1.2-0.5
        c0.3-0.4,0.5-0.8,0.5-1.4s-0.2-1-0.5-1.4s-0.7-0.5-1.2-0.5c-0.4,0-0.7,0.1-1,0.3c-0.3,0.2-0.5,0.4-0.6,0.8v1.2H832.3z"/>
      <path class="white" d="M841.3,290.6c-0.5,0-0.8,0.1-1.1,0.3c-0.2,0.2-0.4,0.4-0.6,0.7c0,0-0.1,0-0.2,0c-0.1,0-0.3,0-0.4-0.1
        c-0.2,0-0.3-0.1-0.4-0.2c-0.1-0.1-0.2-0.3-0.2-0.5s0.1-0.4,0.2-0.6c0.1-0.2,0.3-0.4,0.5-0.5s0.6-0.3,0.9-0.4
        c0.4-0.1,0.8-0.1,1.3-0.1c1,0,1.8,0.2,2.3,0.7s0.8,1.1,0.8,2v3.9c0,0-0.1,0.1-0.2,0.1c-0.1,0-0.3,0.1-0.5,0.1
        c-0.3,0-0.5-0.1-0.7-0.2c-0.2-0.2-0.3-0.4-0.4-0.8c-0.2,0.3-0.5,0.6-0.9,0.8c-0.4,0.2-0.8,0.3-1.3,0.3c-0.7,0-1.2-0.2-1.6-0.5
        c-0.4-0.3-0.6-0.8-0.6-1.4c0-0.8,0.3-1.3,1-1.7c0.7-0.4,1.7-0.5,3.2-0.6h0.2C842.6,291,842.2,290.6,841.3,290.6 M841,294.7
        c0.5,0,0.9-0.1,1.1-0.4c0.3-0.3,0.4-0.6,0.4-1.1v-0.4h-0.3c-0.7,0-1.3,0.1-1.7,0.3c-0.4,0.2-0.6,0.4-0.6,0.8
        c0,0.2,0.1,0.4,0.3,0.6C840.5,294.7,840.7,294.7,841,294.7"/>
      <path class="white" d="M847.7,290.3c0.2-0.3,0.5-0.6,0.9-0.8c0.3-0.2,0.8-0.3,1.3-0.3c0.4,0,0.8,0.1,1.1,0.2s0.6,0.3,0.8,0.6
        c0.2,0.2,0.3,0.5,0.4,0.9c0.1,0.3,0.1,0.7,0.1,1.1v3.1c0,0.3-0.1,0.6-0.2,0.7c-0.2,0.1-0.4,0.2-0.6,0.2h-0.2
        c-0.3,0-0.5-0.1-0.6-0.2c-0.2-0.1-0.2-0.4-0.2-0.7v-2.8c0-0.4-0.1-0.8-0.3-1s-0.5-0.4-0.9-0.4c-0.3,0-0.6,0.1-0.9,0.2
        c-0.2,0.2-0.4,0.4-0.6,0.6v3.4c0,0.3-0.1,0.6-0.2,0.7c-0.2,0.1-0.4,0.2-0.6,0.2h-0.2c-0.3,0-0.5-0.1-0.6-0.2
        c-0.2-0.1-0.2-0.4-0.2-0.7v-5.5c0,0,0.1-0.1,0.2-0.1c0.1-0.1,0.3-0.1,0.5-0.1c0.1,0,0.2,0,0.4,0c0.1,0,0.2,0.1,0.3,0.2
        s0.2,0.2,0.3,0.3C847.6,289.9,847.6,290.1,847.7,290.3"/>
      <path class="white" d="M855.7,298.4c-0.1,0-0.3,0-0.4-0.1c-0.1,0-0.2-0.1-0.3-0.2s-0.2-0.1-0.2-0.2s-0.1-0.1-0.1-0.1l1.1-2.5
        c-0.2,0-0.3-0.1-0.4-0.1c-0.1-0.1-0.2-0.2-0.2-0.3l-2.2-5.2c0,0,0-0.1,0.1-0.1c0.1-0.1,0.1-0.1,0.2-0.2c0.1-0.1,0.2-0.1,0.3-0.2
        c0.1,0,0.3-0.1,0.4-0.1c0.2,0,0.4,0.1,0.6,0.2c0.2,0.1,0.3,0.4,0.5,0.7l1.4,3.7l1.3-3.7c0.1-0.4,0.3-0.6,0.5-0.8
        c0.2-0.1,0.4-0.2,0.6-0.2c0.1,0,0.3,0,0.4,0.1c0.1,0,0.2,0.1,0.3,0.2s0.2,0.1,0.2,0.2c0.1,0.1,0.1,0.1,0.1,0.1l-3,7.7
        c-0.1,0.4-0.3,0.6-0.5,0.7C856.1,298.3,855.9,298.4,855.7,298.4"/>
      <path class="white" d="M749.1,283.4c-0.9,0-1.6-0.2-2.1-0.5c-0.6-0.3-1-0.9-1.2-1.8c0,0-3.3-10.3-3.5-11c-0.1-0.5-0.1-0.9,0.1-1.2
        c0.1-0.2,0.3-0.4,0.6-0.7c0.3-0.2,0.7-0.5,1.2-0.6c0.5-0.2,1.1-0.3,1.7-0.3c0.3,0,0.6,0,0.9,0.1c0.3,0.1,0.6,0.2,1,0.5
        c0.3,0.2,0.6,0.5,0.8,1c0.2,0.4,0.4,0.9,0.5,1.6l0.8,4.7l1.3-5.2c0.1-0.8,0.5-1.4,1.1-1.8s1.2-0.6,1.9-0.6c0.3,0,0.6,0.1,1,0.2
        c0.3,0.1,0.6,0.2,0.9,0.4c0.3,0.2,0.5,0.4,0.7,0.7c0.2,0.3,0.3,0.6,0.4,1l1.3,5.2l0.7-4.8c0.1-0.6,0.3-1.1,0.5-1.4
        c0.2-0.4,0.5-0.7,0.8-0.9c0.3-0.2,0.6-0.4,1-0.5c0.3-0.1,0.7-0.2,1-0.2c0.6,0,1.1,0.1,1.6,0.3c0.5,0.2,0.8,0.4,1.1,0.6
        s0.5,0.5,0.6,0.7s0.3,0.5,0.1,1.1l-3.5,11c-0.2,0.9-0.6,1.4-1.2,1.8c-0.6,0.3-1.3,0.5-2.2,0.5s-1.6-0.2-2.2-0.5
        c-0.6-0.3-1-0.9-1.3-1.8l-1.3-4.9L753,281c-0.2,0.9-0.7,1.4-1.3,1.8C750.7,283.3,750,283.4,749.1,283.4"/>
      <path class="white" d="M717.6,275.1c0.5,0,0.9-0.1,1.2-0.4s0.4-0.7,0.4-1.2c0-1.1-0.6-1.6-1.8-1.6h-1.2v3.3L717.6,275.1
        L717.6,275.1z M716.5,280.6c0,0.9-0.2,1.6-0.7,2.1c-0.4,0.5-1.1,0.7-2,0.7H713c-0.8,0-1.4-0.2-1.9-0.7c-0.4-0.5-0.7-1.2-0.7-2.1
        v-9.9c0-2.2,1-3.3,3-3.3h4.2c2.4,0,4.3,0.5,5.5,1.5c1.3,1,1.9,2.5,1.9,4.6c0,2-0.6,3.5-1.8,4.5s-3,1.5-5.3,1.5h-1.5L716.5,280.6
        L716.5,280.6z"/>
      <path class="white" d="M769.2,283.3c-2,0-3-1.1-3-3.3v-9.3c0-2.2,1-3.3,3-3.3h8.1c1,0,1.7,0.2,2.1,0.6c0.4,0.4,0.7,0.9,0.7,1.7v0.1
        c0,0.8-0.2,1.4-0.7,1.8c-0.4,0.3-1.1,0.5-2.1,0.5h-5.1v1.1h3c1,0,1.7,0.2,2.1,0.5c0.4,0.3,0.6,0.8,0.6,1.6v0.1
        c0,0.8-0.2,1.4-0.7,1.7c-0.4,0.3-1.1,0.5-2.1,0.5h-3v1.3h5.2c1,0,1.7,0.2,2.1,0.5c0.4,0.3,0.7,0.9,0.7,1.6v0.1
        c0,0.8-0.2,1.4-0.7,1.8c-0.4,0.4-1.1,0.6-2.1,0.6h-8.1V283.3z"/>
      <path class="white" d="M788.3,274.8c1.1,0,1.7-0.5,1.7-1.4c0-0.5-0.1-0.8-0.4-1.1c-0.3-0.2-0.7-0.4-1.3-0.4h-1.5v2.9H788.3z
         M795.7,280.8c0.3,0.4,0.5,1,0.2,1.4c-0.1,0.2-0.3,0.3-0.3,0.4c-0.3,0.2-0.6,0.4-1.1,0.6s-1,0.3-1.6,0.3c-0.5,0-0.9,0-1.3-0.1
        c-0.4-0.1-0.7-0.3-1-0.5s-0.6-0.5-0.9-0.8c-0.3-0.3-0.6-0.7-0.9-1.2l-1.5-2.2H787v2c0,1.9-0.9,2.8-2.6,2.8h-0.9
        c-0.8,0-1.5-0.3-1.9-0.9s-0.6-1.5-0.6-2.6v-9.1c0-2.2,1-3.3,3-3.3h5.1c2.3,0,4.1,0.5,5.2,1.4c1.1,0.9,1.7,2.3,1.7,4
        c0,1.1-0.2,2-0.7,2.8s-1.2,1.4-2.2,1.8L795.7,280.8z"/>
      <path class="white" d="M803,283.7c-1.3,0-2.3-0.1-3.1-0.3c-0.8-0.2-1.5-0.4-2-0.7c-0.5-0.3-0.8-0.7-1.1-1.1
        c-0.2-0.4-0.3-0.8-0.3-1.3c0-0.3,0.1-0.7,0.2-1c0.2-0.3,0.4-0.6,0.6-0.9c0.2-0.3,0.6-0.4,0.8-0.5c0.4-0.1,0.8,0,1.2,0.2
        s0.8,0.3,1.2,0.5c0.4,0.1,0.9,0.3,1.3,0.4c0.4,0.1,0.8,0.1,1.2,0.1c0.6,0,1,0,1.3-0.1c0.2-0.1,0.4-0.3,0.4-0.5
        c0-0.1-0.1-0.3-0.2-0.4c-0.1-0.1-0.3-0.2-0.5-0.2c-0.2-0.1-0.5-0.1-0.7-0.2c-0.3,0-0.6-0.1-0.9-0.2c-0.7-0.1-1.4-0.3-2-0.5
        c-0.7-0.2-1.2-0.5-1.8-0.9c-0.5-0.4-0.9-0.9-1.2-1.4c-0.3-0.6-0.5-1.3-0.5-2.1c0-1.8,0.6-3.1,1.8-4.1s3-1.4,5.4-1.4
        c1.1,0,2.1,0.1,2.9,0.2c0.8,0.2,1.4,0.4,1.9,0.7c0.5,0.3,0.9,0.6,1.1,1c0.2,0.4,0.3,0.8,0.3,1.2c0,0.4-0.1,0.7-0.3,1.1
        s-0.3,0.6-0.6,1c-0.2,0.3-0.5,0.4-0.8,0.5c-0.6,0.1-1.6-0.5-2.3-0.8c-0.8-0.3-1.5-0.4-2.2-0.4c-0.6,0-1,0.1-1.3,0.2
        c-0.2,0.1-0.3,0.3-0.3,0.5c0,0.1,0.1,0.2,0.2,0.3c0.1,0.1,0.3,0.2,0.5,0.2s0.5,0.1,0.8,0.1s0.6,0.1,1,0.2
        c0.8,0.2,1.6,0.4,2.3,0.7c0.7,0.3,1.3,0.6,1.8,1s0.9,0.9,1.1,1.4c0.3,0.5,0.4,1.1,0.4,1.9c0,1.9-0.6,3.3-1.9,4.2
        C807.6,283.2,805.6,283.7,803,283.7"/>
      <path class="white" d="M813.9,283.4c-1.7,0-2.5-0.9-2.5-2.8V270c0-1.9,0.8-2.8,2.5-2.8h0.9c1.8,0,2.6,0.9,2.6,2.8v2.8h3.6V270
        c0-1.9,0.8-2.8,2.5-2.8h0.9c1.8,0,2.6,0.9,2.6,2.8v10.6c0,1.9-0.9,2.8-2.6,2.8h-0.9c-1.7,0-2.5-0.9-2.5-2.8v-2.8h-3.6v2.8
        c0,1.9-0.9,2.8-2.6,2.8H813.9z"/>
      <path class="white" d="M836.3,283.7c-1.2,0-2.4-0.2-3.4-0.6s-1.9-1-2.7-1.7s-1.3-1.6-1.8-2.6c-0.4-1-0.6-2.1-0.6-3.3
        c0-1.2,0.2-2.3,0.6-3.3c0.4-1,1-1.9,1.8-2.6s1.7-1.3,2.7-1.7c1-0.4,2.2-0.6,3.4-0.6s2.4,0.2,3.4,0.6s2,1,2.7,1.7
        c0.8,0.7,1.3,1.6,1.8,2.6c0.4,1,0.6,2.1,0.6,3.3c0,1.2-0.2,2.3-0.6,3.3c-0.4,1-1,1.9-1.8,2.6s-1.7,1.3-2.7,1.7
        C838.7,283.5,837.5,283.7,836.3,283.7 M836.3,278.3c0.8,0,1.5-0.3,1.9-0.8c0.5-0.5,0.7-1.2,0.7-2.2c0-0.9-0.2-1.6-0.7-2.2
        c-0.5-0.5-1.1-0.8-1.9-0.8c-0.8,0-1.5,0.3-2,0.8s-0.7,1.2-0.7,2.2c0,0.9,0.2,1.6,0.7,2.2C834.8,278,835.5,278.3,836.3,278.3"/>
      <path class="white" d="M852.8,275.1c0.5,0,0.9-0.1,1.2-0.4s0.4-0.7,0.4-1.2c0-1.1-0.6-1.6-1.8-1.6h-1.2v3.3L852.8,275.1
        L852.8,275.1z M851.6,280.6c0,0.9-0.2,1.6-0.7,2.1c-0.4,0.5-1.1,0.7-2,0.7H848c-0.8,0-1.4-0.2-1.9-0.7c-0.4-0.5-0.7-1.2-0.7-2.1
        v-9.9c0-2.2,1-3.3,3-3.3h4.2c2.4,0,4.3,0.5,5.5,1.5c1.3,1,1.9,2.5,1.9,4.6c0,2-0.6,3.5-1.8,4.5s-3,1.5-5.3,1.5h-1.5v1.1
        L851.6,280.6L851.6,280.6z"/>
      <path class="white" d="M734.2,278.3c0.8,0,1.5-0.3,1.9-0.8c0.5-0.5,0.7-1.2,0.7-2.2c0-0.9-0.2-1.6-0.7-2.2
        c-0.5-0.5-1.1-0.8-1.9-0.8c-0.8,0-1.5,0.3-2,0.8s-0.7,1.2-0.7,2.2c0,0.9,0.2,1.6,0.7,2.2C732.7,278,733.4,278.3,734.2,278.3
         M734.2,283.7c-1.2,0-2.4-0.2-3.4-0.6c-1.1-0.4-1.9-1-2.7-1.7s-1.3-1.6-1.8-2.6c-0.4-1-0.6-2.1-0.6-3.3c0-1.2,0.2-2.3,0.6-3.3
        c0.4-1,1-1.9,1.8-2.6s1.7-1.3,2.7-1.7c1-0.4,2.2-0.6,3.4-0.6s2.4,0.2,3.4,0.6c1.1,0.4,2,1,2.7,1.7c0.8,0.7,1.3,1.6,1.8,2.6
        c0.4,1,0.6,2.1,0.6,3.3c0,1.2-0.2,2.3-0.6,3.3c-0.4,1-1,1.9-1.8,2.6s-1.7,1.3-2.7,1.7C736.6,283.5,735.4,283.7,734.2,283.7"/>
    </g>
  </g>
</g>
<g id="winky">
  <path class="st13" d="M697.3,279.9c0.3-0.3,0.2-0.7,0-1l-5.5-5.1c-0.3-0.3-0.7-0.2-1,0l-1.2,1.3c-0.3,0.3-0.2,0.7,0,1l5.5,5.1   c0.3,0.3,0.7,0.2,1,0L697.3,279.9z M679.8,286.1c0.5-0.4,1.3-0.5,1.9,0.2c1.4,1.7,3.5,2.8,5.8,2.8c2.3,0,4.4-1.1,5.8-2.7   c0.6-0.7,1.4-0.6,1.9-0.2c0.5,0.4,1,0.8,0.2,1.9c-1.8,2.3-4.7,3.7-7.9,3.7c-3.2,0-6.1-1.4-7.9-3.8   C678.8,286.9,679.3,286.6,679.8,286.1 M677.8,279.9c-0.3-0.3-0.2-0.7,0-1l5.5-5.1c0.3-0.3,0.7-0.2,1,0l1.2,1.3c0.3,0.3,0.2,0.7,0,1   l-5.5,5.1c-0.3,0.3-0.7,0.2-1,0L677.8,279.9z M673.4,281.6c0,7.8,6.4,14.2,14.2,14.2c7.8,0,14.2-6.4,14.2-14.2   c0-7.8-6.3-14.2-14.2-14.2C679.7,267.5,673.4,273.8,673.4,281.6 M703.3,281.6c0,8.7-7,15.7-15.7,15.7c-8.7,0-15.7-7-15.7-15.7   c0-8.7,7-15.7,15.7-15.7C696.2,265.9,703.3,273,703.3,281.6 M670,281.6c0-9.7,7.9-17.5,17.5-17.5c9.7,0,17.5,7.9,17.5,17.5   c0,9.7-7.9,17.5-17.5,17.5C677.9,299.2,670,291.3,670,281.6"/>
</g>
<g id="windwheel-1">
  <g>
    <path class="st7" d="M366.2,64.5l-0.5,16.3l-1,32.2c-0.1,3.7,2.8,6.8,6.5,7l32.2,1l17,0.5L366.2,64.5z"/>
    <path class="st8" d="M415.6,116.5l5,5.3l-17-0.5l-32.2-1c-3.7-0.1-6.7-3.2-6.5-7l0.5-17.1C368.2,98.3,409.3,115.8,415.6,116.5z"/>
    <path class="st7" d="M481.1,184.5l0.5-15.4l1-32.2c0.1-3.7-2.8-6.8-6.5-7l-32.2-1l-17-0.5L481.1,184.5z"/>
    <path class="st7" d="M363,181.5l17.6,0.5l32.2,1c3.7,0.1,6.8-2.8,7-6.5l1-32.2l0.5-17L363,181.5z"/>
    <path class="st8" d="M415.9,132.3l5.3-5l-0.5,17l-1,32.2c-0.1,3.7-3.2,6.7-7,6.5l-17.1-0.5C397.8,179.7,415.3,138.6,415.9,132.3z"
      />
    <path class="st8" d="M431.9,133.7l-5-5.3l17,0.5l32.2,1c3.7,0.1,6.7,3.2,6.5,7l-0.5,17.1C479.3,151.8,438.2,134.3,431.9,133.7z"/>
    <path class="st9" d="M429.8,68.7c0,0-27.2,26.5-31.3,29.4c-4.1,3,28.5,30.3,28.5,30.3L429.8,68.7z"/>
    <path class="st7" d="M482.7,68.4l-15.8-0.5l-32.2-1c-3.7-0.1-6.8,2.8-7,6.5l-1,32.2l-0.5,17L482.7,68.4z"/>
    <path class="st8" d="M431.4,117.6l-5.3,5l0.5-17l1-32.2c0.1-3.7,3.2-6.7,7-6.5l17.1,0.5C449.5,70.2,432,111.3,431.4,117.6z"/>
    <path class="st9" d="M480.8,132.2c0,0-27.5-29.3-30.4-32.3s-30.3,28.5-30.3,28.5L480.8,132.2z"/>
    <path class="st9" d="M417.6,181.2c0,0,26.4-24.3,31.3-29.4s-28.5-30.3-28.5-30.3L417.6,181.2z"/>
    <path class="st9" d="M366.5,117.8c0,0,26.9,28.8,30.4,32.3s30.3-28.5,30.3-28.5L366.5,117.8z"/>
    <path class="st8" d="M429.3,120c-3.1-3.3-8.3-3.4-11.5-0.4c-3.3,3.1-3.4,8.3-0.4,11.5c3.1,3.3,8.3,3.4,11.5,0.4
      C432.3,128.4,432.4,123.2,429.3,120z"/>
    <path class="st7" d="M428.2,119.7c-2.6-2.8-7.1-2.9-9.9-0.3s-3,7.1-0.3,9.9c2.6,2.8,7.1,2.9,9.9,0.3
      C430.7,126.9,430.8,122.5,428.2,119.7z"/>
  </g>
  <circle class="st2" cx="423" cy="124.5" r="3.8"/>
</g>
<g id="windwheel-2">
  <g>
    <path class="st7" d="M516.7,8.7L516.2,25l-1,32.2c-0.1,3.7,2.8,6.8,6.5,7l32.2,1l17,0.5L516.7,8.7z"/>
    <path class="st8" d="M566.1,60.7l5,5.3l-17-0.5l-32.2-1c-3.7-0.1-6.7-3.2-6.5-7l0.5-17.1C518.7,42.5,559.8,60,566.1,60.7z"/>
    <path class="st7" d="M631.6,128.7l0.5-15.4l1-32.2c0.1-3.7-2.8-6.8-6.5-7l-32.2-1l-17-0.5L631.6,128.7z"/>
    <path class="st7" d="M513.5,125.7l17.6,0.5l32.2,1c3.7,0.1,6.8-2.8,7-6.5l1-32.2l0.5-17L513.5,125.7z"/>
    <path class="st8" d="M566.4,76.5l5.3-5l-0.5,17l-1,32.2c-0.1,3.7-3.2,6.7-7,6.5l-17.1-0.5C548.3,123.9,565.8,82.8,566.4,76.5z"/>
    <path class="st8" d="M582.4,77.9l-5-5.3l17,0.5l32.2,1c3.7,0.1,6.7,3.2,6.5,7l-0.5,17.1C629.8,96,588.7,78.5,582.4,77.9z"/>
    <path class="st9" d="M580.3,12.9c0,0-27.2,26.5-31.3,29.4c-4.1,3,28.5,30.3,28.5,30.3L580.3,12.9z"/>
    <path class="st7" d="M633.2,12.6l-15.8-0.5l-32.2-1c-3.7-0.1-6.8,2.8-7,6.5l-1,32.2l-0.5,17L633.2,12.6z"/>
    <path class="st8" d="M581.9,61.8l-5.3,5l0.5-17l1-32.2c0.1-3.7,3.2-6.7,7-6.5l17.1,0.5C600,14.4,582.5,55.5,581.9,61.8z"/>
    <path class="st9" d="M631.3,76.4c0,0-27.5-29.3-30.4-32.3c-2.9-3-30.3,28.5-30.3,28.5L631.3,76.4z"/>
    <path class="st9" d="M568.1,125.4c0,0,26.4-24.3,31.3-29.4c4.9-5.1-28.5-30.3-28.5-30.3L568.1,125.4z"/>
    <path class="st9" d="M517,62c0,0,26.9,28.8,30.4,32.3s30.3-28.5,30.3-28.5L517,62z"/>
    <path class="st8" d="M579.8,64.2c-3.1-3.3-8.3-3.4-11.5-0.4c-3.3,3.1-3.4,8.3-0.4,11.5c3.1,3.3,8.3,3.4,11.5,0.4
      C582.8,72.6,582.9,67.4,579.8,64.2z"/>
    <path class="st7" d="M578.7,63.9c-2.6-2.8-7.1-2.9-9.9-0.3s-3,7.1-0.3,9.9c2.6,2.8,7.1,2.9,9.9,0.3
      C581.2,71.1,581.3,66.7,578.7,63.9z"/>
  </g>
  <circle class="st2" cx="573.5" cy="68.7" r="3.8"/>
</g>
<g id="heading">
  <g>
    <path class="st7" d="M43.4,64.9c0,1.9-1,3.1-2.9,3.1h-1c-1.8,0-2.8-1.1-2.8-3.1V42c0-2.4,1.3-3.7,3.5-3.7h7.7
      c7.9,0,12.2,3.5,12.2,10c0,6.6-4.2,10-12.2,10h-4.5V64.9z M47.8,53.1c3.7,0,5.7-1.7,5.7-4.8s-2-4.8-5.7-4.8h-4.4v9.6H47.8z"/>
    <path class="st7" d="M62.2,56.7c0-6.9,4.9-11.7,12-11.7c7,0,11.8,4.8,11.8,11.7s-4.8,11.7-12,11.7C67,68.4,62.2,63.7,62.2,56.7z
       M80.3,56.8c0-3.9-2.6-6.7-6.2-6.7s-6.3,2.8-6.3,6.7c0,3.8,2.7,6.6,6.3,6.6C77.7,63.3,80.3,60.5,80.3,56.8z"/>
    <path class="st7" d="M93.8,66.2L88,47.1c-0.1-0.4,2.1-1.9,3.9-1.9c1.2,0,2.7,0.6,3.1,2.8l2.8,13.3l3.6-11.6
      c0.4-1.4,1.6-2.1,3.5-2.1s3,0.7,3.4,2.1l3.4,11.3l2.7-13.1c0.4-2.1,1.8-2.8,3-2.8c1.9,0,3.9,1.5,3.8,1.9l-5.7,19.1
      c-0.4,1.5-1.9,1.9-3.4,1.9c-2.3,0-3.2-0.4-3.7-2.1l-3.6-11.3l-3.7,11.3c-0.5,1.7-1.5,2.1-3.7,2.1C95.6,68.1,94.2,67.7,93.8,66.2z"
      />
    <path class="st7" d="M135.3,63.7c3.4,0,5.3-1.5,6.3-3.3c0-0.1,3.1,0.3,3.1,2.9c0,2.4-3.4,5.1-9.6,5.1c-7.3,0-12.1-4.5-12.1-11.6
      c0-6.8,4.9-11.8,11.7-11.8c6.6,0,11.1,4.6,11.1,11.2v0.5c0,1.1-0.4,1.8-1.6,1.8h-15.4C129.3,61.7,131.8,63.7,135.3,63.7z
       M139.8,54.7c-0.1-3.1-2.1-5.2-5.2-5.2c-3,0-5.3,2.1-5.7,5.2H139.8z"/>
    <path class="st7" d="M161.1,45c2.6,0,4.2,1.5,4.2,3.7c0,2.6-2,3.5-2.1,3.4c-0.7-0.6-1.7-1.1-2.9-1.1c-3.2,0-4.5,2.7-4.5,7.2v6.7
      c0,2.3-1.2,3.1-2.8,3.1h-0.7c-1.7,0-2.9-0.7-2.9-3.1V46c0-0.2,1.1-0.7,2.4-0.7c1.7,0,3.5,0.8,3.9,3.8
      C156.6,46.5,158.4,45,161.1,45z"/>
    <path class="st7" d="M166.8,63.5c0-1.6,1.8-2.8,2-2.7c1.6,1.6,4.1,3,7.4,3c2.5,0,3.9-0.7,3.9-2.1c0-1.7-1.8-2-4.8-2.6
      c-3.1-0.7-7.9-1.7-7.9-6.8c0-4.3,3.7-7.2,9.3-7.2c6,0,9,2.2,9,4.8c0,1.7-2,2.9-2.1,2.7c-1.5-1.7-3.9-3-6.5-3
      c-2.4,0-3.8,0.8-3.8,2.2c0,1.6,1.7,1.9,4.8,2.5c3.2,0.7,8.2,1.7,8.2,6.8c0,4.5-3.7,7.2-9.8,7.2C170,68.3,166.8,66,166.8,63.5z"/>
    <path class="st7" d="M203.7,45c5.9,0,8.3,4.2,8.3,9.4v10.5c0,2.3-1.2,3.1-2.8,3.1h-0.7c-1.7,0-2.9-0.7-2.9-3.1v-9.6
      c0-3.1-1.6-4.9-4.1-4.9c-3,0-4.9,2-4.9,5.2v9.3c0,2.3-1.2,3.1-2.8,3.1H193c-1.7,0-2.9-0.7-2.9-3.1V36.8c0-0.2,1.1-0.7,2.4-0.7
      c1.9,0,4,1,4,5.2V49C197.9,46.7,200.3,45,203.7,45z"/>
    <path class="st7" d="M215.5,56.7c0-6.9,4.9-11.7,12-11.7c7,0,11.8,4.8,11.8,11.7s-4.8,11.7-11.9,11.7
      C220.3,68.4,215.5,63.7,215.5,56.7z M233.6,56.8c0-3.9-2.6-6.7-6.2-6.7s-6.3,2.8-6.3,6.7c0,3.8,2.7,6.6,6.3,6.6
      C231,63.3,233.6,60.5,233.6,56.8z"/>
    <path class="st7" d="M249.4,73.6c0,2.3-1.2,3.1-2.8,3.1h-0.7c-1.7,0-2.9-0.7-2.9-3.1V46c0-0.2,1.1-0.7,2.4-0.7
      c1.7,0,3.6,0.8,3.9,3.9c1.5-2.6,3.9-4.2,7.3-4.2c6,0,10.3,4.5,10.3,11.7c0,6.9-4.3,11.7-10.4,11.7c-3.4,0-5.9-1.8-7.1-4.1
      L249.4,73.6L249.4,73.6z M249.4,57.9c0,3.2,2.5,5.3,5.6,5.3c3.5,0,5.8-2.7,5.8-6.5c0-3.9-2.3-6.6-5.7-6.6c-2.7,0-4.7,1.4-5.6,3.6
      L249.4,57.9L249.4,57.9z"/>
    <path class="st7" d="M55.8,101.7c0.8-1.4,1.3-2.9,1.9-4.8c0.9-2.3,1.8-3.1,3.3-3.1c1.9,0,2.9,1.6,2.9,1.7
      c-0.8,3.6-2.4,6.8-4.3,9.5l6,5.2c0.1,0.1-0.9,2.8-3.5,2.8c-1.1,0-2.5-0.4-3.8-1.9l-2.1-2c-2.7,2.6-5.9,4.2-10.1,4.2
      c-6.8,0-11.1-3.2-11.1-8.9c0-4.1,2.6-6.9,6.9-8.3c-1.6-1.6-2.7-3.6-2.7-5.9c0-4.5,3.7-7.7,9.2-7.7c5,0,8.4,2.9,8.4,7.1
      c0,3.3-2.4,5.8-6.5,7.1L55.8,101.7z M44.7,98.8c-2.4,1-4,2.5-4,5c0,3.1,2.4,4.9,5.8,4.9c2.4,0,4.5-1.1,6.2-2.9L44.7,98.8z
       M51.5,90.2c0-1.9-1.3-3.2-3.2-3.2c-2.1,0-3.3,1.5-3.3,3.4c0,1.6,0.8,2.8,2.1,4.1C50.1,93.5,51.5,92.1,51.5,90.2z"/>
    <path class="st7" d="M75.8,109.9V86.4c0-2.2,1.2-3.4,3.3-3.4H81c2.1,0,2.7,0.6,3.5,2.4l6,14l6-14c0.8-1.8,1.6-2.4,3.4-2.4h1.8
      c2.2,0,3.4,1.2,3.4,3.4v23.5c0,2-0.7,3.1-2.7,3.1h-1.1c-1.8,0-2.7-1.1-2.7-3.1V92.3l-4.9,12c-0.5,1.1-0.8,2.1-3.4,2.1
      c-2.7,0-2.9-0.9-3.4-2.1L82,92.6V110c0,2-0.7,3.1-2.7,3.1h-1.1C76.6,112.9,75.8,111.9,75.8,109.9z"/>
    <path class="st7" d="M118.4,113.3c-5.9,0-8.3-4.1-8.3-9.2V93.3c0-2.3,1.2-3.1,2.8-3.1h0.7c1.7,0,2.9,0.7,2.9,3.1v9.8
      c0,3,1.5,4.8,4.2,4.8c2.1,0,3.9-1.2,4.8-2.9V93.3c0-2.3,1.2-3.1,2.9-3.1h0.6c1.7,0,2.9,0.7,2.9,3.1v18.9c0,0.2-1.1,0.7-2.4,0.7
      c-1.6,0-3.4-0.7-3.8-3.5C124.2,111.7,121.9,113.3,118.4,113.3z"/>
    <path class="st7" d="M135.4,108.4c0-1.6,1.8-2.8,2-2.7c1.6,1.6,4.1,3,7.4,3c2.5,0,3.9-0.7,3.9-2.1c0-1.7-1.8-2-4.8-2.6
      c-3.1-0.7-7.9-1.7-7.9-6.8c0-4.3,3.7-7.2,9.3-7.2c6,0,9,2.2,9,4.8c0,1.7-2,2.9-2.1,2.7c-1.5-1.7-3.9-3-6.5-3
      c-2.4,0-3.8,0.8-3.8,2.2c0,1.6,1.7,1.9,4.8,2.5c3.2,0.7,8.2,1.7,8.2,6.8c0,4.5-3.7,7.2-9.8,7.2C138.5,113.3,135.4,111,135.4,108.4
      z"/>
    <path class="st7" d="M169.7,108.6c3.4,0,5.3-1.5,6.3-3.3c0-0.1,3.1,0.3,3.1,2.9c0,2.4-3.4,5.1-9.6,5.1c-7.3,0-12.1-4.5-12.1-11.6
      c0-6.8,4.9-11.8,11.7-11.8c6.6,0,11.1,4.6,11.1,11.2v0.5c0,1.1-0.4,1.8-1.6,1.8h-15.4C163.7,106.7,166.3,108.6,169.7,108.6z
       M174.2,99.6c-0.1-3.1-2.1-5.2-5.2-5.2c-3,0-5.3,2.1-5.7,5.2H174.2z"/>
    <path class="st7" d="M191.9,113.3c-5.9,0-8.3-4.1-8.3-9.2V93.3c0-2.3,1.2-3.1,2.8-3.1h0.7c1.7,0,2.9,0.7,2.9,3.1v9.8
      c0,3,1.5,4.8,4.2,4.8c2.1,0,3.9-1.2,4.8-2.9V93.3c0-2.3,1.2-3.1,2.9-3.1h0.6c1.7,0,2.9,0.7,2.9,3.1v18.9c0,0.2-1.1,0.7-2.4,0.7
      c-1.6,0-3.4-0.7-3.8-3.5C197.7,111.7,195.3,113.3,191.9,113.3z"/>
    <path class="st7" d="M223.5,89.9c3.7,0,6.1,1.7,7.1,4.6c1.5-2.6,3.8-4.6,7.5-4.6c5.7,0,8,3.6,8,8.9v11.1c0,2.3-1.2,3.1-2.9,3.1
      h-0.6c-1.7,0-2.9-0.7-2.9-3.1v-10c0-3-1.3-4.5-3.9-4.5c-1.9,0-3.5,1.1-4.4,2.7v11.8c0,2.3-1.2,3.1-2.8,3.1H228
      c-1.7,0-2.9-0.7-2.9-3.1V100c0-3.1-1.3-4.7-3.8-4.7c-1.9,0-3.5,1.1-4.4,2.7v11.8c0,2.3-1.2,3.1-2.8,3.1h-0.7
      c-1.7,0-2.9-0.7-2.9-3.1V90.9c0-0.2,1.1-0.7,2.4-0.7c1.6,0,3.4,0.7,3.9,3.6C218.2,91.5,220.3,89.9,223.5,89.9z"/>
    <path class="st7" d="M249.4,108.4c0-1.6,1.8-2.8,2-2.7c1.6,1.6,4.1,3,7.4,3c2.5,0,3.9-0.7,3.9-2.1c0-1.7-1.8-2-4.8-2.6
      c-3.1-0.7-7.9-1.7-7.9-6.8c0-4.3,3.7-7.2,9.3-7.2c6,0,9,2.2,9,4.8c0,1.7-2,2.9-2.1,2.7c-1.5-1.7-3.9-3-6.5-3
      c-2.4,0-3.8,0.8-3.8,2.2c0,1.6,1.7,1.9,4.8,2.5c3.2,0.7,8.2,1.7,8.2,6.8c0,4.5-3.7,7.2-9.8,7.2C252.5,113.3,249.4,111,249.4,108.4
      z"/>
    <path class="st7" d="M55.3,131c0.7-2.2,2.2-3.1,3.7-3.1c2.1,0,4.2,1.6,3.9,2.2l-10.1,25.2c-0.8,1.8-1.8,2.6-4,2.6
      c-2.1,0-3.2-0.7-3.9-2.6l-10.3-25.2c-0.3-0.6,1.9-2.2,4.1-2.2c1.7,0,3.2,1.1,3.7,3.1l6.5,19.1L55.3,131z"/>
    <path class="st7" d="M65.7,128.4c0-2,1.4-3.2,3.6-3.2s3.6,1.2,3.6,3.2s-1.3,3.3-3.6,3.3S65.7,130.4,65.7,128.4z M66.1,154.8v-16.5
      c0-2.3,1.2-3.1,2.9-3.1h0.7c1.7,0,2.9,0.7,2.9,3.1v16.5c0,2.3-1.2,3.1-2.8,3.1H69C67.3,157.9,66.1,157.2,66.1,154.8z"/>
    <path class="st7" d="M76.4,146.6c0-6.8,4.9-11.7,11.7-11.7c6.8,0,9.5,3.9,9.5,6c0,2.6-3.4,3.1-3.6,2.8c-0.9-2.1-2.5-3.7-5.7-3.7
      c-3.5,0-6.1,2.7-6.1,6.5s2.6,6.5,6.1,6.5c3.1,0,4.8-1.6,5.7-3.7c0.1-0.2,3.6,0.1,3.6,2.9c0,2.1-2.8,6-9.5,6
      C81.2,158.3,76.4,153.4,76.4,146.6z"/>
    <path class="st7" d="M102,140.4c-1.8,0-2.7-0.8-2.7-2.2v-0.4c0-1.6,0.9-2.4,2.7-2.4h1.1v-2.8c0-2.1,1.1-3.1,2.9-3.1h0.5
      c1.7,0,2.9,0.7,2.9,3.1v2.8h3.9c1.8,0,2.6,0.8,2.6,2.3v0.4c0,1.6-0.8,2.4-2.7,2.4h-3.9v9.5c0,2.2,0.7,3.3,2.5,3.3
      c1.3,0,2.2-0.6,2.9-1.5c0.1-0.1,1.6,0.7,1.6,2.5c0,2.2-2.2,4.1-5.9,4.1c-4.9,0-7.2-2.6-7.2-7.6v-10.2H102V140.4z"/>
    <path class="st7" d="M118.3,146.6c0-6.9,4.9-11.7,12-11.7c7,0,11.8,4.8,11.8,11.7s-4.8,11.7-11.9,11.7
      C123.1,158.3,118.3,153.6,118.3,146.6z M136.4,146.6c0-3.9-2.6-6.7-6.2-6.7s-6.3,2.8-6.3,6.7c0,3.8,2.7,6.6,6.3,6.6
      C133.8,153.2,136.4,150.4,136.4,146.6z"/>
    <path class="st7" d="M157.6,134.9c2.6,0,4.2,1.5,4.2,3.7c0,2.6-2,3.5-2.1,3.4c-0.7-0.6-1.7-1.1-2.9-1.1c-3.2,0-4.5,2.7-4.5,7.2
      v6.7c0,2.3-1.2,3.1-2.8,3.1h-0.7c-1.7,0-2.9-0.7-2.9-3.1v-18.9c0-0.2,1.1-0.7,2.4-0.7c1.7,0,3.5,0.8,3.9,3.8
      C153,136.4,154.9,134.9,157.6,134.9z"/>
    <path class="st7" d="M164.6,128.4c0-2,1.4-3.2,3.6-3.2s3.6,1.2,3.6,3.2s-1.3,3.3-3.6,3.3S164.6,130.4,164.6,128.4z M164.9,154.8
      v-16.5c0-2.3,1.2-3.1,2.9-3.1h0.7c1.7,0,2.9,0.7,2.9,3.1v16.5c0,2.3-1.2,3.1-2.8,3.1h-0.7C166.2,157.9,164.9,157.2,164.9,154.8z"
      />
    <path class="st7" d="M185.8,139.7c-3.1,0-4.7,1.7-5.5,3.4c0,0.1-4.2,0.2-4.2-2.7c0-2.8,3.3-5.5,10.1-5.5c7,0,10.5,3.2,10.5,9.2
      v13.2c0,0.3-1.2,0.7-2.4,0.7c-2,0-3.4-1.1-3.8-3.6c-1.6,2.3-4.4,3.7-7.7,3.7c-4.7,0-7.5-2.7-7.5-6.4c0-5.1,4.6-7.5,14.4-7.6h0.7
      C190.4,141.3,188.8,139.7,185.8,139.7z M190.4,148.9v-1.3h-1.2c-5.1,0.1-7.7,1.1-7.7,3.6c0,1.6,1.3,2.7,3.5,2.7
      C188.1,154,190.4,151.9,190.4,148.9z"/>
  </g>
</g>
</svg>