<svg version="1.1" id="Layer_1" xmlns="http://www.w3.org/2000/svg" xmlns:xlink="http://www.w3.org/1999/xlink" x="0px" y="0px"
	 viewBox="0 0 180 28" style="enable-background:new 0 0 180 28;" xml:space="preserve">
<style type="text/css">
	.pink{fill:#ed193a;}
	.pink-circle{fill-rule:evenodd;clip-rule:evenodd;fill:#ed193a;}
</style>
<g>
	<path class="pink" d="M39.4,6.2h-4.2c-2,0-3,1.1-3,3.3v9.8c0,1.8,0.9,2.7,2.5,2.7h0.9c1.7,0,2.6-1,2.6-2.7v-1.2h1.5
		c4.6,0,7.1-1.9,7.1-5.9C46.7,8.3,44.2,6.2,39.4,6.2z M39.4,13.9h-1.3v-3.2h1.1c1.2,0,1.8,0.6,1.8,1.6C41,13.3,40.4,13.9,39.4,13.9z
		"/>
	<path class="pink" d="M55.8,5.9c-4.9,0-8.5,3.4-8.5,8.2c0,4.8,3.5,8.2,8.5,8.2c4.9,0,8.4-3.4,8.4-8.2C64.2,9.3,60.7,5.9,55.8,5.9z
		 M55.8,17c-1.6,0-2.6-1.1-2.6-2.9c0-1.9,1-2.9,2.6-2.9c1.6,0,2.6,1.1,2.6,2.9C58.4,15.9,57.4,17,55.8,17z"/>
	<path class="pink" d="M98.5,17.4h-5.2v-1.2h3c1.9,0,2.7-0.6,2.7-2.2v-0.1c0-1.4-0.8-2-2.7-2h-3v-1h5.1c1.9,0,2.7-0.6,2.7-2.2V8.5
		c0-1.6-0.8-2.3-2.7-2.3h-8c-2,0-3,1.1-3,3.3v9.2c0,2.2,1,3.3,3,3.3h8.1c1.9,0,2.7-0.7,2.7-2.4v-0.1
		C101.3,17.9,100.4,17.4,98.5,17.4z"/>
	<path class="pink" d="M113.7,16.1c1.9-0.8,2.9-2.4,2.9-4.5c0-3.5-2.2-5.4-6.9-5.4h-5c-2,0-3,1.1-3,3.3v9c0,2.2,0.9,3.5,2.5,3.5h0.9
		c1.7,0,2.6-0.9,2.6-2.7v-1.9h0.3l1.5,2.1c1.2,1.7,2.1,2.5,4,2.5c1,0,1.7-0.2,2.2-0.6c0.9-0.5,1.2-1.3,0.6-2.1
		C115.8,18.7,113.7,16.1,113.7,16.1z M109,13.5h-1.5v-2.8h1.4c1.2,0,1.7,0.5,1.7,1.4C110.7,13,110.1,13.5,109,13.5z"/>
	<path class="pink" d="M144.7,6.1h-0.9c-1.6,0-2.5,0.9-2.5,2.7v2.7h-3.5V8.9c0-1.8-0.9-2.7-2.6-2.7h-0.9c-1.6,0-2.5,0.9-2.5,2.7v10.5
		c0,1.8,0.9,2.7,2.5,2.7h0.9c1.7,0,2.6-0.9,2.6-2.7v-2.8h3.5v2.8c0,1.8,0.9,2.7,2.5,2.7h0.9c1.7,0,2.6-0.9,2.6-2.7V8.9
		C147.3,7,146.4,6.1,144.7,6.1z"/>
	<path class="pink" d="M156.4,5.9c-4.9,0-8.5,3.4-8.5,8.2c0,4.8,3.5,8.2,8.5,8.2c4.9,0,8.4-3.4,8.4-8.2
		C164.8,9.3,161.3,5.9,156.4,5.9z M156.4,17c-1.6,0-2.6-1.1-2.6-2.9c0-1.9,1-2.9,2.6-2.9c1.6,0,2.6,1.1,2.6,2.9
		C159,15.9,158,17,156.4,17z"/>
	<path class="pink" d="M172.7,6.2h-4.2c-2,0-3,1.1-3,3.3v9.8c0,1.8,0.9,2.7,2.5,2.7h0.9c1.7,0,2.6-1,2.6-2.7v-1.2h1.5
		c4.6,0,7.1-1.9,7.1-5.9C180,8.3,177.5,6.2,172.7,6.2z M172.6,13.9h-1.3v-3.2h1.1c1.2,0,1.8,0.6,1.8,1.6
		C174.3,13.3,173.7,13.9,172.6,13.9z"/>
	<path class="pink" d="M125.6,11.9c-1.4-0.3-2.5-0.3-2.5-0.8c0-0.5,0.4-0.7,1.6-0.7c1,0,2.4,0.5,3.4,0.9c0.6,0.3,1.6,0.4,2.4-1
		c0.2-0.4,0.3-0.8,0.3-1.3c0-1.7-1.7-3.1-6.2-3.1c-4.7,0-7.2,1.9-7.2,5.4c0,1.2,0.4,2.1,0.9,2.8c1,1.1,2,1.5,4,1.9
		c1.5,0.3,2.7,0.4,2.8,1c0.1,0.5-0.8,0.8-2,0.7c-1.1-0.1-2.4-0.6-3.3-0.9c-0.8-0.3-1.8-0.3-2.4,0.8c-0.2,0.4-0.3,0.8-0.3,1.3
		c0,1.7,1.7,3.3,6.2,3.3c4.7,0,7.8-1.9,7.8-5.4c0-1.2-0.4-2.1-0.9-2.8C129.2,13,127.6,12.3,125.6,11.9z"/>
	<path class="pink" d="M83.4,6.2c-1.1,0-2.7,0.6-3.2,3.1l-0.8,4.6l-1.3-5.1c-0.4-1.5-1.4-2.3-2.8-2.3c-1.5,0-2.5,0.8-2.8,2.3
		l-1.3,5.1l-0.8-4.6c-0.5-2.5-2.1-3.1-3.2-3.1c-1.6,0-2.9,0.7-3.3,1.4C63.8,8,63.6,8.3,64.1,10c0.6,1.7,3.1,9.8,3.1,9.8
		c0.5,1.7,1.6,2.2,3.3,2.2c1.7,0,3-0.5,3.5-2.2l1.3-4.8l1.3,4.8c0.5,1.7,1.8,2.2,3.5,2.2c1.7,0,2.8-0.5,3.3-2.2c0,0,2.6-8.1,3.1-9.8
		c0.6-1.7,0.3-2.1,0.1-2.5C86.3,6.9,85,6.2,83.4,6.2z"/>
</g>
<path class="pink-circle" d="M21.9,12.7c0.2-0.2,0.2-0.6,0-0.8l-4.4-4.1c-0.2-0.2-0.6-0.2-0.8,0l-1,1.1c-0.2,0.2-0.2,0.6,0,0.8l4.4,4.1
	c0.2,0.2,0.6,0.2,0.8,0L21.9,12.7z M7.9,17.7c0.4-0.4,1.1-0.4,1.5,0.2c1.1,1.4,2.8,2.2,4.7,2.2c1.9,0,3.5-0.9,4.6-2.2
	c0.5-0.6,1.1-0.5,1.5-0.1c0.4,0.3,0.8,0.6,0.2,1.5c-1.4,1.9-3.8,3-6.3,3c-2.6,0-4.9-1.1-6.3-3C7.1,18.3,7.5,18.1,7.9,17.7z
	 M6.3,12.7c-0.2-0.2-0.2-0.6,0-0.8l4.4-4.1c0.2-0.2,0.6-0.2,0.8,0l1,1.1c0.2,0.2,0.2,0.6,0,0.8L8,13.8c-0.2,0.2-0.6,0.2-0.8,0
	L6.3,12.7z M2.7,14.1c0,6.3,5.1,11.4,11.4,11.4c6.3,0,11.4-5.1,11.4-11.4c0-6.3-5.1-11.4-11.4-11.4C7.8,2.7,2.7,7.8,2.7,14.1z
	 M26.7,14.1c0,7-5.7,12.6-12.6,12.6c-7,0-12.6-5.7-12.6-12.6c0-7,5.7-12.6,12.6-12.6C21.1,1.5,26.7,7.1,26.7,14.1z M0,14.1
	C0,6.3,6.3,0,14.1,0c7.8,0,14.1,6.3,14.1,14.1c0,7.8-6.3,14.1-14.1,14.1C6.3,28.2,0,21.9,0,14.1z"/>
</svg>
