<?xml version="1.0" encoding="utf-8"?>
<!-- Generator: Adobe Illustrator 22.1.0, SVG Export Plug-In . SVG Version: 6.00 Build 0)  -->
<svg version="1.1" id="Layer_1" xmlns="http://www.w3.org/2000/svg" xmlns:xlink="http://www.w3.org/1999/xlink" x="0px" y="0px"
	 viewBox="0 0 32 32" style="enable-background:new 0 0 32 32;" xml:space="preserve">
<style type="text/css">
	.st0{fill-rule:evenodd;clip-rule:evenodd;fill:#ed193a;}
</style>
<path class="st0" d="M24.9,14.4c0.2-0.3,0.2-0.6,0-0.9l-5-4.7c-0.3-0.2-0.6-0.2-0.9,0l-1.1,1.2c-0.2,0.3-0.2,0.6,0,0.9l5,4.7
	c0.3,0.2,0.6,0.2,0.9,0L24.9,14.4z M9,20.1c0.5-0.4,1.2-0.5,1.7,0.2c1.2,1.5,3.2,2.5,5.3,2.5c2.1,0,4-1,5.3-2.5
	c0.5-0.6,1.3-0.6,1.7-0.2c0.5,0.4,0.9,0.7,0.2,1.7c-1.6,2.1-4.3,3.4-7.2,3.4c-2.9,0-5.6-1.3-7.2-3.4C8,20.8,8.5,20.5,9,20.1z
	 M7.1,14.4c-0.2-0.3-0.2-0.6,0-0.9l5-4.7c0.2-0.2,0.6-0.2,0.9,0l1.1,1.2c0.2,0.3,0.2,0.6,0,0.9l-5,4.7c-0.3,0.2-0.6,0.2-0.9,0
	L7.1,14.4z M3.1,16c0,7.1,5.8,12.9,12.9,12.9c7.1,0,12.9-5.8,12.9-12.9c0-7.1-5.8-12.9-12.9-12.9C8.9,3.1,3.1,8.9,3.1,16z M30.3,16
	c0,7.9-6.4,14.3-14.3,14.3C8.1,30.3,1.7,23.9,1.7,16C1.7,8.1,8.1,1.7,16,1.7C23.9,1.7,30.3,8.1,30.3,16z M0,16C0,7.2,7.2,0,16,0
	c8.8,0,16,7.2,16,16c0,8.8-7.2,16-16,16C7.2,32,0,24.8,0,16z"/>
</svg>
