<svg version="1.1" id="Layer_1" xmlns="http://www.w3.org/2000/svg" xmlns:xlink="http://www.w3.org/1999/xlink" x="0px" y="0px"
	 viewBox="0 0 1055 342.3" style="enable-background:new 0 0 1055 342.3;" xml:space="preserve">
<style type="text/css">
	.st0{fill:url(#SVGID_1_);}
	.st1{fill:url(#SVGID_2_);}
	.st2{fill:url(#SVGID_3_);}
	.st3{fill:url(#SVGID_4_);}
	.st4{opacity:0.4;fill:#F4C224;}
	.st5{fill:url(#SVGID_5_);}
	.st6{fill:url(#SVGID_6_);}
	.st7{fill:url(#SVGID_7_);}
	.st8{fill:url(#SVGID_8_);}
	.st9{fill:url(#SVGID_9_);}
	.st10{fill:#F4C224;}
	.st11{fill:#FEDC00;}
	.st12{fill:#FFFFFF;}
	.st13{fill:#3BB149;}
	.st14{fill:#69BD45;}
</style>
<g>
	
		<linearGradient id="SVGID_1_" gradientUnits="userSpaceOnUse" x1="222.2415" y1="561.2168" x2="223.4553" y2="561.2168" gradientTransform="matrix(812 0 0 -527 -180042 295944)">
		<stop  offset="0" style="stop-color:#ED1F6B"/>
		<stop  offset="0.34" style="stop-color:#EF3E4D"/>
		<stop  offset="1" style="stop-color:#F8981D"/>
	</linearGradient>
	<path class="st0" d="M1055,188v-12.7c-3.2,5.3-6,10.2-8.3,14.9C1049.5,189.5,1052.2,188.7,1055,188z"/>
	
		<linearGradient id="SVGID_2_" gradientUnits="userSpaceOnUse" x1="222.2415" y1="561.3341" x2="223.4553" y2="561.3341" gradientTransform="matrix(812 0 0 -527 -180042 295944)">
		<stop  offset="0" style="stop-color:#ED1F6B"/>
		<stop  offset="0.34" style="stop-color:#EF3E4D"/>
		<stop  offset="1" style="stop-color:#F8981D"/>
	</linearGradient>
	<path class="st1" d="M61.3,206.8c0.2-0.5,0.4-1,0.6-1.4c0,0,0,0,0,0c0.8-2,1.6-4.1,2.4-6.1c2.3-5.9,4.8-11.8,7.3-17.6
		c0.7-1.7,1.4-3.5,2.1-5.3c1.6-4.2,3.2-8.5,5.8-12.3c1.9-3,3.9-5.5,5.9-7.8c0.4-0.5,0.8-1,1.2-1.4c-3.3-0.8-5.7-2.5-5.7-3.8
		c0-1.4,3-3.3,7-4c-0.4-0.5-0.9-1.1-1.3-1.7c-1.9-2.4-3.7-5.1-5.4-8.2c-2.4-4-3.8-8.4-5.1-12.7c-0.6-1.8-1.1-3.6-1.7-5.4
		c-2.1-6-4.2-12-6.2-18c-0.7-2.1-1.3-4.2-2-6.3c0,0,0,0,0,0c-1.3-4-2.5-7.9-3.7-11.9c-0.3-1,0.1-2.1,1.3-2.8
		c0.1-0.1,0.3-0.1,0.4-0.1c1-0.2,2,0.1,2.5,1c2.2,3.5,4.2,7.1,6.3,10.7c1.1,1.9,2.2,3.8,3.3,5.8c3.1,5.5,6.2,11.1,9.2,16.7
		c0.9,1.7,1.9,3.3,2.8,4.9c2.3,3.8,4.6,7.8,5.9,12.2c1.1,3.4,1.9,6.5,2.4,9.5c0.1,0.8,0.3,1.5,0.4,2.3c1.9,0.5,3.3,2.1,3.4,4.2l0,1
		c0.9-0.1,1.8-0.1,2.8-0.2c3.1-0.2,6.3-0.1,9.8,0.3c4.6,0.3,9,1.7,13.3,3.1c1.8,0.6,3.6,1.2,5.4,1.7c6.1,1.7,12.3,3.4,18.3,5.3
		c2.1,0.7,4.2,1.3,6.3,2c0,0,0,0,0,0c4,1.2,7.9,2.5,11.9,3.8c1,0.3,1.6,1.3,1.5,2.7c0,0.1-0.1,0.3-0.2,0.4c-0.4,0.9-1.3,1.6-2.3,1.5
		c-4.1-0.2-8.3-0.6-12.4-1c-2.2-0.2-4.4-0.4-6.6-0.6c-6.3-0.6-12.7-1.3-18.9-2.1c-1.9-0.2-3.8-0.4-5.6-0.5
		c-4.4-0.3-9.1-0.7-13.4-2.2c-3.4-1.1-6.4-2.2-9.2-3.5c-0.1,0-0.2-0.1-0.2-0.1l1.5,42.1c36.7-4.7,73.2-7.7,109-8.4
		c2.6-0.1,5.2-0.1,7.8-0.1l1.3-35.3c0,0,0,0-0.1,0.1c-1.3,1.2-2.7,2.3-4.3,3.5c-2.1,1.6-4.5,2.6-6.9,3.5c-1,0.4-2,0.8-3,1.3
		c-3.2,1.5-6.6,3-9.8,4.4c-1.2,0.5-2.3,1-3.5,1.5c-2.2,0.9-4.3,1.8-6.5,2.7c-0.5,0.2-1.1,0-1.5-0.4c-0.1-0.1-0.1-0.1-0.2-0.2
		c-0.3-0.7-0.1-1.4,0.4-1.7c1.9-1.4,3.8-2.8,5.7-4.1c0,0,0,0,0,0c1-0.7,2-1.4,3-2.2c2.9-2.1,6-4.1,9-6.1c0.9-0.6,1.8-1.2,2.6-1.8
		c2.1-1.5,4.2-3,6.6-4c1-0.4,1.9-0.8,2.8-1.1c-0.1-0.2-0.2-0.3-0.2-0.5c0-0.9,2.1-2.1,4.7-2.4c0.5,0,0.9-0.1,1.3-0.2
		c0.1-0.5,0.3-0.9,0.6-1.2c0-0.4-0.1-0.8-0.1-1.3c-0.1-1.7-0.1-3.6,0-5.6c0.1-2.6,0.9-5.2,1.6-7.6c0.3-1,0.6-2.1,0.9-3.1
		c0.9-3.5,1.8-7,2.7-10.5c0.3-1.2,0.7-2.4,1-3.6c0,0,0,0,0,0c0.6-2.3,1.3-4.5,2-6.8c0.2-0.6,0.7-0.9,1.5-0.9c0.1,0,0.1,0.1,0.2,0.1
		c0.5,0.2,0.9,0.7,0.9,1.3c-0.1,2.4-0.2,4.7-0.4,7c-0.1,1.3-0.2,2.5-0.2,3.8c-0.2,3.6-0.6,7.2-0.9,10.8c-0.1,1.1-0.2,2.1-0.2,3.2
		c-0.1,2.5-0.3,5.1-1,7.6c-0.5,2-1.2,3.7-1.8,5.3c-0.5,1.3-1.1,2.4-1.7,3.3l0,0.8c0.8,0.4,1.6,0.8,2.5,1.4c1.5,0.9,3,1.9,4.6,3.2
		c2.1,1.6,3.7,3.7,5.3,5.6c0.7,0.8,1.3,1.7,2,2.5c2.4,2.7,4.7,5.5,7,8.2c0.8,1,1.6,1.9,2.3,2.9c0,0,0,0,0,0c1.5,1.8,3,3.7,4.4,5.5
		c0.4,0.5,0.4,1.1-0.1,1.7c-0.1,0.1-0.1,0.1-0.2,0.1c-0.5,0.3-1.1,0.3-1.6,0c-1.9-1.4-3.7-2.9-5.6-4.3c-1-0.8-2-1.6-3-2.4
		c-2.8-2.3-5.6-4.6-8.3-6.9c-0.8-0.7-1.7-1.4-2.5-2c-2-1.6-4.1-3.2-5.7-5.2c-0.3-0.4-0.7-0.8-1-1.2l1.1,31.1
		c44.3,0.4,85.7,6,125.6,15.2l1.1-30c-0.3,0-0.6-0.1-0.9-0.1c-0.4,0.2-0.8,0.5-1.3,0.7c-2.2,1.2-4.7,2.3-7.4,3.3
		c-3.6,1.4-7.4,1.9-11,2.4c-1.6,0.2-3.1,0.4-4.6,0.7c-5.2,0.9-10.4,1.8-15.6,2.6c-1.8,0.2-3.6,0.5-5.4,0.8c0,0,0,0,0,0
		c-3.4,0.5-6.8,1-10.3,1.4c-0.9,0.1-1.7-0.4-2.1-1.5c0-0.1,0-0.2,0-0.3c-0.1-0.8,0.4-1.6,1.2-1.9c3.2-1.3,6.4-2.5,9.6-3.7
		c1.7-0.6,3.4-1.3,5.2-1.9c4.9-1.8,9.9-3.5,14.9-5.2c1.5-0.5,2.9-1.1,4.4-1.6c3.4-1.3,7-2.7,10.8-3.2c2.9-0.4,5.6-0.7,8.1-0.7
		c1.9,0,3.5,0,5,0.2c0.3-0.7,0.8-1.3,1.5-1.7c0.1-0.9,0.2-1.9,0.3-2.9c0.3-2.5,0.8-5.1,1.6-8c0.9-3.8,2.7-7.1,4.4-10.4
		c0.7-1.4,1.4-2.8,2.1-4.2c2.2-4.8,4.5-9.5,6.8-14.2c0.8-1.6,1.6-3.2,2.5-4.9c0,0,0,0,0,0c1.6-3.1,3.1-6.1,4.8-9.2
		c0.4-0.8,1.3-1.2,2.4-0.9c0.1,0,0.2,0.1,0.3,0.2c0.7,0.4,1.1,1.2,0.9,2.1c-0.8,3.4-1.6,6.7-2.5,10c-0.5,1.8-0.9,3.6-1.4,5.4
		c-1.4,5.1-2.8,10.2-4.3,15.2c-0.4,1.5-0.8,3-1.2,4.5c-0.9,3.6-1.8,7.3-3.6,10.7c-1.3,2.7-2.7,5-4.1,7c-0.9,1.4-1.8,2.6-2.7,3.7
		c1.2,0.4,2.5,0.9,3.8,1.5c2.3,1,4.7,2.2,7.3,3.7c3.3,1.9,6.1,4.5,8.8,7.1c1.1,1.1,2.3,2.2,3.5,3.2c4,3.4,7.9,6.9,11.8,10.5
		c1.4,1.3,2.7,2.5,4,3.8c2.5,2.3,5,4.7,7.5,7.1c0.6,0.6,0.7,1.5,0.3,2.2c-0.1,0.1-0.1,0.2-0.2,0.3c-0.8,0.8-1.7,1-2.5,0.5
		c-3-1.7-6-3.4-8.9-5.2c0,0,0,0,0,0c-1.6-0.9-3.1-1.9-4.7-2.8c-4.5-2.7-9-5.5-13.4-8.3c-1.3-0.8-2.7-1.6-4-2.4
		c-3.2-1.8-6.5-3.8-9.3-6.4c-1.5-1.4-2.8-2.7-4-4.1l1,27.5c33.5,8.3,65.9,19.1,98.1,31.4c20.8-1.5,42.4-2.6,64.8-3.1
		c36.7-0.9,73.1,0.4,108.9,3.6c-5.4-8.2-12.7-17.7-22-28.6c80.8,41.5,93.2,29.3,52.5-51.2c59.5,66.1,73.3,58.7,48.3-26.4
		c19.4,21.8,34.8,35.6,46.6,41.4c-2-6.4-4.4-13.3-7.4-20.5c7.8,9.1,15,16.9,21.6,23.3c13.7-3,17.6-27.7,12.8-74.4
		c14.3,47,27.4,65.5,38.2,57.2c-0.2-4.4-0.5-9.1-1-14.3c1.1,4.3,2.2,8.3,3.3,12.1c7.7-8.9,14.1-32.1,18.8-69
		c10.3,39,18.6,62.4,26.7,69.5c2.1-6.5,4.2-13.9,6.4-22.1c1.1,8.4,2.2,15.9,3.3,22.6c7.2-5.7,14.6-25,23.2-58.6
		c-3.8,38.5,0.1,59.4,11,64.4c1.8-5,3.6-10.7,5.5-16.9c-0.7,6.5-1.1,12.5-1.4,18c14.7,1.7,38.9-17.9,71.4-55.8
		c-12.2,30-17.6,54.3-15.8,70c2.1-2.3,4.3-4.7,6.6-7.3c-1.7,5.8-3.2,11.2-4.5,16.1c7.5,18.1,32.2,14.7,76-20.7V0H0v217.9
		C20.3,213.8,40.8,210.1,61.3,206.8z"/>
	
		<linearGradient id="SVGID_3_" gradientUnits="userSpaceOnUse" x1="222.2415" y1="561.2032" x2="223.4553" y2="561.2032" gradientTransform="matrix(812 0 0 -527 -180042 295944)">
		<stop  offset="0" style="stop-color:#ED1F6B"/>
		<stop  offset="0.34" style="stop-color:#EF3E4D"/>
		<stop  offset="1" style="stop-color:#F8981D"/>
	</linearGradient>
	<path class="st2" d="M85.5,182.5c-1.1,1.6-2.1,3.1-3.1,4.7c-3.3,5.4-6.7,10.8-10.1,16.1c-0.5,0.7-0.9,1.3-1.3,2
		c6.2-0.9,12.3-1.8,18.5-2.7l1-28.2C89,177.3,87.2,179.9,85.5,182.5z"/>
	
		<linearGradient id="SVGID_4_" gradientUnits="userSpaceOnUse" x1="222.2415" y1="561.2022" x2="223.4553" y2="561.2022" gradientTransform="matrix(812 0 0 -527 -180042 295944)">
		<stop  offset="0" style="stop-color:#ED1F6B"/>
		<stop  offset="0.34" style="stop-color:#EF3E4D"/>
		<stop  offset="1" style="stop-color:#F8981D"/>
	</linearGradient>
	<path class="st3" d="M979,191.5c-1.8,7-3.2,13.2-4,18.4c23.1-6.7,47.1-13.4,71.8-19.8c2.3-4.7,5.1-9.6,8.3-14.9v-4.4
		C1011.2,206.3,986.5,209.7,979,191.5z"/>
	<path class="st4" d="M979,191.5c-1.8,7-3.2,13.2-4,18.4c23.1-6.7,47.1-13.4,71.8-19.8c2.3-4.7,5.1-9.6,8.3-14.9v-4.4
		C1011.2,206.3,986.5,209.7,979,191.5z"/>
	
		<linearGradient id="SVGID_5_" gradientUnits="userSpaceOnUse" x1="222.2415" y1="561.2712" x2="223.4553" y2="561.2712" gradientTransform="matrix(812 0 0 -527 -180042 295944)">
		<stop  offset="0" style="stop-color:#ED1F6B"/>
		<stop  offset="0.34" style="stop-color:#EF3E4D"/>
		<stop  offset="1" style="stop-color:#F8981D"/>
	</linearGradient>
	<path class="st5" d="M825.4,162.7c-10.8,8.3-23.9-10.2-38.2-57.2c4.9,46.7,0.9,71.4-12.8,74.4C809.1,213.9,827.4,211.3,825.4,162.7
		z"/>
	<path class="st4" d="M825.4,162.7c-10.8,8.3-23.9-10.2-38.2-57.2c4.9,46.7,0.9,71.4-12.8,74.4C809.1,213.9,827.4,211.3,825.4,162.7
		z"/>
	
		<linearGradient id="SVGID_6_" gradientUnits="userSpaceOnUse" x1="222.2415" y1="561.2767" x2="223.4553" y2="561.2767" gradientTransform="matrix(812 0 0 -527 -180042 295944)">
		<stop  offset="0" style="stop-color:#ED1F6B"/>
		<stop  offset="0.34" style="stop-color:#EF3E4D"/>
		<stop  offset="1" style="stop-color:#F8981D"/>
	</linearGradient>
	<path class="st6" d="M917.1,167.4c-10.9-5.1-14.9-25.9-11-64.4c-8.7,33.5-16.1,52.8-23.2,58.6C891,209.2,901.3,212.6,917.1,167.4z"
		/>
	<path class="st4" d="M917.1,167.4c-10.9-5.1-14.9-25.9-11-64.4c-8.7,33.5-16.1,52.8-23.2,58.6C891,209.2,901.3,212.6,917.1,167.4z"
		/>
	
		<linearGradient id="SVGID_7_" gradientUnits="userSpaceOnUse" x1="222.2415" y1="561.1959" x2="223.4553" y2="561.1959" gradientTransform="matrix(812 0 0 -527 -180042 295944)">
		<stop  offset="0" style="stop-color:#ED1F6B"/>
		<stop  offset="0.34" style="stop-color:#EF3E4D"/>
		<stop  offset="1" style="stop-color:#F8981D"/>
	</linearGradient>
	<path class="st7" d="M696.3,200.6c62,52,80.9,31.3,63.9-23.5c-11.8-5.8-27.2-19.6-46.6-41.4c25,85.1,11.2,92.5-48.3,26.4
		c40.7,80.5,28.2,92.7-52.5,51.2c9.2,10.9,16.5,20.4,22,28.6c27.3,2.4,54.2,5.8,80.7,10C717.9,241.4,712,224.2,696.3,200.6z"/>
	<path class="st4" d="M696.3,200.6c62,52,80.9,31.3,63.9-23.5c-11.8-5.8-27.2-19.6-46.6-41.4c25,85.1,11.2,92.5-48.3,26.4
		c40.7,80.5,28.2,92.7-52.5,51.2c9.2,10.9,16.5,20.4,22,28.6c27.3,2.4,54.2,5.8,80.7,10C717.9,241.4,712,224.2,696.3,200.6z"/>
	
		<linearGradient id="SVGID_8_" gradientUnits="userSpaceOnUse" x1="222.2415" y1="561.2886" x2="223.4553" y2="561.2886" gradientTransform="matrix(812 0 0 -527 -180042 295944)">
		<stop  offset="0" style="stop-color:#ED1F6B"/>
		<stop  offset="0.34" style="stop-color:#EF3E4D"/>
		<stop  offset="1" style="stop-color:#F8981D"/>
	</linearGradient>
	<path class="st8" d="M873.1,161c-8-7.1-16.4-30.6-26.7-69.5c-4.7,36.9-11.1,60.1-18.8,69C842.8,211.6,857.3,210.1,873.1,161z"/>
	<path class="st4" d="M873.1,161c-8-7.1-16.4-30.6-26.7-69.5c-4.7,36.9-11.1,60.1-18.8,69C842.8,211.6,857.3,210.1,873.1,161z"/>
	
		<linearGradient id="SVGID_9_" gradientUnits="userSpaceOnUse" x1="222.2415" y1="561.2552" x2="223.4553" y2="561.2552" gradientTransform="matrix(812 0 0 -527 -180042 295944)">
		<stop  offset="0" style="stop-color:#ED1F6B"/>
		<stop  offset="0.34" style="stop-color:#EF3E4D"/>
		<stop  offset="1" style="stop-color:#F8981D"/>
	</linearGradient>
	<path class="st9" d="M976.8,182.7c-1.8-15.7,3.6-40,15.8-70c-32.4,37.8-56.7,57.5-71.4,55.8C918.7,221.7,936.1,226.3,976.8,182.7z"
		/>
	<path class="st4" d="M976.8,182.7c-1.8-15.7,3.6-40,15.8-70c-32.4,37.8-56.7,57.5-71.4,55.8C918.7,221.7,936.1,226.3,976.8,182.7z"
		/>
	<path class="st10" d="M696.3,200.6c15.7,23.7,21.6,40.9,19.1,51.3c8.6,1.4,17.2,2.9,25.7,4.4c0.1-0.7,0-1.5-0.6-2.1
		c2.5,2.8,8.5-2.3,6.1-5.2c2.4,2.9,8.6-1.9,6.3-4.9c2.3,3,8.7-1.6,6.5-4.7c2.2,3.1,8.7-1.2,6.7-4.4c2,3.2,8.8-0.8,6.9-4.1
		c1.9,3.3,8.8-0.5,7-3.8c1.7,3.3,8.8-0.1,7.2-3.5c1.6,3.4,8.8,0.2,7.3-3.2c1.5,3.5,8.8,0.6,7.5-2.9c1.3,3.5,8.7,1,7.6-2.6
		c1.2,3.6,8.7,1.3,7.7-2.3c1,3.6,8.6,1.7,7.8-2c0.9,3.7,8.6,2,7.8-1.7c0.7,3.7,8.5,2.4,7.9-1.4c0.6,3.7,8.3,2.7,7.9-1
		c0.4,3.7,8.2,3.1,8-0.7c0.2,3.8,8.1,3.4,8-0.3c0.1,3.8,7.9,3.8,8,0c-0.1,3.8,7.8,4.1,8,0.3c-0.3,3.8,7.6,4.4,8,0.7
		c-0.4,3.7,7.4,4.7,7.9,1c-0.6,3.8,7.2,5.1,7.9,1.4c-0.7,3.7,7,5.3,7.8,1.7c-0.9,3.7,6.8,5.6,7.8,2c-1,3.7,6.5,5.9,7.7,2.3
		c-1.2,3.6,6.2,6.1,7.6,2.6c-0.6,1.5,0.5,3,2,3.8c12.2-3.7,24.8-7.4,37.6-11.1c0.9-5.3,2.2-11.4,4-18.4c1.3-4.9,2.7-10.3,4.5-16.1
		c-2.3,2.6-4.5,5-6.6,7.3c-40.7,43.6-58.1,39-55.6-14.2c0.3-5.5,0.7-11.5,1.4-18c-1.9,6.2-3.7,11.9-5.5,16.9
		c-15.8,45.2-26.1,41.8-34.3-5.9c-1.1-6.7-2.2-14.2-3.3-22.6c-2.2,8.2-4.3,15.6-6.4,22.1c-15.8,49.1-30.3,50.6-45.4-0.5
		c-1.1-3.7-2.2-7.8-3.3-12.1c0.5,5.1,0.9,9.9,1,14.3c2,48.6-16.2,51.2-51,17.2c-6.6-6.5-13.8-14.3-21.6-23.3
		c2.9,7.3,5.4,14.1,7.4,20.5C777.2,231.9,758.2,252.6,696.3,200.6z"/>
	<path class="st10" d="M935.4,217.4c-1.4,3.5-8.7,1-7.6-2.6c-1.2,3.6-8.7,1.4-7.7-2.3c-1,3.6-8.6,1.7-7.8-2c-0.9,3.7-8.6,2-7.8-1.7
		c-0.7,3.7-8.5,2.4-7.9-1.4c-0.6,3.7-8.3,2.7-7.9-1c-0.4,3.7-8.3,3.1-8-0.7c-0.2,3.8-8.1,3.4-8-0.3c-0.1,3.8-7.9,3.8-8,0
		c0.1,3.8-7.8,4.1-8,0.3c0.2,3.8-7.6,4.4-8,0.7c0.4,3.7-7.4,4.7-7.9,1c0.6,3.7-7.2,5-7.9,1.4c0.7,3.7-7,5.3-7.8,1.7
		c0.9,3.7-6.8,5.6-7.8,2c1,3.6-6.5,5.9-7.7,2.3c1.2,3.6-6.2,6.1-7.6,2.6c1.4,3.5-6,6.4-7.5,2.9c1.5,3.5-5.7,6.6-7.3,3.2
		c1.6,3.4-5.4,6.8-7.2,3.5c1.8,3.3-5.1,7.1-7,3.8c1.9,3.3-4.8,7.3-6.9,4.1c2,3.2-4.5,7.5-6.7,4.4c2.2,3.1-4.2,7.7-6.5,4.7
		c2.3,3-3.9,7.8-6.3,4.9c2.4,2.9-3.5,8-6.1,5.2c0.6,0.6,0.7,1.3,0.6,2.1c0.8,0.1,1.5,0.3,2.3,0.4c32.9-28.9,75.9-46.4,122.9-46.4
		c23.3,0,45.7,4.4,66.2,12.2c1.6-0.5,3.2-1,4.8-1.5C935.8,220.3,934.8,218.9,935.4,217.4z"/>
	<path class="st11" d="M743.4,256.7c16.6,3.1,33.1,6.5,49.3,10.1c37.6-11.9,85.5-27.7,139.8-44.2c-20.6-7.9-42.9-12.2-66.2-12.2
		C819.3,210.3,776.3,227.8,743.4,256.7z"/>
	<path class="st12" d="M221.2,148.2c-0.3,0.3-0.5,0.8-0.6,1.2c0.3,0,0.5-0.1,0.8-0.1C221.3,148.9,221.3,148.6,221.2,148.2z"/>
	<path class="st12" d="M225.7,152.1l0-0.8c-0.1,0.2-0.2,0.4-0.4,0.6C225.5,151.9,225.6,152,225.7,152.1z"/>
	<path class="st12" d="M227.2,192.4l-1.1-31.1c-0.9-1.1-1.6-2.2-2.3-3.3c-0.6-1-1.1-1.9-1.5-2.7c-0.6,0.6-1.2,1.3-1.9,1.9l-1.3,35.3
		C221.7,192.4,224.5,192.4,227.2,192.4z"/>
	<path class="st12" d="M229.4,128.7c-0.4,4-0.3,8.2-1.4,12.1c-0.5,2-1.1,3.9-1.9,5.8c-0.6,1.5-1.2,2.9-2.1,4.4
		c0.1,0.1,0.2,0.2,0.3,0.3c0,0,0,0.1,0,0.1c0.4,0.1,0.7,0.3,1.1,0.5c0.1-0.2,0.2-0.4,0.4-0.6c0.6-1,1.1-2.1,1.7-3.3
		c0.7-1.6,1.3-3.3,1.8-5.3c0.8-2.5,0.9-5.1,1-7.6c0.1-1.1,0.1-2.1,0.2-3.2c0.3-3.6,0.7-7.2,0.9-10.8c0.1-1.3,0.1-2.5,0.2-3.8
		c0.1-2.3,0.3-4.7,0.4-7c0-0.6-0.4-1.1-0.9-1.3c-0.2,2.5-0.4,5.1-0.5,7.6C230.2,120.6,229.8,124.7,229.4,128.7z"/>
	<path class="st12" d="M222,149.3c-0.2-1.2-0.2-2.3-0.3-3.4c-0.1-2.1,0-4.1,0.1-6.1c0.2-4.1,1.7-7.9,2.7-11.9
		c0.9-3.8,1.8-7.5,2.8-11.3c-0.3,1.2-0.7,2.4-1,3.6c-1,3.5-1.9,7-2.7,10.5c-0.3,1-0.6,2.1-0.9,3.1c-0.7,2.4-1.5,4.9-1.6,7.6
		c-0.1,2-0.1,3.8,0,5.6c0,0.4,0.1,0.9,0.1,1.3c0,0.4,0.1,0.8,0.1,1.2C221.6,149.3,221.8,149.3,222,149.3z"/>
	<path class="st12" d="M221.8,139.7c-0.2,2-0.2,4.1-0.1,6.1c0,1.1,0.1,2.3,0.3,3.4c1,0,1.7,0.4,1.9,1.6c0,0,0,0,0,0
		c0.8-1.4,1.5-2.9,2.1-4.4c0.8-1.9,1.4-3.9,1.9-5.8c1.1-3.9,1-8,1.4-12.1c0.4-4,0.8-8.1,1.1-12.1c0.2-2.5,0.4-5.1,0.5-7.6
		c-0.1,0-0.1-0.1-0.2-0.1c-0.8,0-1.3,0.3-1.5,0.9c-0.7,2.3-1.4,4.5-2,6.8c0,0,0,0,0,0c-1,3.8-1.9,7.5-2.8,11.3
		C223.6,131.8,222.1,135.7,221.8,139.7z"/>
	<path class="st12" d="M210.7,154.7c1.5-0.7,3-1.2,4.6-1.8c-0.2-0.2-0.4-0.4-0.5-0.5c-0.9,0.3-1.8,0.7-2.8,1.1c-2.5,1-4.6,2.5-6.6,4
		c-0.9,0.6-1.7,1.3-2.6,1.8c-3,2-6,4-9,6.1c-1,0.7-2,1.4-3,2.2c3.2-2.2,6.4-4.3,9.7-6.4C203.8,159,206.9,156.3,210.7,154.7z"/>
	<path class="st12" d="M222.2,155.2c-0.1-0.2-0.2-0.4-0.3-0.6c-0.4,0-0.9,0-1.4-0.1c-0.7,0.7-1.3,1.3-2,1.9
		c-1.5,1.4-3.2,2.6-4.9,3.8c-3.3,2.4-7.2,3.6-10.9,5.4c-3.7,1.7-7.3,3.5-11,5.1c-2.3,1-4.7,2-7,3.1c0.4,0.4,1,0.6,1.5,0.4
		c2.2-0.9,4.4-1.8,6.5-2.7c1.2-0.5,2.3-1,3.5-1.5c3.3-1.4,6.6-2.9,9.8-4.4c1-0.5,2-0.9,3-1.3c2.3-1,4.8-2,6.9-3.5
		c1.7-1.2,3.1-2.3,4.3-3.5c0,0,0,0,0.1-0.1C221,156.4,221.6,155.8,222.2,155.2z"/>
	<path class="st12" d="M224.2,151.3c-0.1-0.1-0.2-0.2-0.3-0.3c0,0,0,0,0,0c0,0.1,0,0.2,0,0.3C224.1,151.3,224.2,151.4,224.2,151.3
		C224.3,151.4,224.2,151.3,224.2,151.3z"/>
	<path class="st12" d="M202.8,165.5c3.7-1.7,7.6-3,10.9-5.4c1.7-1.1,3.3-2.4,4.9-3.8c0.7-0.6,1.4-1.2,2-1.9c-0.4,0-0.8-0.1-1.3-0.1
		c-1.7-0.2-3.2-0.7-4-1.4c-1.6,0.5-3.1,1.1-4.6,1.8c-3.8,1.6-6.9,4.3-10.3,6.5c-3.3,2.1-6.5,4.2-9.7,6.4c0,0,0,0,0,0
		c-1.9,1.4-3.8,2.7-5.7,4.1c-0.5,0.4-0.7,1-0.4,1.7c0,0.1,0.1,0.1,0.2,0.2c2.3-1,4.7-2,7-3.1C195.4,168.9,199.1,167.2,202.8,165.5z"
		/>
	<path class="st12" d="M238.3,170.6c-3.1-2.7-6.5-4.9-9.1-8.1c-1.3-1.6-2.5-3.2-3.7-4.9c-0.8-1.2-1.5-2.4-2.1-3.6
		c-0.4,0.4-0.9,0.6-1.6,0.6c0.1,0.2,0.2,0.4,0.3,0.6c0.4,0.9,0.9,1.8,1.5,2.7c0.7,1.1,1.4,2.2,2.3,3.3c0.3,0.4,0.6,0.8,1,1.2
		c1.6,2.1,3.7,3.7,5.7,5.2c0.8,0.7,1.7,1.3,2.5,2c2.7,2.3,5.5,4.7,8.3,6.9c1,0.8,2,1.6,3,2.4c1.8,1.5,3.7,2.9,5.6,4.3
		c0.5,0.4,1.1,0.3,1.6,0c-2-1.6-4-3.2-5.9-4.8C244.5,175.9,241.4,173.3,238.3,170.6z"/>
	<path class="st12" d="M224.3,151.4c-0.1,0-0.2-0.1-0.3-0.1c0,0.2,0,0.4,0,0.6c0,0,0,0,0,0c1.7,0.7,3.2,1.6,4.7,2.5
		c1.8,1.1,3.4,2.3,5,3.6c3.2,2.5,5.5,5.9,8.2,9c2.6,2.9,5.1,5.8,7.6,8.8c-0.8-1-1.6-1.9-2.3-2.9c-2.3-2.8-4.6-5.5-7-8.2
		c-0.7-0.8-1.4-1.6-2-2.5c-1.6-2-3.2-4-5.3-5.6c-1.6-1.3-3.1-2.3-4.6-3.2c-0.9-0.5-1.7-1-2.5-1.4c-0.1-0.1-0.3-0.1-0.4-0.2
		C225,151.7,224.6,151.6,224.3,151.4z"/>
	<path class="st12" d="M233.6,158.1c-1.6-1.3-3.2-2.5-5-3.6c-1.5-0.9-3-1.8-4.7-2.5c0,1-0.2,1.6-0.5,2c0.6,1.3,1.4,2.5,2.1,3.6
		c1.1,1.7,2.4,3.4,3.7,4.9c2.6,3.2,6,5.4,9.1,8.1c3.1,2.7,6.1,5.3,9.3,7.9c2,1.6,4,3.2,5.9,4.8c0.1,0,0.1-0.1,0.2-0.1
		c0.5-0.6,0.5-1.3,0.1-1.7c-1.4-1.9-2.9-3.7-4.4-5.5c0,0,0,0,0,0c-2.5-3-5-5.9-7.6-8.8C239.1,164.1,236.8,160.6,233.6,158.1z"/>
	<path class="st12" d="M215.2,152.9c0.8,0.6,2.3,1.2,4,1.4c0.4,0,0.9,0.1,1.3,0.1c0.5,0.1,1,0.1,1.4,0.1c0.7,0,1.2-0.2,1.6-0.6
		c0.3-0.4,0.5-1,0.5-2c0,0,0,0,0,0c0-0.2,0-0.5,0-0.6c0-0.1,0-0.2,0-0.3c-0.2-1.3-0.9-1.6-1.9-1.6c-0.2,0-0.4,0-0.6,0
		c-0.2,0-0.5,0-0.8,0.1c-0.4,0-0.9,0.1-1.3,0.2c-2.6,0.2-4.7,1.5-4.7,2.4c0,0.1,0.1,0.3,0.2,0.5C214.8,152.6,215,152.8,215.2,152.9z
		 M215.6,151.4c0-0.5,1.7-0.9,3.3-1c0.4,0,0.7-0.1,1.1-0.1c0.5-0.1,1-0.1,1.4-0.1c0.6,0,1.6,0,1.6,1.3c0,1.3-0.9,1.3-1.6,1.3
		c-0.4,0-0.9-0.1-1.4-0.1c-0.3,0-0.7-0.1-1.1-0.1C217.3,152.3,215.6,151.9,215.6,151.4z"/>
	<path class="st12" d="M218.9,152.4c0.4,0,0.7,0.1,1.1,0.1c0.5,0.1,1,0.1,1.4,0.1c0.6,0,1.6,0,1.6-1.3c0-1.3-0.9-1.3-1.6-1.3
		c-0.4,0-0.9,0.1-1.4,0.1c-0.3,0-0.7,0.1-1.1,0.1c-1.6,0.1-3.3,0.5-3.3,1C215.6,151.9,217.3,152.3,218.9,152.4z"/>
	<path class="st13" d="M974.9,210c-12.8,3.7-25.3,7.4-37.6,11.1c-1.6,0.5-3.2,1-4.8,1.5c-54.3,16.5-102.2,32.4-139.8,44.2
		c88.5,19.9,170.6,47.7,242.3,75.5h20V188c-2.8,0.7-5.5,1.4-8.3,2.1C1022.1,196.6,998,203.3,974.9,210z"/>
	<path class="st13" d="M352.8,207.6c-39.9-9.2-81.3-14.8-125.6-15.2c-2.7,0-5.4,0-8.1,0c-2.6,0-5.2,0-7.8,0.1
		c-35.7,0.7-72.3,3.7-109,8.4l2.8,78.9c0.1,2.8-2.2,5.2-5,5.2h-8.4c-2.8,0-5.1-2.4-5-5.2l2.7-77.2c-6.2,0.9-12.3,1.7-18.5,2.7
		c-0.8,1.2-1.6,2.4-2.4,3.6c-2.3,3.5-4.6,6.9-6.9,10.3c-0.6,0.8-1.6,1.1-2.6,0.9c-0.1,0-0.3-0.1-0.4-0.1c-1.1-0.8-1.5-1.9-1.1-2.9
		c1.2-3.5,2.5-6.9,3.8-10.2c-20.5,3.3-41,7-61.3,11.1v124.5h88.7c65.4-35.2,150.4-68.5,262.4-87.7L352.8,207.6z"/>
	<path class="st13" d="M461,241.4c-32.2-12.3-64.6-23.1-98.1-31.4l1.5,42.5C394.7,247.7,426.8,243.9,461,241.4z"/>
	<path class="st12" d="M100.4,148.2l0-1c-0.1-2-1.5-3.7-3.4-4.2c0.3,2,0.5,3.8,0.5,5.5C98.4,148.4,99.4,148.3,100.4,148.2z"/>
	<path class="st12" d="M95.1,161.2c-0.7,3-1.7,6-3,9.4c-0.5,1.3-1.1,2.6-1.7,3.9l-1,28.2l-2.7,77.2c-0.1,2.8,2.2,5.2,5,5.2h8.4
		c2.8,0,5.1-2.4,5-5.2l-2.8-78.9l-1.5-42.1c-1.7-0.8-3.3-1.6-4.7-2.4C95.9,157.9,95.5,159.5,95.1,161.2z"/>
	<path class="st12" d="M80.8,110.5c3.3,6.3,7.5,12.3,9.6,19.1c1.1,3.4,2.1,6.9,2.8,10.4c0.4,2,0.8,4.1,1,6.2
		c1.4,0.1,2.4,0.7,2.8,2.2c0.1,0,0.2,0,0.3,0c0-1.7-0.2-3.5-0.5-5.5c-0.1-0.7-0.2-1.5-0.4-2.3c-0.5-3-1.3-6.1-2.4-9.5
		c-1.3-4.4-3.7-8.4-5.9-12.2c-1-1.6-1.9-3.3-2.8-4.9c-3-5.6-6-11.2-9.2-16.7c-1.1-1.9-2.2-3.9-3.3-5.8c-2.1-3.6-4.1-7.2-6.3-10.7
		c-0.5-0.9-1.6-1.2-2.5-1c2.2,3.9,4.4,7.8,6.6,11.7C74.2,97.9,77.5,104.2,80.8,110.5z"/>
	<path class="st12" d="M86.3,143.2c-2.2-2.9-4.1-6-5.8-9.1c-3.6-6.2-5.2-13.3-7.7-20c-2.4-6.4-4.6-12.8-6.8-19.3
		c0.7,2.1,1.3,4.2,2,6.3c2,6,4,12.1,6.2,18c0.6,1.8,1.2,3.6,1.7,5.4c1.3,4.3,2.7,8.7,5.1,12.7c1.8,3.1,3.5,5.8,5.4,8.2
		c0.4,0.6,0.9,1.1,1.3,1.7c0.4-0.1,0.9-0.1,1.3-0.2C88.1,145.6,87.2,144.4,86.3,143.2z"/>
	<path class="st12" d="M80.5,134.1c1.7,3.1,3.6,6.2,5.8,9.1c0.9,1.2,1.8,2.4,2.8,3.6c0,0,0,0,0.1,0c2-0.2,3.8-0.5,5.2-0.4
		c-0.2-2.1-0.6-4.2-1-6.2c-0.7-3.6-1.7-7-2.8-10.4c-2.1-6.8-6.3-12.8-9.6-19.1c-3.3-6.3-6.7-12.6-10.1-18.9
		c-2.2-3.9-4.4-7.8-6.6-11.7c-0.1,0-0.3,0-0.4,0.1c-1.2,0.7-1.6,1.8-1.3,2.8c1.2,4,2.4,8,3.7,11.9c0,0,0,0,0,0
		c2.2,6.5,4.5,12.9,6.8,19.3C75.3,120.8,76.9,127.9,80.5,134.1z"/>
	<path class="st12" d="M82.4,187.2c1-1.6,2-3.2,3.1-4.7c1.7-2.6,3.5-5.2,5-8c0.6-1.2,1.2-2.5,1.7-3.9c1.3-3.3,2.3-6.4,3-9.4
		c0.4-1.7,0.8-3.3,1-4.8c-0.5-0.3-1-0.6-1.4-0.9c-0.5,0.1-1,0.1-1.5,0.1c-0.4,2.1-0.8,4.1-1.4,6.1c-0.9,3.5-2.1,6.9-3.5,10.2
		c-2.6,6.7-7.1,12.4-10.8,18.5c-3.7,6.1-7.4,12.2-11.3,18.3c-2.5,3.8-4.9,7.5-7.3,11.3c1,0.3,2,0,2.6-0.9c2.4-3.4,4.7-6.9,6.9-10.3
		c0.8-1.2,1.6-2.4,2.4-3.6c0.4-0.7,0.9-1.3,1.3-2C75.7,198,79.1,192.6,82.4,187.2z"/>
	<path class="st12" d="M78.7,167c1.9-3,4-6,6.3-8.8c0.9-1.1,1.8-2.2,2.8-3.2c-0.5-0.1-0.9-0.2-1.3-0.3c-0.4,0.5-0.8,0.9-1.2,1.4
		c-2,2.3-4,4.9-5.9,7.8c-2.6,3.8-4.3,8.2-5.8,12.3c-0.7,1.8-1.3,3.5-2.1,5.3c-2.5,5.8-4.9,11.7-7.3,17.6c-0.8,2.1-1.6,4.1-2.4,6.1
		c2.6-6.3,5.2-12.6,8-18.9C72.7,179.9,74.7,172.9,78.7,167z"/>
	<path class="st12" d="M58.6,219.9c0.1,0.1,0.3,0.1,0.4,0.1c2.4-3.8,4.9-7.5,7.3-11.3c3.8-6,7.6-12.1,11.3-18.3
		c3.7-6.1,8.2-11.8,10.8-18.5c1.3-3.3,2.5-6.7,3.5-10.2c0.5-2,1-4,1.4-6.1c-1.2-0.1-2.6-0.3-4.1-0.4c-0.5,0-0.9-0.1-1.3-0.2
		c-1,1.1-1.9,2.1-2.8,3.2c-2.3,2.8-4.4,5.7-6.3,8.8c-4,6-6,13-8.8,19.5c-2.7,6.2-5.4,12.5-8,18.9c0,0,0,0,0,0
		c-0.2,0.5-0.4,1-0.6,1.4c-1.3,3.4-2.6,6.8-3.8,10.2C57.1,218,57.5,219.1,58.6,219.9z"/>
	<path class="st12" d="M134.8,163.4c-7.1-0.9-14.4-0.9-21.2-3.1c-3.4-1-6.8-2.2-10.2-3.7c-2.1-0.9-4.2-1.9-6.3-3.1
		c-0.5,1.3-1.3,1.8-2.5,2c0.5,0.3,0.9,0.6,1.4,0.9c1.4,0.8,2.9,1.6,4.7,2.4c0.1,0,0.2,0.1,0.2,0.1c2.7,1.3,5.8,2.4,9.2,3.5
		c4.4,1.5,9,1.8,13.4,2.2c1.9,0.1,3.8,0.3,5.6,0.5c6.3,0.8,12.6,1.5,18.9,2.1c2.2,0.2,4.4,0.4,6.6,0.6c4.1,0.4,8.2,0.7,12.4,1
		c1,0.1,1.9-0.6,2.3-1.5c-4.5-0.4-8.9-0.9-13.4-1.3C149,165.2,141.9,164.3,134.8,163.4z"/>
	<path class="st12" d="M97.2,148.5c0.1,0.3,0.2,0.7,0.2,1.1c2.5-0.3,5-0.5,7.5-0.5c3.7-0.1,7.2,0.1,10.8,0.5
		c7.2,0.6,13.9,3.4,20.8,5.2c6.6,1.7,13.2,3.6,19.7,5.5c-2.1-0.6-4.2-1.3-6.3-2c-6.1-1.8-12.2-3.6-18.3-5.3
		c-1.8-0.5-3.6-1.1-5.4-1.7c-4.2-1.4-8.6-2.8-13.3-3.1c-3.5-0.3-6.7-0.4-9.8-0.3c-1,0-1.9,0.1-2.8,0.2c-1,0.1-2,0.2-2.9,0.3
		C97.4,148.5,97.3,148.5,97.2,148.5z"/>
	<path class="st12" d="M115.7,149.6c-3.6-0.4-7.2-0.6-10.8-0.5c-2.5,0-5,0.2-7.5,0.5c0,0.4,0.1,0.8,0.1,1.3c0,1.1-0.1,1.9-0.4,2.6
		c2.1,1.2,4.2,2.2,6.3,3.1c3.3,1.5,6.7,2.6,10.2,3.7c6.8,2.2,14.1,2.1,21.2,3.1c7.1,0.9,14.2,1.8,21.3,2.5c4.5,0.4,8.9,0.9,13.4,1.3
		c0.1-0.1,0.1-0.2,0.2-0.4c0.1-1.4-0.5-2.3-1.5-2.7c-3.9-1.4-7.9-2.6-11.9-3.8c0,0,0,0,0,0c-6.6-1.9-13.1-3.7-19.7-5.5
		C129.6,153,122.9,150.2,115.7,149.6z"/>
	<path class="st12" d="M89.1,155.2c1.5,0.1,2.9,0.4,4.1,0.4c0.5,0,1,0,1.5-0.1c1.1-0.2,2-0.7,2.5-2c0.2-0.7,0.4-1.5,0.4-2.6
		c0-0.5,0-0.9-0.1-1.3c0-0.4-0.1-0.8-0.2-1.1c-0.5-1.5-1.5-2.1-2.8-2.2c-1.4-0.1-3.2,0.2-5.2,0.4c0,0,0,0-0.1,0
		c-0.5,0-0.9,0.1-1.3,0.2c-4,0.7-7,2.6-7,4c0,1.3,2.4,2.9,5.7,3.8c0.4,0.1,0.9,0.2,1.3,0.3C88.2,155.1,88.7,155.1,89.1,155.2z
		 M82.7,150c0-0.9,3-1.6,5.8-1.9c0.6-0.1,1.3-0.1,1.9-0.2c0.9-0.1,1.8-0.2,2.5-0.2c1.1,0,2.7,0,2.7,2.3c0,2.3-1.7,2.3-2.7,2.3
		c-0.7,0-1.6-0.1-2.5-0.2c-0.6-0.1-1.2-0.2-1.9-0.2C85.7,151.6,82.7,150.9,82.7,150z"/>
	<path class="st12" d="M90.3,152c0.9,0.1,1.8,0.2,2.5,0.2c1.1,0,2.7,0,2.7-2.3c0-2.3-1.7-2.3-2.7-2.3c-0.8,0-1.6,0.1-2.5,0.2
		c-0.6,0.1-1.2,0.1-1.9,0.2c-2.8,0.3-5.8,0.9-5.8,1.9c0,0.9,3,1.6,5.8,1.9C89.1,151.9,89.7,152,90.3,152z"/>
	<path class="st12" d="M355.9,167.8c-0.7,0.4-1.2,1-1.5,1.7c0.5,0,1,0.1,1.4,0.2C355.8,169,355.9,168.4,355.9,167.8z"/>
	<path class="st12" d="M364.4,252.5l-1.5-42.5l-1-27.5c-0.5-0.6-1.1-1.2-1.6-1.8c-1-1.2-1.8-2.2-2.5-3.3c-1,0.6-2.4,0.4-4,0.2
		l-1.1,30l-1.7,47.1C355.5,253.9,359.9,253.2,364.4,252.5z"/>
	<path class="st12" d="M322.5,178c5.6-1.8,11.1-4.5,16.9-5.3c2.5-0.4,5.1-0.7,7.7-0.8c1.3-0.7,3-1.3,5-1.5c1.3-0.1,2.5-0.3,3.6-0.4
		c0-0.2,0-0.3,0-0.5c-0.5-0.1-0.9-0.1-1.4-0.2c-1.5-0.1-3.2-0.2-5-0.2c-2.5,0-5.2,0.2-8.1,0.7c-3.8,0.5-7.4,1.9-10.8,3.2
		c-1.5,0.6-2.9,1.1-4.4,1.6c-5,1.7-10,3.4-14.9,5.2c-1.7,0.7-3.5,1.3-5.2,1.9c-3.2,1.2-6.4,2.4-9.6,3.7c-0.8,0.3-1.2,1.1-1.2,1.9
		c3.5-1.3,7-2.5,10.5-3.8C311.3,181.7,316.9,179.8,322.5,178z"/>
	<path class="st12" d="M351.3,177.3c-0.5,0.2-0.9,0.5-1.4,0.7c-2.7,1.4-5.5,2.5-8.3,3.5c-5.6,2.1-11.6,2.4-17.4,3.5
		c-5.6,1.1-11.1,2-16.7,2.9c1.8-0.3,3.6-0.5,5.4-0.8c5.2-0.8,10.4-1.7,15.6-2.6c1.5-0.3,3.1-0.5,4.6-0.7c3.7-0.5,7.5-1,11-2.4
		c2.8-1,5.2-2.1,7.4-3.3c0.4-0.2,0.9-0.5,1.3-0.7c-0.2,0-0.5-0.1-0.7-0.1C351.9,177.4,351.6,177.3,351.3,177.3z"/>
	<path class="st12" d="M341.7,181.5c2.8-1,5.6-2.1,8.3-3.5c0.5-0.2,0.9-0.5,1.4-0.7c-3.4-0.5-6-2.2-6-3.4c0-0.6,0.7-1.4,1.9-2
		c-2.6,0.1-5.2,0.4-7.7,0.8c-5.9,0.8-11.3,3.4-16.9,5.3c-5.6,1.8-11.2,3.7-16.8,5.7c-3.5,1.3-7,2.5-10.5,3.8c0,0.1,0,0.2,0,0.3
		c0.4,1.1,1.2,1.6,2.1,1.5c3.4-0.4,6.8-0.9,10.3-1.4c0,0,0,0,0,0c5.6-0.9,11.2-1.9,16.7-2.9C330.1,183.9,336.1,183.6,341.7,181.5z"
		/>
	<path class="st12" d="M368.3,187.5c-2.2-2-4.3-4.1-6.3-6.4c-1.2-1.4-2.4-2.9-3.5-4.4c-0.2,0.3-0.4,0.5-0.7,0.7
		c0.7,1.1,1.6,2.1,2.5,3.3c0.5,0.6,1,1.2,1.6,1.8c1.2,1.4,2.5,2.7,4,4.1c2.8,2.7,6.1,4.6,9.3,6.4c1.4,0.8,2.7,1.6,4,2.4
		c4.4,2.8,8.9,5.6,13.4,8.3c1.6,0.9,3.1,1.8,4.7,2.8c-4.8-3-9.6-6-14.3-9.1C378.1,194.2,372.7,191.6,368.3,187.5z"/>
	<path class="st12" d="M360.3,173.8c1.9,0.6,3.8,1.4,5.6,2.2c2.8,1.2,5.4,2.7,7.9,4.2c5.1,3,9.2,7.5,13.7,11.3
		c4.5,3.8,9,7.7,13.4,11.7c2.7,2.5,5.5,5,8.2,7.5c0.4-0.7,0.3-1.6-0.3-2.2c-2.5-2.4-5-4.8-7.5-7.1c-1.3-1.2-2.7-2.5-4-3.8
		c-3.9-3.5-7.8-7.1-11.8-10.5c-1.2-1-2.3-2.1-3.5-3.2c-2.7-2.5-5.5-5.2-8.8-7.1c-2.6-1.5-4.9-2.7-7.3-3.7c-1.4-0.6-2.6-1.1-3.8-1.5
		C361.5,172.5,360.9,173.2,360.3,173.8z"/>
	<path class="st12" d="M387.4,191.6c-4.5-3.8-8.5-8.3-13.7-11.3c-2.5-1.6-5.1-3-7.9-4.2c-1.8-0.8-3.6-1.6-5.6-2.2
		c-0.3,0.3-0.6,0.6-1,0.9c-0.1,0.1-0.1,0.1-0.2,0.1c-0.1,0.8-0.3,1.4-0.6,1.8c1.1,1.6,2.3,3,3.5,4.4c2,2.3,4.1,4.4,6.3,6.4
		c4.3,4.1,9.8,6.7,14.7,9.9c4.7,3.1,9.5,6.1,14.3,9.1c0,0,0,0,0,0c3,1.8,5.9,3.5,8.9,5.2c0.8,0.4,1.7,0.3,2.5-0.5
		c0.1-0.1,0.1-0.2,0.2-0.3c-2.7-2.5-5.5-5-8.2-7.5C396.4,199.3,391.9,195.4,387.4,191.6z"/>
	<path class="st12" d="M373.1,141.1c-1.7,5.7-2.7,11.6-5.4,16.9c-1.3,2.7-2.7,5.3-4.4,7.8c-1.3,2-2.7,4.1-4.4,6
		c0.2,0.5,0.3,1.2,0.3,2.1c0,0.4,0,0.7-0.1,1c0.1-0.1,0.2-0.1,0.2-0.1c0.3-0.3,0.6-0.6,1-0.9c0.6-0.6,1.2-1.3,1.8-2
		c0.9-1.1,1.8-2.3,2.7-3.7c1.4-2.1,2.8-4.4,4.1-7c1.8-3.4,2.7-7.1,3.6-10.7c0.4-1.5,0.8-3,1.2-4.5c1.5-5,2.9-10.1,4.3-15.2
		c0.5-1.8,0.9-3.6,1.4-5.4c0.9-3.3,1.7-6.6,2.5-10c0.2-0.8-0.2-1.7-0.9-2.1c-1,3.6-1.9,7.2-2.9,10.8
		C376.5,129.8,374.8,135.5,373.1,141.1z"/>
	<path class="st12" d="M355.8,170.1c0.3,0,0.6,0,0.9,0c0.1-2.2,0.3-4.4,0.6-6.5c0.4-3,1.1-5.9,1.9-8.8c1.5-5.8,4.7-10.9,7.1-16.3
		c2.3-5.2,4.7-10.3,7.2-15.4c-0.8,1.6-1.6,3.2-2.5,4.9c-2.3,4.7-4.6,9.5-6.8,14.2c-0.7,1.4-1.4,2.8-2.1,4.2
		c-1.7,3.3-3.5,6.7-4.4,10.4c-0.8,2.8-1.3,5.5-1.6,8c-0.1,1-0.2,2-0.3,2.9c0,0.6-0.1,1.2-0.1,1.8
		C355.8,169.8,355.8,169.9,355.8,170.1z"/>
	<path class="st12" d="M359.2,154.8c-0.8,2.9-1.4,5.8-1.9,8.8c-0.3,2.1-0.6,4.3-0.6,6.5c1,0.1,1.7,0.6,2.1,1.7
		c1.7-1.9,3.1-3.9,4.4-6c1.7-2.5,3.1-5.2,4.4-7.8c2.7-5.3,3.7-11.2,5.4-16.9c1.7-5.7,3.4-11.3,5-17.1c1-3.6,1.9-7.2,2.9-10.8
		c-0.1-0.1-0.2-0.1-0.3-0.2c-1.1-0.3-2,0.1-2.4,0.9c-1.7,3-3.2,6.1-4.8,9.2c0,0,0,0,0,0c-2.5,5.1-4.9,10.2-7.2,15.4
		C363.9,144,360.7,149.1,359.2,154.8z"/>
	<path class="st12" d="M357.8,177.4c0.3-0.2,0.5-0.4,0.7-0.7c0.3-0.4,0.5-1,0.6-1.8c0-0.3,0.1-0.6,0.1-1c0-0.9-0.1-1.6-0.3-2.1
		c-0.4-1.1-1.1-1.5-2.1-1.7c-0.3,0-0.6,0-0.9,0c-1,0-2.3,0.2-3.6,0.4c-2,0.2-3.8,0.8-5,1.5c-1.2,0.6-1.9,1.4-1.9,2
		c0,1.2,2.6,2.8,6,3.4c0.3,0,0.6,0.1,0.9,0.1c0.3,0,0.5,0,0.7,0.1c0.3,0,0.6,0.1,0.9,0.1C355.5,177.8,356.9,177.9,357.8,177.4z
		 M346.9,173.1c0-0.8,2.5-1.3,4.8-1.5c0.5,0,1.1-0.1,1.6-0.2c0.8-0.1,1.5-0.2,2.1-0.2c0.9,0,2.3,0,2.3,1.9c0,1.9-1.4,1.9-2.3,1.9
		c-0.6,0-1.3-0.1-2.1-0.2c-0.5-0.1-1-0.1-1.6-0.2C349.3,174.4,346.9,173.9,346.9,173.1z"/>
	<path class="st12" d="M353.2,174.8c0.8,0.1,1.5,0.2,2.1,0.2c0.9,0,2.3,0,2.3-1.9c0-1.9-1.4-1.9-2.3-1.9c-0.6,0-1.3,0.1-2.1,0.2
		c-0.5,0.1-1,0.1-1.6,0.2c-2.3,0.2-4.8,0.8-4.8,1.5s2.5,1.3,4.8,1.5C352.2,174.7,352.7,174.8,353.2,174.8z"/>
	<path class="st14" d="M743.4,256.7c-0.8-0.1-1.5-0.3-2.3-0.4c-8.5-1.6-17.1-3-25.7-4.4c-26.5-4.3-53.4-7.7-80.7-10
		c-35.8-3.1-72.2-4.4-108.9-3.6c-22.4,0.5-44,1.6-64.8,3.1c-34.2,2.5-66.3,6.3-96.6,11c-4.5,0.7-8.9,1.4-13.3,2.2
		c-112,19.2-197.1,52.5-262.4,87.7H1035c-71.7-27.8-153.8-55.6-242.3-75.5C776.5,263.2,760.1,259.8,743.4,256.7z"/>
</g>
</svg>
