<svg version="1.1" id="Layer_1" xmlns="http://www.w3.org/2000/svg" xmlns:xlink="http://www.w3.org/1999/xlink" x="0px" y="0px"
	 viewBox="0 0 1055 346.3" style="enable-background:new 0 0 1055 346.3;" xml:space="preserve">
<style type="text/css">
	.st0{fill:#B8DFF6;}
	.st1{opacity:0.69;fill:#9CD8DF;}
	.st2{fill:#9CD8DF;}
	.st3{opacity:0.34;fill:none;stroke:#9CD8DF;stroke-width:0;stroke-linecap:round;stroke-linejoin:round;}
	.st4{fill:#69BC45;}
	.st5{fill:#61B747;}
	.st6{opacity:0.8;fill:#51A446;}
	.st7{fill:#603813;}
	.st8{fill:#CFD1D2;}
	.st9{fill:#FFFFFF;}
</style>
<g>
	<g>
		<path class="st0" d="M835.4,126.9c-1.3,2.5-2.9,4.9-4.5,7.3c-1,1.4-1.9,2.8-2.8,4.3c-3,4.9-6.1,9.8-9.2,14.6
			c-1.1,1.7-2.2,3.4-3.3,5c-0.3,0.4-0.6,0.8-0.8,1.3c3.2,0.4,6.5,0.7,9.7,1.1c3.3-1.8,6.7-3.7,10-5.5L835.4,126.9z"/>
		<path class="st0" d="M570,138.3c0-1.5,0.2-3.1,0.4-4.6c-0.3,0-0.5,0-0.8-0.1c-6.2-0.6-12.5-1.3-18.7-2.1c-1.8-0.2-3.7-0.4-5.6-0.5
			c-4.4-0.3-8.9-0.7-13.3-2.1c-3.4-1-6.4-2.2-9.1-3.4c-0.1,0-0.2-0.1-0.2-0.1l1.2,34.2c6.2-0.3,12.4-0.5,18.6-0.8
			c13.6-1.2,27.1-2.3,40.7-3.3v-3.2C575.9,151.9,570,147.7,570,138.3z"/>
		<path class="st0" d="M721.2,152.4c0.3,0,0.5,0,0.8,0c-0.3-0.4-0.6-0.7-0.9-1.1L721.2,152.4z"/>
		<path class="st0" d="M710.5,143.8c-2.3,2.2-4.9,4.3-8,6.4c-0.8,0.6-1.6,1.1-2.4,1.6c3.4,0.1,6.8,0.1,10.2,0.2L710.5,143.8
			C710.6,143.7,710.5,143.8,710.5,143.8z"/>
		<path class="st0" d="M887.8,120.3c-5.7-0.5-11.5-1.2-17.1-1.9c-1.7-0.2-3.4-0.3-5.1-0.5c-4-0.3-8.2-0.6-12.2-1.9
			c-3.1-1-5.8-2-8.3-3.2c-0.1,0-0.1-0.1-0.2-0.1l1.3,35.9c18.6-10.1,36.1-19.3,52-27.4c-1.4-0.1-2.9-0.2-4.3-0.4
			C891.8,120.6,889.8,120.4,887.8,120.3z"/>
		<path class="st0" d="M504.7,153.4c-1.5,2.5-3,5-4.6,7.4c4-0.2,7.9-0.5,11.9-0.7l0.7-19.3c-1.4,2.8-3.2,5.4-4.9,7.9
			C506.7,150.2,505.7,151.8,504.7,153.4z"/>
		<path class="st0" d="M0.1,0v155.1c4.3-1.2,7.8-1.8,10.4-1.8c11.8,0,36.4,9.3,68.1,24c0-0.3,0-0.6,0-0.9c0-6.2,4.4-11.3,10-12.1
			c2.8-3.7,7-6.1,11.8-6.1c6,0,11.2,3.7,13.6,9.1c0.2,0,0.4,0,0.6,0c6.3,0,11.5,5.4,11.5,12.2c0,0.7-0.1,1.5-0.2,2.2
			c1.7,2.3,2.7,5.1,2.7,8.2c0,3.9-1.6,7.5-4.1,9.9c7.5,3.9,15.2,7.9,23.1,12c2.9-0.6,5.7-1.2,8.6-1.8v-2.1
			c-5.9-0.3-10.6-3.6-10.6-11.1c0-7.9,5.1-17.3,11.5-17.3c6.3,0,11.5,9.4,11.5,17.3c0,7.5-4.7,10.8-10.6,11.1v1.7c8-1.7,16-3.3,24-5
			v-6c-7.5-0.4-13.4-4.6-13.4-14c0-9.9,6.4-21.7,14.4-21.7c8,0,14.4,11.8,14.4,21.7c0,9.4-5.9,13.6-13.3,14v5.6
			c12.9-2.6,25.8-5.1,38.8-7.6l3.3-92.7c-0.3,0-0.7-0.1-1-0.1c-0.5,0.3-1,0.5-1.5,0.8c-2.6,1.4-5.4,2.6-8.6,3.8
			c-4.1,1.6-8.5,2.2-12.7,2.8c-1.8,0.2-3.6,0.5-5.4,0.8c-6,1.1-12,2.1-18,3c-2.1,0.3-4.1,0.6-6.2,0.9c0,0,0,0,0,0
			c-3.9,0.6-7.9,1.1-11.8,1.6c-1,0.1-2-0.5-2.4-1.7c0-0.1,0-0.3,0-0.4c-0.1-1,0.4-1.9,1.4-2.2c3.7-1.5,7.4-2.9,11.1-4.3
			c2-0.7,4-1.5,6-2.2c5.7-2.1,11.5-4.1,17.2-6c1.7-0.6,3.4-1.2,5.1-1.9c4-1.5,8.1-3.1,12.5-3.7c3.4-0.5,6.5-0.8,9.4-0.8
			c2.1,0,4,0,5.8,0.2c0.4-0.8,1-1.5,1.7-1.9c0.1-1,0.2-2.1,0.3-3.3c0.3-2.9,0.9-5.9,1.8-9.2c1-4.3,3.1-8.2,5-12
			c0.8-1.6,1.7-3.2,2.4-4.8c2.5-5.5,5.2-11,7.9-16.4c1-1.9,1.9-3.7,2.8-5.6c0,0,0,0,0,0c1.8-3.5,3.6-7.1,5.5-10.6
			c0.5-0.9,1.5-1.3,2.8-1c0.1,0,0.2,0.1,0.3,0.2c0.8,0.5,1.3,1.4,1.1,2.4c-0.9,3.9-1.9,7.7-2.9,11.5c-0.5,2-1.1,4.1-1.6,6.2
			c-1.6,5.8-3.2,11.7-4.9,17.5c-0.5,1.7-0.9,3.5-1.4,5.2c-1,4.1-2.1,8.4-4.1,12.3c-1.5,3.1-3.1,5.7-4.7,8.1c-1.1,1.6-2.1,3-3.2,4.2
			c1.4,0.5,2.8,1,4.4,1.7c2.7,1.1,5.4,2.5,8.4,4.3c3.8,2.2,7,5.2,10.1,8.2c1.3,1.2,2.6,2.5,4,3.7c4.6,3.9,9.1,8,13.6,12.1
			c1.6,1.5,3.1,2.9,4.7,4.4c2.9,2.7,5.8,5.4,8.6,8.2c0.7,0.7,0.8,1.7,0.4,2.6c-0.1,0.1-0.1,0.2-0.2,0.4c-0.9,0.9-2,1.1-2.9,0.6
			c-3.5-1.9-6.9-4-10.3-6c0,0,0,0,0,0c-1.8-1.1-3.6-2.1-5.4-3.2c-5.2-3.1-10.4-6.4-15.5-9.6c-1.5-1-3.1-1.9-4.6-2.8
			c-3.7-2.1-7.5-4.3-10.7-7.4c-1.7-1.6-3.3-3.1-4.7-4.7l3,84.2c10.8-2,21.5-3.9,32.3-5.7v-2.8c-7.5-0.4-13.4-4.6-13.4-14
			c0-9.9,6.4-21.7,14.4-21.7s14.4,11.8,14.4,21.7c0,9.4-5.9,13.6-13.3,14v2.5c18.5-3.1,37.1-6.1,55.6-8.8v-9.4
			c-4.3-0.9-8-3.1-10.9-6.3c-0.5,0.1-1,0.1-1.6,0.1c-7,0-12.7-6-12.7-13.5c0-3.1,1-5.9,2.7-8.2c-0.1-0.7-0.2-1.4-0.2-2.2
			c0-6.7,5.1-12.2,11.5-12.2c0.2,0,0.4,0,0.6,0c2.4-5.4,7.6-9.1,13.6-9.1c4.8,0,9.1,2.4,11.8,6.1c5.6,0.8,10,5.9,10,12.1
			c0,1.5-0.3,3-0.8,4.4c0.9,2.4,1.4,4.9,1.4,7.6c0,11.9-9.4,21.5-21,21.5c-0.4,0-0.8,0-1.2-0.1v8.6c14.3-2.1,28.6-4,42.8-5.8
			c0.2-0.1,0.4-0.2,0.7-0.2c-0.2-0.3-0.3-0.6-0.3-0.9c0-0.6,0.5-1.3,1.4-1.9l-10.3-9.8l10.3,9.8c1.5-1.1,4.2-2.2,7.3-2.5
			c0.8-0.1,1.7-0.2,2.4-0.3c0.2-0.9,0.6-1.6,1.2-2.3c-0.1-0.8-0.1-1.5-0.2-2.3c-0.2-3.2-0.2-6.5,0-10.2c0.2-4.8,1.6-9.5,2.9-13.9
			c0.6-1.9,1.1-3.8,1.6-5.7c1.6-6.4,3.2-12.9,5-19.2c0.6-2.2,1.3-4.4,1.9-6.6c0,0,0,0,0,0c1.2-4.2,2.4-8.3,3.7-12.5
			c0.3-1,1.3-1.7,2.7-1.7c0.1,0,0.3,0.1,0.4,0.1c1,0.4,1.7,1.3,1.6,2.3c-0.1,4.3-0.4,8.6-0.7,12.9c-0.1,2.3-0.3,4.6-0.4,6.9
			c-0.5,6.6-1,13.2-1.7,19.8c-0.2,2-0.3,3.9-0.4,5.9c-0.2,4.6-0.5,9.4-1.9,14c-1,3.6-2.1,6.8-3.4,9.7c-1,2.2-1.9,4.2-2.9,5.9
			c15.5-1.8,30.9-3.4,46.3-4.8v-4.6c-4.3-0.9-8-3.1-10.9-6.3c-0.5,0.1-1,0.1-1.6,0.1c-7,0-12.7-6-12.7-13.5c0-3.1,1-5.9,2.7-8.2
			c-0.1-0.7-0.2-1.4-0.2-2.2c0-6.7,5.1-12.2,11.5-12.2c0.2,0,0.4,0,0.6,0c2.4-5.4,7.6-9.1,13.6-9.1c4.8,0,9.1,2.4,11.8,6.1
			c5.6,0.8,10,5.9,10,12.1c0,1.5-0.3,3-0.8,4.4c0.9,2.4,1.4,4.9,1.4,7.6c0,11.9-9.4,21.5-21,21.5c-0.4,0-0.8,0-1.2-0.1v3.9
			c14.6-1.3,29.2-2.5,43.7-3.5c1.8-4.6,3.7-9.2,5.7-13.7c0.7-1.7,1.4-3.5,2-5.2c1.5-4.1,3.1-8.4,5.7-12.2c1.9-2.9,3.8-5.5,5.8-7.7
			c0.4-0.5,0.8-0.9,1.2-1.4c-3.3-0.8-5.6-2.5-5.6-3.7c0-1.4,3-3.3,6.9-4c-0.4-0.5-0.9-1.1-1.3-1.6c-1.9-2.4-3.6-5-5.3-8.1
			c-2.4-3.9-3.7-8.3-5-12.5c-0.5-1.8-1.1-3.6-1.7-5.3c-2.1-5.9-4.2-11.9-6.1-17.8c-0.6-2.1-1.3-4.1-2-6.2c0,0,0,0,0,0
			c-1.3-3.9-2.5-7.8-3.6-11.8c-0.3-1,0.1-2.1,1.3-2.8c0.1-0.1,0.3-0.1,0.4-0.1c1-0.2,2,0.1,2.5,1c2.2,3.5,4.2,7,6.2,10.6
			c1.1,1.9,2.2,3.8,3.3,5.7c3.1,5.4,6.1,11,9,16.5c0.9,1.6,1.8,3.2,2.8,4.9c2.2,3.8,4.6,7.7,5.9,12.1c1.1,3.4,1.9,6.5,2.4,9.4
			c0.1,0.8,0.3,1.5,0.4,2.2c1.9,0.5,3.3,2.1,3.3,4.1l0,1c0.9-0.1,1.8-0.1,2.7-0.2c3-0.2,6.2-0.1,9.7,0.3c4.6,0.3,8.9,1.7,13.1,3.1
			c1.8,0.6,3.6,1.2,5.3,1.6c6,1.6,12.1,3.4,18.1,5.2c0.6,0.2,1.2,0.4,1.8,0.6c2.6-5.1,6.7-8.9,11.2-8.9c8,0,14.4,11.8,14.4,21.7
			c0,9.4-5.9,13.6-13.3,14v3.1c17.8-1.2,35.6-2.1,53.2-2.8v-7.9c-4.3-0.9-8-3.1-10.9-6.3c-0.5,0.1-1,0.1-1.6,0.1
			c-7,0-12.7-6-12.7-13.5c0-3.1,1-5.9,2.7-8.2c-0.1-0.7-0.2-1.4-0.2-2.2c0-6.7,5.1-12.2,11.5-12.2c0.2,0,0.4,0,0.6,0
			c2.4-5.4,7.6-9.1,13.6-9.1c4.8,0,9.1,2.4,11.8,6.1c5.6,0.8,10,5.9,10,12.1c0,1.5-0.3,3-0.8,4.4c0.9,2.4,1.4,4.9,1.4,7.6
			c0,11.9-9.4,21.5-21,21.5c-0.4,0-0.8,0-1.2-0.1v7.4c7.1-0.2,14.1-0.4,21.2-0.6c3.1-0.1,6.3-0.1,9.4-0.1c1.9-1.3,3.9-2.6,5.8-3.9
			c1.6-1.1,3.2-2.2,4.8-3.4c3.8-2.7,7.7-5.6,12.2-7.4c1.8-0.8,3.5-1.4,5.1-2c-0.2-0.3-0.3-0.6-0.3-0.9c0-1.6,3.9-3.9,8.7-4.4
			c0.8-0.1,1.7-0.2,2.4-0.3c0.2-0.9,0.6-1.6,1.2-2.3c-0.1-0.8-0.1-1.5-0.2-2.3c-0.2-3.2-0.2-6.5,0-10.2c0.2-4.8,1.6-9.5,2.9-13.9
			c0.6-1.9,1.1-3.8,1.6-5.7c1.6-6.4,3.2-12.9,5-19.2c0.6-2.2,1.3-4.4,1.9-6.6c0,0,0,0,0,0c1.2-4.2,2.4-8.3,3.7-12.5
			c0.3-1,1.3-1.7,2.7-1.7c0.1,0,0.3,0.1,0.4,0.1c1,0.4,1.7,1.3,1.6,2.3c-0.1,4.3-0.4,8.6-0.7,12.9c-0.1,2.3-0.3,4.6-0.4,6.9
			c-0.5,6.6-1,13.2-1.7,19.8c-0.2,2-0.3,3.9-0.4,5.9c-0.2,4.6-0.5,9.4-1.9,14c-1,3.6-2.1,6.8-3.4,9.7c-1,2.3-2,4.3-3,6.2l0.1,1.4
			c1.4,0.7,2.9,1.5,4.5,2.5c2.7,1.6,5.5,3.6,8.4,5.9c3.8,3,6.8,6.7,9.7,10.4c0.1,0.1,0.1,0.1,0.2,0.2c21.3,1.2,42.9,2.9,64.8,5.2
			c0.5-1.2,1-2.5,1.4-3.7c0,0,0,0,0,0c0.7-1.8,1.4-3.7,2.1-5.6c2.1-5.3,4.3-10.7,6.6-16c0.7-1.6,1.3-3.2,1.9-4.8
			c1.4-3.8,2.9-7.7,5.3-11.2c1.8-2.7,3.5-5,5.3-7.1c0.4-0.4,0.8-0.9,1.1-1.3c-3-0.8-5.2-2.3-5.2-3.4c0-1.3,2.7-3,6.3-3.6
			c-0.4-0.5-0.8-1-1.2-1.5c-1.7-2.2-3.3-4.6-4.9-7.4c-2.2-3.6-3.4-7.6-4.6-11.5c-0.5-1.6-1-3.3-1.6-4.9c-1.9-5.4-3.8-10.9-5.6-16.3
			c-0.6-1.9-1.2-3.8-1.8-5.7c0,0,0,0,0,0c-1.1-3.6-2.3-7.2-3.3-10.8c-0.3-0.9,0.1-1.9,1.2-2.5c0.1-0.1,0.2-0.1,0.4-0.1
			c0.9-0.2,1.8,0.1,2.3,0.9c2,3.2,3.8,6.5,5.7,9.7c1,1.7,2,3.5,3,5.2c2.8,5,5.6,10.1,8.3,15.1c0.8,1.5,1.7,3,2.6,4.5
			c2.1,3.5,4.2,7.1,5.4,11.1c1,3.1,1.7,5.9,2.2,8.6c0.1,0.7,0.2,1.4,0.3,2c1.7,0.4,3,1.9,3.1,3.8l0,0.9c0.8-0.1,1.6-0.1,2.5-0.1
			c2.8-0.1,5.7-0.1,8.9,0.2c4.2,0.3,8.2,1.6,12,2.8c1.6,0.5,3.3,1.1,4.9,1.5c5.5,1.5,11.1,3.1,16.6,4.8c1.9,0.6,3.8,1.2,5.7,1.8
			c0,0,0,0,0,0c3.5,1.1,7,2.2,10.4,3.4c37.6-18.7,65.7-30.4,77.6-30.4c9.8,0,35.5,10.1,71.7,27.1V0H0.1z"/>
		<path class="st0" d="M114.2,203.2c-2.9,3.1-6.7,5.3-10.9,6.3v12.1c14.6-3.3,29.4-6.6,44.2-9.7c-7.9-4.1-15.6-8.1-23.1-12
			c-2.3,2.2-5.3,3.5-8.6,3.5C115.2,203.3,114.7,203.2,114.2,203.2z"/>
		<path class="st1" d="M114.2,203.2c-2.9,3.1-6.7,5.3-10.9,6.3v12.1c14.6-3.3,29.4-6.6,44.2-9.7c-7.9-4.1-15.6-8.1-23.1-12
			c-2.3,2.2-5.3,3.5-8.6,3.5C115.2,203.3,114.7,203.2,114.2,203.2z"/>
		<path class="st0" d="M27.6,239.6v-5.7c-7.5-0.4-13.4-4.6-13.4-14c0-9.9,6.4-21.7,14.4-21.7S43,210,43,219.9
			c0,9.4-5.9,13.6-13.3,14v5.2c23.2-5.8,46.7-11.4,70.4-16.8v-12.4c-0.4,0-0.8,0.1-1.2,0.1c-11.6,0-21-9.6-21-21.5
			c0-2.7,0.5-5.2,1.4-7.6c-0.4-1.1-0.7-2.3-0.7-3.5c-31.7-14.8-56.3-24-68.1-24c-2.6,0-6.1,0.6-10.4,1.8v78.5
			c6.9,2.6,13.8,5.1,20.7,7.7C23,240.7,25.3,240.1,27.6,239.6z"/>
		<path class="st1" d="M27.6,239.6v-5.7c-7.5-0.4-13.4-4.6-13.4-14c0-9.9,6.4-21.7,14.4-21.7S43,210,43,219.9
			c0,9.4-5.9,13.6-13.3,14v5.2c23.2-5.8,46.7-11.4,70.4-16.8v-12.4c-0.4,0-0.8,0.1-1.2,0.1c-11.6,0-21-9.6-21-21.5
			c0-2.7,0.5-5.2,1.4-7.6c-0.4-1.1-0.7-2.3-0.7-3.5c-31.7-14.8-56.3-24-68.1-24c-2.6,0-6.1,0.6-10.4,1.8v78.5
			c6.9,2.6,13.8,5.1,20.7,7.7C23,240.7,25.3,240.1,27.6,239.6z"/>
		<path class="st2" d="M0.1,233.5v13c6.9-1.8,13.8-3.5,20.7-5.3C13.8,238.7,6.9,236.1,0.1,233.5z"/>
		<path class="st1" d="M0.1,233.5v13c6.9-1.8,13.8-3.5,20.7-5.3C13.8,238.7,6.9,236.1,0.1,233.5z"/>
		<path class="st2" d="M824.5,160.4c3.2,0.4,6.5,0.8,9.7,1.2l0.2-6.6C831.2,156.7,827.8,158.5,824.5,160.4z"/>
		<path class="st2" d="M905.6,117.4c0.1,0,0.2,0.1,0.3,0.1c0.9,0.3,1.5,1.2,1.4,2.4c0,0.1-0.1,0.2-0.1,0.4c-0.3,0.8-1.1,1.4-2.1,1.4
			c-2.3-0.1-4.6-0.3-6.9-0.5c-16,8.1-33.5,17.3-52,27.4l0.5,14.6c22.4,2.9,45,6.3,67.9,10.2v-0.3c-7.5-0.4-13.4-4.6-13.4-14
			c0-9.9,6.4-21.7,14.4-21.7s14.4,11.8,14.4,21.7c0,9.4-5.9,13.6-13.3,14v0.6c9.6,1.6,19.2,3.3,28.8,5.1v-4.3
			c-5.5-0.3-9.8-3.4-9.8-10.3c0-7.3,4.7-16,10.6-16c5.9,0,10.6,8.7,10.6,16c0,6.9-4.3,10-9.8,10.3v4.6c22.3,4.2,44.8,8.7,67.4,13.7
			v-3.3c-4.3-0.9-8-3.1-10.9-6.3c-0.5,0.1-1,0.1-1.6,0.1c-7,0-12.7-6-12.7-13.5c0-3.1,1-5.9,2.7-8.2c-0.1-0.7-0.2-1.4-0.2-2.2
			c0-6.7,5.1-12.2,11.5-12.2c0.2,0,0.4,0,0.6,0c2.4-5.4,7.6-9.1,13.6-9.1c4.8,0,9.1,2.4,11.8,6.1c5.6,0.8,10,5.9,10,12.1
			c0,1.5-0.3,3-0.8,4.4c0.9,2.4,1.4,4.9,1.4,7.6c0,11.9-9.4,21.5-21,21.5c-0.4,0-0.8,0-1.2-0.1v3.6c12.4,2.7,24.9,5.6,37.4,8.5
			v-87.8c-36.3-17-61.9-27.1-71.7-27.1C971.3,87.1,943.2,98.7,905.6,117.4z"/>
		<line class="st3" x1="376" y1="169.6" x2="365.7" y2="159.8"/>
		<path class="st4" d="M487,164.6c0.4-1,0.8-2,1.2-3.1c-14.5,1-29.1,2.1-43.7,3.5v5.1C458.8,168.1,472.9,166.3,487,164.6z"/>
		<path class="st4" d="M354.1,184.3c1.2-0.8,2.4-1.7,3.5-2.5c3.8-2.7,7.7-5.6,12.2-7.4c1.5-0.7,3-1.2,4.4-1.8
			c-14.3,1.8-28.5,3.7-42.8,5.8v6.6h-3.1v-6.1c-18.5,2.7-37.1,5.6-55.6,8.8v7.9h-2.1V188c-10.8,1.8-21.6,3.7-32.3,5.7l0.5,13.2
			C276.9,198.7,315.4,191.1,354.1,184.3z"/>
		<path class="st4" d="M500.1,160.8c-0.5,0.8-1,1.6-1.6,2.5c4.5-0.5,8.9-1,13.4-1.5l0.1-1.7C508,160.3,504.1,160.5,500.1,160.8z"/>
		<path class="st4" d="M395.1,171.8c1.4,0.7,2.9,1.5,4.5,2.5c1,0.6,2,1.3,3.1,2c12.9-2,25.9-3.9,38.8-5.7v-5.2
			c-15.4,1.4-30.8,3-46.3,4.8c0,0.1-0.1,0.2-0.1,0.2L395.1,171.8z"/>
		<path class="st4" d="M524.1,160.5c6.2-0.6,12.4-1.2,18.6-1.8c-6.2,0.2-12.4,0.5-18.6,0.8L524.1,160.5z"/>
		<path class="st4" d="M222.1,210.6l0.5-14c-13,2.4-25.9,5-38.8,7.6v4.8h-2.1v-4.3c-8,1.6-16,3.3-24,5v6.5H156v-6.2
			c-2.9,0.6-5.7,1.2-8.6,1.8c-14.8,3.2-29.5,6.4-44.2,9.7v3.5h-3.1v-2.8c-23.7,5.4-47.2,11-70.4,16.8v5.2h-2.1v-4.7
			c-2.3,0.6-4.6,1.1-6.8,1.7c-6.9,1.7-13.8,3.5-20.7,5.3v20.1C70.8,246.8,145.6,227.5,222.1,210.6z"/>
		<path class="st5" d="M1017.6,205h-3.1v-12.2c-22.6-4.9-45.1-9.5-67.4-13.7v3.1h-1.6v-3.4c-9.6-1.8-19.3-3.5-28.8-5.1v9.7h-2.1
			v-10.1c-22.8-3.9-45.5-7.3-67.9-10.2l2.1,59.2c0,0.7-0.1,1.3-0.4,1.9c0.1,0.1,0.2,0.1,0.3,0.2l27.7,28c0.5-1,1.1-2,1.7-3
			c0.5-0.7,1-1.5,1.4-2.2c1.3-2.5,2.8-5,4.3-7.5c0.6-0.9,1.1-1.7,1.6-2.6c1-1.6,2-3.2,3.1-4.9c0.3-0.4,1.1-0.7,2-0.7
			c0.1,0,0.2,0,0.4,0c1.2,0.1,1.8,0.5,1.8,0.9c-0.1,1.7-0.3,3.3-0.5,5c0,0,0,0,0,0c-0.1,0.9-0.2,1.7-0.3,2.6
			c-0.4,2.5-0.8,5.1-1.4,7.6c-0.2,0.7-0.2,1.5-0.3,2.3c-0.2,1.8-0.4,3.6-1.6,5.4c-0.8,1.4-1.8,2.6-2.9,3.8c-0.5,0.6-1.1,1-1.6,1.5
			l0.8,0.8c1.5,0.2,3.1,0.5,4.9,0.9c2.4,0.5,4.8,1.2,7.4,1.9c3.3,1,6,2.3,8.5,3.6c1.1,0.5,2.2,1.1,3.3,1.6c3.8,1.7,7.6,3.5,11.3,5.3
			c1.3,0.6,2.6,1.3,3.9,1.9c2.4,1.2,4.8,2.4,7.1,3.6c0.6,0.3,0.6,0.7,0,1.1c-0.1,0-0.1,0.1-0.2,0.1c-1,0.4-2,0.4-2.8,0.2
			c-3.1-0.9-6-1.8-9-2.7c0,0,0,0,0,0c-1.6-0.5-3.1-1-4.7-1.4c-4.5-1.4-9-2.8-13.4-4.3c-1.3-0.4-2.7-0.8-4-1.2c-3.2-1-6.6-2-9.2-3.3
			c-2.1-1-3.8-2-5.2-3c-0.4-0.3-0.9-0.6-1.2-0.9c-1.1,0-2.1-0.2-2.7-0.6c-0.7,0.1-1.4,0.2-2.1,0.4c-1.4,0.3-2.8,0.4-4.1,0.5
			c-2.5,0.5-5.1,0.9-8.1,1.3c-4.1,0.6-8.3,0.8-12.4,0.9c-1.7,0.1-3.4,0.1-5.2,0.2c-5.8,0.3-11.6,0.6-17.4,0.9c-2,0.1-4,0.2-6,0.2
			c0,0,0,0,0,0c-3.8,0.2-7.6,0.3-11.4,0.4c-1,0-1.8-0.2-2.1-0.7c0-0.1,0-0.1,0-0.2c0.1-0.4,0.7-0.8,1.6-0.9c3.7-0.6,7.3-1.1,11-1.6
			c2-0.3,3.9-0.5,5.9-0.8c5.6-0.7,11.3-1.5,17-2.2c1.7-0.2,3.4-0.4,5-0.7c4-0.6,8-1.1,12.2-1.3c3.3-0.1,6.2-0.2,8.9-0.1
			c0.9,0,1.8,0,2.7,0.1L833.3,228c-0.8-0.6-0.5-1.4,0.4-2c-1-0.9-1.7-2.2-1.6-3.7l2.2-60.8c-3.2-0.4-6.5-0.8-9.7-1.2
			c-3.2-0.4-6.5-0.7-9.7-1.1c-1.8,2.7-3.6,5.4-5.5,8.1c-0.5,0.8-1.5,1-2.4,0.8c-0.1,0-0.2,0-0.4-0.1c-1-0.7-1.4-1.7-1-2.6
			c0.8-2.3,1.7-4.6,2.6-6.9c-21.9-2.3-43.5-4-64.8-5.2c1.2,1.5,2.4,3,3.6,4.4c4.3,5,8.7,10,12.9,15.1c1.4,1.8,2.9,3.6,4.3,5.3
			c0,0,0,0,0,0c2.7,3.4,5.5,6.7,8.1,10.2c0.7,0.9,0.7,2.1-0.2,3.2c-0.1,0.1-0.2,0.2-0.4,0.2c-0.9,0.6-2,0.6-2.9,0
			c-3.5-2.6-6.8-5.3-10.2-8c-1.8-1.4-3.6-2.9-5.4-4.3c-5.1-4.1-10.2-8.4-15.2-12.7c-1.5-1.3-3-2.5-4.6-3.7
			c-3.7-2.9-7.5-5.8-10.4-9.6c-0.3-0.4-0.6-0.8-0.9-1.1c-0.3,0-0.5,0-0.8,0l4.1,116.1c0,0.9-0.2,1.8-0.6,2.6l28.3,28.6
			c0.5-1.1,1.2-2.1,1.9-3.2c0.5-0.8,1-1.6,1.5-2.4c1.4-2.6,3-5.3,4.6-8c0.6-0.9,1.2-1.9,1.8-2.8c1.1-1.7,2.2-3.5,3.3-5.2
			c0.3-0.4,1.2-0.7,2.1-0.8c0.1,0,0.3,0,0.4,0c1.3,0.1,1.9,0.5,1.9,0.9c-0.1,1.8-0.3,3.5-0.6,5.3c0,0,0,0,0,0
			c-0.1,0.9-0.2,1.9-0.3,2.8c-0.4,2.7-0.9,5.4-1.4,8.1c-0.2,0.8-0.2,1.6-0.3,2.4c-0.2,1.9-0.4,3.9-1.7,5.8c-0.9,1.5-1.9,2.8-3.1,4
			c-0.6,0.6-1.1,1.1-1.7,1.6l0.9,0.9c1.6,0.3,3.3,0.6,5.2,1c2.5,0.6,5.1,1.2,7.9,2.1c3.6,1,6.4,2.5,9.1,3.8c1.2,0.6,2.3,1.2,3.5,1.7
			c4.1,1.8,8.1,3.7,12.1,5.7c1.4,0.7,2.7,1.4,4.1,2c2.6,1.3,5.1,2.5,7.6,3.8c0.6,0.3,0.6,0.8,0.1,1.2c-0.1,0.1-0.1,0.1-0.2,0.2
			c-1,0.4-2.2,0.4-3,0.2c-3.3-0.9-6.4-1.9-9.6-2.9c0,0,0,0,0,0c-1.7-0.5-3.3-1-5-1.5c-4.8-1.5-9.6-3-14.3-4.6
			c-1.4-0.5-2.9-0.9-4.3-1.3c-3.4-1-7-2.1-9.8-3.5c-2.2-1.1-4-2.1-5.6-3.2c-0.5-0.3-0.9-0.6-1.3-0.9c-1.2,0-2.2-0.3-2.9-0.7
			c-0.7,0.1-1.5,0.2-2.3,0.4c-1.5,0.3-3,0.4-4.3,0.5c-2.6,0.5-5.5,1-8.6,1.4c-4.4,0.6-8.9,0.8-13.2,1c-1.8,0.1-3.7,0.1-5.5,0.2
			c-6.1,0.4-12.4,0.7-18.5,0.9c-2.1,0.1-4.3,0.2-6.4,0.3c0,0,0,0,0,0c-4,0.2-8.1,0.3-12.1,0.5c-1,0-1.9-0.2-2.2-0.8
			c0-0.1,0-0.1,0-0.2c0.1-0.4,0.7-0.8,1.7-1c3.9-0.6,7.8-1.1,11.8-1.7c2.1-0.3,4.2-0.6,6.3-0.9c6-0.8,12.1-1.6,18.1-2.3
			c1.8-0.2,3.6-0.5,5.4-0.7c4.2-0.6,8.6-1.2,13.1-1.4c3.5-0.2,6.6-0.2,9.6-0.1c1,0,1.9,0,2.8,0.1l-44-35c-0.7-0.6-0.6-1.3,0-1.8
			c-0.6-0.9-1-2-0.9-3.2l4.1-116.4c-3.4-0.1-6.8-0.2-10.2-0.2c-3.3,2-6.8,3.5-10.2,4.9c-1.8,0.8-3.6,1.5-5.4,2.3
			c-5.9,2.8-12,5.5-18.1,8.2c-2.2,0.9-4.3,1.8-6.4,2.7c-4,1.7-7.9,3.4-12,5c-1,0.4-2.1,0.1-2.8-0.8c-0.1-0.1-0.2-0.2-0.3-0.3
			c-0.5-1.3-0.2-2.5,0.7-3.1c3.5-2.6,7-5.1,10.5-7.6c0,0,0,0,0,0c1.9-1.3,3.7-2.6,5.6-4c3.5-2.5,7.1-4.9,10.7-7.3
			c-3.1,0-6.3,0.1-9.4,0.1c-7,0.1-14.1,0.3-21.2,0.6v7.8h-3.1v-7.7c-17.6,0.6-35.4,1.6-53.2,2.8v7.3h-2.1v-7.2
			c-13.5,0.9-27.1,2-40.7,3.3c-6.2,0.6-12.4,1.2-18.6,1.8l3,84.2c0,0.4,0,0.8-0.1,1.1l27.1,27.4c0.5-1,1.1-2,1.7-3
			c0.5-0.7,1-1.5,1.4-2.2c1.3-2.5,2.8-5,4.3-7.5c0.6-0.9,1.1-1.7,1.6-2.6c1-1.6,2-3.2,3.1-4.8c0.3-0.4,1.1-0.7,2-0.7
			c0.1,0,0.2,0,0.4,0c1.2,0.1,1.8,0.5,1.8,0.9c-0.1,1.7-0.3,3.3-0.5,5c0,0,0,0,0,0c-0.1,0.9-0.2,1.7-0.3,2.6
			c-0.4,2.5-0.8,5.1-1.4,7.6c-0.2,0.7-0.2,1.5-0.3,2.3c-0.2,1.8-0.4,3.6-1.6,5.4c-0.8,1.4-1.8,2.6-2.9,3.8c-0.5,0.6-1.1,1-1.6,1.5
			l0.8,0.8c1.5,0.2,3.1,0.5,4.9,0.9c2.4,0.5,4.8,1.2,7.4,1.9c3.3,1,6,2.3,8.5,3.6c1.1,0.5,2.2,1.1,3.3,1.6c3.8,1.7,7.6,3.5,11.3,5.3
			c1.3,0.6,2.6,1.3,3.9,1.9c2.4,1.2,4.8,2.4,7.1,3.6c0.6,0.3,0.6,0.7,0,1.1c-0.1,0-0.1,0.1-0.2,0.1c-1,0.4-2,0.4-2.8,0.2
			c-3.1-0.9-6-1.8-9-2.7c0,0,0,0,0,0c-1.6-0.5-3.1-1-4.7-1.4c-4.5-1.4-9-2.8-13.4-4.3c-1.3-0.4-2.7-0.8-4-1.2c-3.2-1-6.6-2-9.2-3.3
			c-2.1-1-3.8-2-5.2-3c-0.4-0.3-0.9-0.6-1.2-0.9c-1.1,0-2.1-0.2-2.7-0.6c-0.7,0.1-1.4,0.2-2.1,0.4c-1.4,0.3-2.8,0.4-4.1,0.5
			c-2.5,0.5-5.1,0.9-8.1,1.3c-4.1,0.6-8.3,0.8-12.4,0.9c-1.7,0.1-3.4,0.1-5.2,0.2c-5.8,0.3-11.6,0.6-17.4,0.9c-2,0.1-4,0.2-6,0.2
			c0,0,0,0,0,0c-3.8,0.2-7.6,0.3-11.4,0.4c-1,0-1.8-0.2-2.1-0.7c0-0.1,0-0.1,0-0.2c0.1-0.4,0.7-0.8,1.6-0.9c3.7-0.6,7.3-1.1,11-1.6
			c2-0.3,3.9-0.5,5.9-0.8c5.6-0.7,11.3-1.5,17-2.2c1.7-0.2,3.4-0.4,5-0.7c4-0.6,8-1.1,12.2-1.3c3.3-0.1,6.2-0.2,8.9-0.1
			c0.9,0,1.8,0,2.7,0.1L512,249.5c-1.9-0.8-3.1-2.6-3-4.8l3-82.9c-4.5,0.5-8.9,1-13.4,1.5c-1.3,2-2.5,4-3.8,6
			c-1.2,1.8-2.4,3.7-3.6,5.5c-2.2,3.4-4.5,6.8-6.9,10.2c-0.6,0.8-1.6,1.1-2.6,0.8c-0.1,0-0.3-0.1-0.4-0.1c-1.1-0.8-1.5-1.9-1.1-2.8
			c1.4-3.9,2.9-7.7,4.3-11.5c0,0,0,0,0,0c0.8-2,1.6-4,2.3-6.1c0.1-0.2,0.2-0.4,0.2-0.6c-14.1,1.7-28.3,3.5-42.4,5.5v6.2h-3.1v-5.7
			c-12.9,1.8-25.9,3.7-38.8,5.7c1.7,1.2,3.5,2.5,5.3,3.9c3.8,3,6.8,6.7,9.7,10.4c1.2,1.5,2.5,3.1,3.7,4.6c4.3,5,8.7,10,12.9,15.1
			c1.4,1.8,2.9,3.6,4.3,5.3c0,0,0,0,0,0c2.7,3.4,5.5,6.7,8.1,10.2c0.7,0.9,0.7,2.1-0.2,3.2c-0.1,0.1-0.2,0.2-0.4,0.2
			c-0.9,0.6-2,0.6-2.9,0c-3.5-2.6-6.8-5.3-10.2-8c-1.8-1.4-3.6-2.9-5.4-4.3c-5.1-4.1-10.2-8.4-15.2-12.7c-1.5-1.3-3-2.5-4.6-3.7
			c-3.7-2.9-7.5-5.8-10.4-9.6c-0.6-0.7-1.2-1.5-1.8-2.2l4.2,117.2c0,0.9-0.2,1.8-0.6,2.6l28.3,28.6c0.5-1.1,1.2-2.1,1.9-3.2
			c0.5-0.8,1-1.6,1.5-2.4c1.4-2.6,3-5.3,4.6-8c0.6-0.9,1.2-1.9,1.8-2.8c1.1-1.7,2.2-3.5,3.3-5.2c0.3-0.4,1.2-0.7,2.1-0.8
			c0.1,0,0.3,0,0.4,0c1.3,0.1,1.9,0.5,1.9,0.9c-0.1,1.8-0.3,3.5-0.6,5.3c0,0,0,0,0,0c-0.1,0.9-0.2,1.9-0.3,2.8
			c-0.4,2.7-0.9,5.4-1.4,8.1c-0.2,0.8-0.2,1.6-0.3,2.4c-0.2,1.9-0.4,3.9-1.7,5.8c-0.9,1.5-1.9,2.8-3.1,4c-0.6,0.6-1.1,1.1-1.7,1.6
			l0.7,0.7h618.4V202c-12.5-2.9-25-5.8-37.4-8.5V205z"/>
		<path class="st5" d="M422.8,345.8c1,0,1.9,0,2.8,0.1l-44-35c-0.7-0.6-0.6-1.3,0-1.8c-0.6-0.9-1-2-0.9-3.2l4.4-124.8
			c0,0-0.1,0.1-0.1,0.1c-2.3,2.2-4.9,4.3-8,6.4c-3.9,2.9-8.3,4.7-12.6,6.5c-1.8,0.8-3.6,1.5-5.4,2.3c-5.9,2.8-12,5.5-18.1,8.2
			c-2.2,0.9-4.3,1.8-6.4,2.7c-4,1.7-7.9,3.4-12,5c-1,0.4-2.1,0.1-2.8-0.8c-0.1-0.1-0.2-0.2-0.3-0.3c-0.5-1.3-0.2-2.5,0.7-3.1
			c3.5-2.6,7-5.1,10.5-7.6c0,0,0,0,0,0c1.9-1.3,3.7-2.6,5.6-4c5.4-3.8,10.9-7.5,16.4-11.1c0.4-0.3,0.9-0.6,1.3-0.9
			c-38.7,6.8-77.2,14.4-115.4,22.7l0.6,15.9c0,0.3,0,0.6-0.1,0.9c0.2,0.1,0.4,0.2,0.5,0.4l27.7,28c0.5-1,1.1-2,1.7-3
			c0.5-0.7,1-1.5,1.4-2.2c1.3-2.5,2.8-5,4.3-7.5c0.6-0.9,1.1-1.7,1.6-2.6c1-1.6,2-3.2,3.1-4.9c0.3-0.4,1.1-0.7,2-0.7
			c0.1,0,0.2,0,0.4,0c1.2,0.1,1.8,0.5,1.8,0.9c-0.1,1.7-0.3,3.3-0.5,5c0,0,0,0,0,0c-0.1,0.9-0.2,1.7-0.3,2.6
			c-0.4,2.5-0.8,5.1-1.4,7.6c-0.2,0.7-0.2,1.5-0.3,2.3c-0.2,1.8-0.4,3.6-1.6,5.4c-0.8,1.4-1.8,2.6-2.9,3.8c-0.5,0.6-1.1,1-1.6,1.5
			l0.8,0.8c1.5,0.2,3.1,0.5,4.9,0.9c2.4,0.5,4.8,1.2,7.4,1.9c3.3,1,6,2.3,8.5,3.6c1.1,0.5,2.2,1.1,3.3,1.6c3.8,1.7,7.6,3.5,11.3,5.3
			c1.3,0.6,2.6,1.3,3.9,1.9c2.4,1.2,4.8,2.4,7.1,3.6c0.6,0.3,0.6,0.7,0,1.1c-0.1,0-0.1,0.1-0.2,0.1c-1,0.4-2,0.4-2.8,0.2
			c-3.1-0.9-6-1.8-9-2.7c0,0,0,0,0,0c-1.6-0.5-3.1-1-4.7-1.4c-4.5-1.4-9-2.8-13.4-4.3c-1.3-0.4-2.7-0.8-4-1.2c-3.2-1-6.6-2-9.2-3.3
			c-2.1-1-3.8-2-5.2-3c-0.4-0.3-0.9-0.6-1.2-0.9c-1.1,0-2.1-0.2-2.7-0.6c-0.7,0.1-1.4,0.2-2.1,0.4c-1.4,0.3-2.8,0.4-4.1,0.5
			c-2.5,0.5-5.1,0.9-8.1,1.3c-4.1,0.6-8.3,0.8-12.4,0.9c-1.7,0.1-3.4,0.1-5.2,0.2c-5.8,0.3-11.6,0.6-17.4,0.9c-2,0.1-4,0.2-6,0.2
			c0,0,0,0,0,0c-3.8,0.2-7.6,0.3-11.4,0.4c-1,0-1.8-0.2-2.1-0.7c0-0.1,0-0.1,0-0.2c0.1-0.4,0.7-0.8,1.6-0.9c3.7-0.6,7.3-1.1,11-1.6
			c2-0.3,3.9-0.5,5.9-0.8c5.6-0.7,11.3-1.5,17-2.2c1.7-0.2,3.4-0.4,5-0.7c4-0.6,8-1.1,12.2-1.3c3.3-0.1,6.2-0.2,8.9-0.1
			c0.9,0,1.8,0,2.7,0.1l-41.2-32.8c-0.2-0.2-0.3-0.3-0.4-0.5c-1.4-0.9-2.4-2.5-2.3-4.3l0.4-12.3c-76.6,16.9-151.3,36.2-222.1,56.1
			v79.7h407.8c1.8-0.2,3.6-0.3,5.4-0.4C416.7,345.8,419.9,345.7,422.8,345.8z"/>
		<path class="st5" d="M234.5,227.8h-8c-0.9,0-1.7-0.3-2.5-0.7c0.1,0.2,0.2,0.3,0.4,0.5l41.2,32.8c-0.8,0-1.7,0-2.7-0.1
			c-2.7-0.1-5.7,0-8.9,0.1c-4.2,0.1-8.3,0.7-12.2,1.3c-1.7,0.2-3.4,0.5-5,0.7c-5.6,0.7-11.4,1.4-17,2.2c-2,0.3-4,0.5-5.9,0.8
			c-3.7,0.5-7.4,1-11,1.6c-0.9,0.1-1.5,0.5-1.6,0.9c0,0.1,0,0.1,0,0.2c0.3,0.5,1.1,0.8,2.1,0.7c3.8-0.1,7.6-0.3,11.4-0.4
			c0,0,0,0,0,0c2-0.1,4-0.2,6-0.2c5.8-0.3,11.6-0.6,17.4-0.9c1.7-0.1,3.4-0.2,5.2-0.2c4.1-0.1,8.3-0.3,12.4-0.9
			c3-0.4,5.6-0.8,8.1-1.3c1.3-0.1,2.6-0.2,4.1-0.5c0.7-0.1,1.4-0.3,2.1-0.4c0.7,0.4,1.6,0.6,2.7,0.6c0.4,0.3,0.8,0.6,1.2,0.9
			c1.5,1,3.2,1.9,5.2,3c2.6,1.3,6,2.3,9.2,3.3c1.4,0.4,2.7,0.8,4,1.2c4.4,1.5,8.9,2.9,13.4,4.3c1.6,0.5,3.1,1,4.7,1.4c0,0,0,0,0,0
			c3,0.9,5.9,1.8,9,2.7c0.8,0.2,1.8,0.2,2.8-0.2c0.1,0,0.1-0.1,0.2-0.1c0.5-0.3,0.5-0.8,0-1.1c-2.3-1.2-4.7-2.4-7.1-3.6
			c-1.3-0.6-2.6-1.3-3.9-1.9c-3.7-1.8-7.5-3.6-11.3-5.3c-1.1-0.5-2.2-1.1-3.3-1.6c-2.5-1.3-5.2-2.6-8.5-3.6c-2.6-0.8-5-1.4-7.4-1.9
			c-1.7-0.4-3.3-0.7-4.9-0.9l-0.8-0.8c0.5-0.5,1.1-1,1.6-1.5c1.1-1.2,2.1-2.4,2.9-3.8c1.2-1.8,1.4-3.6,1.6-5.4
			c0.1-0.8,0.2-1.5,0.3-2.3c0.5-2.5,1-5.1,1.4-7.6c0.1-0.9,0.2-1.7,0.3-2.6c0,0,0,0,0,0c0.2-1.7,0.4-3.3,0.5-5
			c0-0.4-0.6-0.8-1.8-0.9c-0.1,0-0.3,0-0.4,0c-0.9,0-1.7,0.3-2,0.7c-1.1,1.6-2.1,3.2-3.1,4.9c-0.5,0.9-1.1,1.7-1.6,2.6
			c-1.5,2.5-2.9,5-4.3,7.5c-0.4,0.7-0.9,1.5-1.4,2.2c-0.6,1-1.3,2-1.7,3l-27.7-28c-0.1-0.1-0.3-0.3-0.5-0.4
			C238.9,226,236.9,227.8,234.5,227.8z"/>
		<path class="st6" d="M234.5,227.8h-8c-0.9,0-1.7-0.3-2.5-0.7c0.1,0.2,0.2,0.3,0.4,0.5l41.2,32.8c-0.8,0-1.7,0-2.7-0.1
			c-2.7-0.1-5.7,0-8.9,0.1c-4.2,0.1-8.3,0.7-12.2,1.3c-1.7,0.2-3.4,0.5-5,0.7c-5.6,0.7-11.4,1.4-17,2.2c-2,0.3-4,0.5-5.9,0.8
			c-3.7,0.5-7.4,1-11,1.6c-0.9,0.1-1.5,0.5-1.6,0.9c0,0.1,0,0.1,0,0.2c0.3,0.5,1.1,0.8,2.1,0.7c3.8-0.1,7.6-0.3,11.4-0.4
			c0,0,0,0,0,0c2-0.1,4-0.2,6-0.2c5.8-0.3,11.6-0.6,17.4-0.9c1.7-0.1,3.4-0.2,5.2-0.2c4.1-0.1,8.3-0.3,12.4-0.9
			c3-0.4,5.6-0.8,8.1-1.3c1.3-0.1,2.6-0.2,4.1-0.5c0.7-0.1,1.4-0.3,2.1-0.4c0.7,0.4,1.6,0.6,2.7,0.6c0.4,0.3,0.8,0.6,1.2,0.9
			c1.5,1,3.2,1.9,5.2,3c2.6,1.3,6,2.3,9.2,3.3c1.4,0.4,2.7,0.8,4,1.2c4.4,1.5,8.9,2.9,13.4,4.3c1.6,0.5,3.1,1,4.7,1.4c0,0,0,0,0,0
			c3,0.9,5.9,1.8,9,2.7c0.8,0.2,1.8,0.2,2.8-0.2c0.1,0,0.1-0.1,0.2-0.1c0.5-0.3,0.5-0.8,0-1.1c-2.3-1.2-4.7-2.4-7.1-3.6
			c-1.3-0.6-2.6-1.3-3.9-1.9c-3.7-1.8-7.5-3.6-11.3-5.3c-1.1-0.5-2.2-1.1-3.3-1.6c-2.5-1.3-5.2-2.6-8.5-3.6c-2.6-0.8-5-1.4-7.4-1.9
			c-1.7-0.4-3.3-0.7-4.9-0.9l-0.8-0.8c0.5-0.5,1.1-1,1.6-1.5c1.1-1.2,2.1-2.4,2.9-3.8c1.2-1.8,1.4-3.6,1.6-5.4
			c0.1-0.8,0.2-1.5,0.3-2.3c0.5-2.5,1-5.1,1.4-7.6c0.1-0.9,0.2-1.7,0.3-2.6c0,0,0,0,0,0c0.2-1.7,0.4-3.3,0.5-5
			c0-0.4-0.6-0.8-1.8-0.9c-0.1,0-0.3,0-0.4,0c-0.9,0-1.7,0.3-2,0.7c-1.1,1.6-2.1,3.2-3.1,4.9c-0.5,0.9-1.1,1.7-1.6,2.6
			c-1.5,2.5-2.9,5-4.3,7.5c-0.4,0.7-0.9,1.5-1.4,2.2c-0.6,1-1.3,2-1.7,3l-27.7-28c-0.1-0.1-0.3-0.3-0.5-0.4
			C238.9,226,236.9,227.8,234.5,227.8z"/>
		<path class="st5" d="M437.6,344c1.2-1.2,2.2-2.6,3.1-4c1.3-1.9,1.5-3.9,1.7-5.8c0.1-0.8,0.2-1.6,0.3-2.4c0.6-2.7,1.1-5.4,1.4-8.1
			c0.1-0.9,0.2-1.9,0.3-2.8c0,0,0,0,0,0c0.2-1.8,0.5-3.5,0.6-5.3c0-0.4-0.6-0.8-1.9-0.9c-0.1,0-0.3,0-0.4,0c-1,0-1.9,0.3-2.1,0.8
			c-1.2,1.7-2.3,3.5-3.3,5.2c-0.6,0.9-1.2,1.8-1.8,2.8c-1.6,2.6-3.1,5.3-4.6,8c-0.4,0.8-0.9,1.6-1.5,2.4c-0.7,1-1.4,2.1-1.9,3.2
			l-28.3-28.6c-0.9,1.7-2.6,2.8-4.6,2.8h-8.8c-1.8,0-3.3-0.9-4.3-2.2c-0.6,0.6-0.7,1.3,0,1.8l44,35c-0.9,0-1.8-0.1-2.8-0.1
			c-2.9-0.1-6.1,0-9.6,0.1c-1.8,0.1-3.6,0.2-5.4,0.4h28.8l-0.7-0.7C436.5,345.1,437,344.6,437.6,344z"/>
		<path class="st6" d="M437.6,344c1.2-1.2,2.2-2.6,3.1-4c1.3-1.9,1.5-3.9,1.7-5.8c0.1-0.8,0.2-1.6,0.3-2.4c0.6-2.7,1.1-5.4,1.4-8.1
			c0.1-0.9,0.2-1.9,0.3-2.8c0,0,0,0,0,0c0.2-1.8,0.5-3.5,0.6-5.3c0-0.4-0.6-0.8-1.9-0.9c-0.1,0-0.3,0-0.4,0c-1,0-1.9,0.3-2.1,0.8
			c-1.2,1.7-2.3,3.5-3.3,5.2c-0.6,0.9-1.2,1.8-1.8,2.8c-1.6,2.6-3.1,5.3-4.6,8c-0.4,0.8-0.9,1.6-1.5,2.4c-0.7,1-1.4,2.1-1.9,3.2
			l-28.3-28.6c-0.9,1.7-2.6,2.8-4.6,2.8h-8.8c-1.8,0-3.3-0.9-4.3-2.2c-0.6,0.6-0.7,1.3,0,1.8l44,35c-0.9,0-1.8-0.1-2.8-0.1
			c-2.9-0.1-6.1,0-9.6,0.1c-1.8,0.1-3.6,0.2-5.4,0.4h28.8l-0.7-0.7C436.5,345.1,437,344.6,437.6,344z"/>
		<path class="st5" d="M844.2,227h-7.6c-1.1,0-2.1-0.4-2.9-1.1c-0.9,0.6-1.1,1.4-0.4,2l41.2,32.8c-0.8,0-1.7,0-2.7-0.1
			c-2.7-0.1-5.7,0-8.9,0.1c-4.2,0.1-8.3,0.7-12.2,1.3c-1.7,0.2-3.4,0.5-5,0.7c-5.6,0.7-11.4,1.4-17,2.2c-2,0.3-4,0.5-5.9,0.8
			c-3.7,0.5-7.4,1-11,1.6c-0.9,0.1-1.5,0.5-1.6,0.9c0,0.1,0,0.1,0,0.2c0.3,0.5,1.1,0.8,2.1,0.7c3.8-0.1,7.6-0.3,11.4-0.4
			c0,0,0,0,0,0c2-0.1,4-0.2,6-0.2c5.8-0.3,11.6-0.6,17.4-0.9c1.7-0.1,3.4-0.2,5.2-0.2c4.1-0.1,8.3-0.3,12.4-0.9
			c3-0.4,5.6-0.8,8.1-1.3c1.3-0.1,2.6-0.2,4.1-0.5c0.7-0.1,1.4-0.3,2.1-0.4c0.7,0.4,1.6,0.6,2.7,0.6c0.4,0.3,0.8,0.6,1.2,0.9
			c1.5,1,3.2,1.9,5.2,3c2.6,1.3,6,2.3,9.2,3.3c1.4,0.4,2.7,0.8,4,1.2c4.4,1.5,8.9,2.9,13.4,4.3c1.6,0.5,3.1,1,4.7,1.4c0,0,0,0,0,0
			c3,0.9,5.9,1.8,9,2.7c0.8,0.2,1.8,0.2,2.8-0.2c0.1,0,0.1-0.1,0.2-0.1c0.5-0.3,0.5-0.8,0-1.1c-2.3-1.2-4.7-2.4-7.1-3.6
			c-1.3-0.6-2.6-1.3-3.9-1.9c-3.7-1.8-7.5-3.6-11.3-5.3c-1.1-0.5-2.2-1.1-3.3-1.6c-2.5-1.3-5.2-2.6-8.5-3.6c-2.6-0.8-5-1.4-7.4-1.9
			c-1.7-0.4-3.3-0.7-4.9-0.9l-0.8-0.8c0.5-0.5,1.1-1,1.6-1.5c1.1-1.2,2.1-2.4,2.9-3.8c1.2-1.8,1.4-3.6,1.6-5.4
			c0.1-0.8,0.2-1.5,0.3-2.3c0.5-2.5,1-5.1,1.4-7.6c0.1-0.9,0.2-1.7,0.3-2.6c0,0,0,0,0,0c0.2-1.7,0.4-3.3,0.5-5
			c0-0.4-0.6-0.8-1.8-0.9c-0.1,0-0.3,0-0.4,0c-0.9,0-1.7,0.3-2,0.7c-1.1,1.6-2.1,3.2-3.1,4.9c-0.5,0.9-1.1,1.7-1.6,2.6
			c-1.5,2.5-2.9,5-4.3,7.5c-0.4,0.7-0.9,1.5-1.4,2.2c-0.6,1-1.3,2-1.7,3l-27.7-28c-0.1-0.1-0.2-0.2-0.3-0.2
			C847.7,225.9,846.1,227,844.2,227z"/>
		<path class="st6" d="M844.2,227h-7.6c-1.1,0-2.1-0.4-2.9-1.1c-0.9,0.6-1.1,1.4-0.4,2l41.2,32.8c-0.8,0-1.7,0-2.7-0.1
			c-2.7-0.1-5.7,0-8.9,0.1c-4.2,0.1-8.3,0.7-12.2,1.3c-1.7,0.2-3.4,0.5-5,0.7c-5.6,0.7-11.4,1.4-17,2.2c-2,0.3-4,0.5-5.9,0.8
			c-3.7,0.5-7.4,1-11,1.6c-0.9,0.1-1.5,0.5-1.6,0.9c0,0.1,0,0.1,0,0.2c0.3,0.5,1.1,0.8,2.1,0.7c3.8-0.1,7.6-0.3,11.4-0.4
			c0,0,0,0,0,0c2-0.1,4-0.2,6-0.2c5.8-0.3,11.6-0.6,17.4-0.9c1.7-0.1,3.4-0.2,5.2-0.2c4.1-0.1,8.3-0.3,12.4-0.9
			c3-0.4,5.6-0.8,8.1-1.3c1.3-0.1,2.6-0.2,4.1-0.5c0.7-0.1,1.4-0.3,2.1-0.4c0.7,0.4,1.6,0.6,2.7,0.6c0.4,0.3,0.8,0.6,1.2,0.9
			c1.5,1,3.2,1.9,5.2,3c2.6,1.3,6,2.3,9.2,3.3c1.4,0.4,2.7,0.8,4,1.2c4.4,1.5,8.9,2.9,13.4,4.3c1.6,0.5,3.1,1,4.7,1.4c0,0,0,0,0,0
			c3,0.9,5.9,1.8,9,2.7c0.8,0.2,1.8,0.2,2.8-0.2c0.1,0,0.1-0.1,0.2-0.1c0.5-0.3,0.5-0.8,0-1.1c-2.3-1.2-4.7-2.4-7.1-3.6
			c-1.3-0.6-2.6-1.3-3.9-1.9c-3.7-1.8-7.5-3.6-11.3-5.3c-1.1-0.5-2.2-1.1-3.3-1.6c-2.5-1.3-5.2-2.6-8.5-3.6c-2.6-0.8-5-1.4-7.4-1.9
			c-1.7-0.4-3.3-0.7-4.9-0.9l-0.8-0.8c0.5-0.5,1.1-1,1.6-1.5c1.1-1.2,2.1-2.4,2.9-3.8c1.2-1.8,1.4-3.6,1.6-5.4
			c0.1-0.8,0.2-1.5,0.3-2.3c0.5-2.5,1-5.1,1.4-7.6c0.1-0.9,0.2-1.7,0.3-2.6c0,0,0,0,0,0c0.2-1.7,0.4-3.3,0.5-5
			c0-0.4-0.6-0.8-1.8-0.9c-0.1,0-0.3,0-0.4,0c-0.9,0-1.7,0.3-2,0.7c-1.1,1.6-2.1,3.2-3.1,4.9c-0.5,0.9-1.1,1.7-1.6,2.6
			c-1.5,2.5-2.9,5-4.3,7.5c-0.4,0.7-0.9,1.5-1.4,2.2c-0.6,1-1.3,2-1.7,3l-27.7-28c-0.1-0.1-0.2-0.2-0.3-0.2
			C847.7,225.9,846.1,227,844.2,227z"/>
		<path class="st5" d="M720.1,273.9h-8.8c-1.8,0-3.3-0.9-4.3-2.2c-0.6,0.6-0.7,1.3,0,1.8l44,35c-0.9,0-1.8-0.1-2.8-0.1
			c-2.9-0.1-6.1,0-9.6,0.1c-4.5,0.2-8.9,0.8-13.1,1.4c-1.8,0.3-3.6,0.5-5.4,0.7c-6,0.7-12.1,1.5-18.1,2.3c-2.1,0.3-4.2,0.6-6.3,0.9
			c-3.9,0.5-7.9,1.1-11.8,1.7c-1,0.1-1.6,0.5-1.7,1c0,0.1,0,0.1,0,0.2c0.3,0.6,1.2,0.8,2.2,0.8c4.1-0.1,8.1-0.3,12.1-0.5
			c0,0,0,0,0,0c2.1-0.1,4.3-0.2,6.4-0.3c6.2-0.3,12.4-0.6,18.5-0.9c1.8-0.1,3.7-0.2,5.5-0.2c4.3-0.2,8.8-0.3,13.2-1
			c3.2-0.4,6-0.9,8.6-1.4c1.3-0.1,2.8-0.2,4.3-0.5c0.8-0.1,1.5-0.3,2.3-0.4c0.7,0.4,1.7,0.6,2.9,0.7c0.4,0.3,0.8,0.6,1.3,0.9
			c1.6,1,3.4,2.1,5.6,3.2c2.8,1.4,6.4,2.5,9.8,3.5c1.5,0.4,2.9,0.9,4.3,1.3c4.7,1.6,9.5,3.1,14.3,4.6c1.7,0.5,3.4,1,5,1.5
			c0,0,0,0,0,0c3.2,1,6.3,1.9,9.6,2.9c0.8,0.2,2,0.2,3-0.2c0.1,0,0.2-0.1,0.2-0.2c0.5-0.4,0.6-0.8-0.1-1.2c-2.5-1.3-5-2.6-7.6-3.8
			c-1.4-0.7-2.7-1.3-4.1-2c-3.9-1.9-8-3.8-12.1-5.7c-1.2-0.6-2.4-1.1-3.5-1.7c-2.7-1.4-5.5-2.8-9.1-3.8c-2.7-0.8-5.3-1.5-7.9-2.1
			c-1.9-0.4-3.6-0.7-5.2-1l-0.9-0.9c0.6-0.5,1.1-1,1.7-1.6c1.2-1.2,2.2-2.6,3.1-4c1.3-1.9,1.5-3.9,1.7-5.8c0.1-0.8,0.2-1.6,0.3-2.4
			c0.6-2.7,1.1-5.4,1.4-8.1c0.1-0.9,0.2-1.9,0.3-2.8c0,0,0,0,0,0c0.2-1.8,0.5-3.5,0.6-5.3c0-0.4-0.6-0.8-1.9-0.9c-0.1,0-0.3,0-0.4,0
			c-1,0-1.9,0.3-2.1,0.8c-1.2,1.7-2.3,3.5-3.3,5.2c-0.6,0.9-1.2,1.8-1.8,2.8c-1.6,2.6-3.1,5.3-4.6,8c-0.4,0.8-0.9,1.6-1.5,2.4
			c-0.7,1-1.4,2.1-1.9,3.2l-28.3-28.6C723.9,272.7,722.2,273.9,720.1,273.9z"/>
		<path class="st6" d="M720.1,273.9h-8.8c-1.8,0-3.3-0.9-4.3-2.2c-0.6,0.6-0.7,1.3,0,1.8l44,35c-0.9,0-1.8-0.1-2.8-0.1
			c-2.9-0.1-6.1,0-9.6,0.1c-4.5,0.2-8.9,0.8-13.1,1.4c-1.8,0.3-3.6,0.5-5.4,0.7c-6,0.7-12.1,1.5-18.1,2.3c-2.1,0.3-4.2,0.6-6.3,0.9
			c-3.9,0.5-7.9,1.1-11.8,1.7c-1,0.1-1.6,0.5-1.7,1c0,0.1,0,0.1,0,0.2c0.3,0.6,1.2,0.8,2.2,0.8c4.1-0.1,8.1-0.3,12.1-0.5
			c0,0,0,0,0,0c2.1-0.1,4.3-0.2,6.4-0.3c6.2-0.3,12.4-0.6,18.5-0.9c1.8-0.1,3.7-0.2,5.5-0.2c4.3-0.2,8.8-0.3,13.2-1
			c3.2-0.4,6-0.9,8.6-1.4c1.3-0.1,2.8-0.2,4.3-0.5c0.8-0.1,1.5-0.3,2.3-0.4c0.7,0.4,1.7,0.6,2.9,0.7c0.4,0.3,0.8,0.6,1.3,0.9
			c1.6,1,3.4,2.1,5.6,3.2c2.8,1.4,6.4,2.5,9.8,3.5c1.5,0.4,2.9,0.9,4.3,1.3c4.7,1.6,9.5,3.1,14.3,4.6c1.7,0.5,3.4,1,5,1.5
			c0,0,0,0,0,0c3.2,1,6.3,1.9,9.6,2.9c0.8,0.2,2,0.2,3-0.2c0.1,0,0.2-0.1,0.2-0.2c0.5-0.4,0.6-0.8-0.1-1.2c-2.5-1.3-5-2.6-7.6-3.8
			c-1.4-0.7-2.7-1.3-4.1-2c-3.9-1.9-8-3.8-12.1-5.7c-1.2-0.6-2.4-1.1-3.5-1.7c-2.7-1.4-5.5-2.8-9.1-3.8c-2.7-0.8-5.3-1.5-7.9-2.1
			c-1.9-0.4-3.6-0.7-5.2-1l-0.9-0.9c0.6-0.5,1.1-1,1.7-1.6c1.2-1.2,2.2-2.6,3.1-4c1.3-1.9,1.5-3.9,1.7-5.8c0.1-0.8,0.2-1.6,0.3-2.4
			c0.6-2.7,1.1-5.4,1.4-8.1c0.1-0.9,0.2-1.9,0.3-2.8c0,0,0,0,0,0c0.2-1.8,0.5-3.5,0.6-5.3c0-0.4-0.6-0.8-1.9-0.9c-0.1,0-0.3,0-0.4,0
			c-1,0-1.9,0.3-2.1,0.8c-1.2,1.7-2.3,3.5-3.3,5.2c-0.6,0.9-1.2,1.8-1.8,2.8c-1.6,2.6-3.1,5.3-4.6,8c-0.4,0.8-0.9,1.6-1.5,2.4
			c-0.7,1-1.4,2.1-1.9,3.2l-28.3-28.6C723.9,272.7,722.2,273.9,720.1,273.9z"/>
		<path class="st7" d="M100.2,209.8v12.4v2.8h3.1v-3.5v-12.1C102.3,209.6,101.2,209.8,100.2,209.8z"/>
		<path class="st5" d="M115.4,174.9c0.4,0.5,0.7,1,1.1,1.5c3.8,0.2,7.2,2.2,9.4,5.2c0.1-0.7,0.2-1.4,0.2-2.2
			c0-6.7-5.1-12.2-11.5-12.2c-0.2,0-0.4,0-0.6,0c0.9,2.1,1.5,4.4,1.5,6.9C115.4,174.5,115.4,174.7,115.4,174.9z"/>
		<path class="st5" d="M85.5,171.8c0.4-2.8,1.5-5.4,3.1-7.5c-5.6,0.8-10,5.9-10,12.1c0,0.3,0,0.6,0,0.9c0.1,1.2,0.3,2.4,0.7,3.5
			C80.6,177.2,82.7,174.2,85.5,171.8z"/>
		<path class="st5" d="M99,166.8c6.7,0,12.6,3.2,16.4,8.1c0-0.2,0-0.5,0-0.7c0-2.5-0.5-4.8-1.5-6.9c-2.4-5.4-7.6-9.1-13.6-9.1
			c-4.8,0-9.1,2.4-11.8,6.1c-1.6,2.1-2.7,4.7-3.1,7.5C89.1,168.7,93.8,166.8,99,166.8z"/>
		<path class="st4" d="M114.2,203.2c-6.3-0.8-11.1-6.5-11.1-13.4c0-7.4,5.7-13.5,12.7-13.5c0.2,0,0.5,0,0.7,0
			c-0.3-0.5-0.7-1-1.1-1.5c-3.9-4.9-9.8-8.1-16.4-8.1c-5.1,0-9.9,1.9-13.5,5c-2.7,2.4-4.9,5.4-6.2,8.9c-0.9,2.4-1.4,4.9-1.4,7.6
			c0,11.9,9.4,21.5,21,21.5c0.4,0,0.8,0,1.2-0.1c1.1-0.1,2.1-0.2,3.1-0.4C107.5,208.5,111.3,206.3,114.2,203.2z"/>
		<path class="st4" d="M116.5,176.4c-0.2,0-0.5,0-0.7,0c-7,0-12.7,6-12.7,13.5c0,6.9,4.9,12.5,11.1,13.4c0.5,0.1,1,0.1,1.6,0.1
			c3.3,0,6.3-1.3,8.6-3.5c2.5-2.5,4.1-6,4.1-9.9c0-3.1-1-5.9-2.7-8.2C123.6,178.6,120.3,176.6,116.5,176.4z"/>
		<path class="st7" d="M331.4,185v-6.6v-8.6c-1.1-0.1-2.1-0.2-3.1-0.4v9.4v6.1H331.4z"/>
		<path class="st5" d="M315.1,136.5c0.3-0.5,0.7-1,1.1-1.5c0-0.2,0-0.5,0-0.7c0-2.5,0.5-4.8,1.5-6.9c-0.2,0-0.4,0-0.6,0
			c-6.3,0-11.5,5.4-11.5,12.2c0,0.7,0.1,1.5,0.2,2.2C308,138.7,311.3,136.7,315.1,136.5z"/>
		<path class="st5" d="M352.3,140.8c0.5-1.4,0.8-2.8,0.8-4.4c0-6.2-4.4-11.3-10-12.1c1.6,2.1,2.7,4.7,3.1,7.5
			C348.9,134.3,351,137.3,352.3,140.8z"/>
		<path class="st5" d="M316.2,135c3.9-4.9,9.8-8.1,16.4-8.1c5.1,0,9.9,1.9,13.5,5c-0.4-2.8-1.5-5.4-3.1-7.5c-2.8-3.7-7-6.1-11.8-6.1
			c-6,0-11.2,3.7-13.6,9.1c-0.9,2.1-1.5,4.4-1.5,6.9C316.2,134.5,316.2,134.7,316.2,135z"/>
		<path class="st4" d="M332.6,170c11.6,0,21-9.6,21-21.5c0-2.7-0.5-5.2-1.4-7.6c-1.3-3.5-3.4-6.5-6.2-8.9c-3.7-3.1-8.4-5-13.5-5
			c-6.7,0-12.6,3.2-16.4,8.1c-0.4,0.5-0.7,1-1.1,1.5c0.2,0,0.5,0,0.7,0c7,0,12.7,6,12.7,13.5c0,6.9-4.9,12.5-11.1,13.4
			c2.9,3.1,6.7,5.3,10.9,6.3c1,0.2,2.1,0.3,3.1,0.4C331.8,169.9,332.2,170,332.6,170z"/>
		<path class="st4" d="M328.5,149.9c0-7.4-5.7-13.5-12.7-13.5c-0.2,0-0.5,0-0.7,0c-3.8,0.2-7.2,2.2-9.4,5.2
			c-1.7,2.3-2.7,5.1-2.7,8.2c0,7.4,5.7,13.5,12.7,13.5c0.5,0,1.1,0,1.6-0.1C323.7,162.4,328.5,156.8,328.5,149.9z"/>
		<path class="st7" d="M638.7,160.2h3.1v-7.8v-7.4c-1.1-0.1-2.1-0.2-3.1-0.4v7.9V160.2z"/>
		<path class="st5" d="M625.5,111.7c0.3-0.5,0.7-1,1.1-1.5c0-0.2,0-0.5,0-0.7c0-2.5,0.5-4.8,1.5-6.9c-0.2,0-0.4,0-0.6,0
			c-6.3,0-11.5,5.4-11.5,12.2c0,0.7,0.1,1.5,0.2,2.2C618.4,113.9,621.7,111.9,625.5,111.7z"/>
		<path class="st5" d="M662.7,116c0.5-1.4,0.8-2.8,0.8-4.4c0-6.2-4.4-11.3-10-12.1c1.6,2.1,2.7,4.7,3.1,7.5
			C659.3,109.5,661.4,112.5,662.7,116z"/>
		<path class="st5" d="M626.6,110.2c3.9-4.9,9.8-8.1,16.4-8.1c5.1,0,9.9,1.9,13.5,5c-0.4-2.8-1.5-5.4-3.1-7.5
			c-2.8-3.7-7-6.1-11.8-6.1c-6,0-11.2,3.7-13.6,9.1c-0.9,2.1-1.5,4.4-1.5,6.9C626.6,109.7,626.6,109.9,626.6,110.2z"/>
		<path class="st4" d="M643,145.2c11.6,0,21-9.6,21-21.5c0-2.7-0.5-5.2-1.4-7.6c-1.3-3.5-3.4-6.5-6.2-8.9c-3.7-3.1-8.4-5-13.5-5
			c-6.7,0-12.6,3.2-16.4,8.1c-0.4,0.5-0.7,1-1.1,1.5c0.2,0,0.5,0,0.7,0c7,0,12.7,6,12.7,13.5c0,6.9-4.9,12.5-11.1,13.4
			c2.9,3.1,6.7,5.3,10.9,6.3c1,0.2,2.1,0.3,3.1,0.4C642.2,145.1,642.6,145.2,643,145.2z"/>
		<path class="st4" d="M638.9,125.1c0-7.4-5.7-13.5-12.7-13.5c-0.2,0-0.5,0-0.7,0c-3.8,0.2-7.2,2.2-9.4,5.2
			c-1.7,2.3-2.7,5.1-2.7,8.2c0,7.4,5.7,13.5,12.7,13.5c0.5,0,1.1,0,1.6-0.1C634.1,137.6,638.9,132,638.9,125.1z"/>
		<path class="st7" d="M441.5,176.2h3.1v-6.2V165v-3.9c-1.1-0.1-2.1-0.2-3.1-0.4v4.6v5.2V176.2z"/>
		<path class="st5" d="M428.3,127.6c0.3-0.5,0.7-1,1.1-1.5c0-0.2,0-0.5,0-0.7c0-2.5,0.5-4.8,1.5-6.9c-0.2,0-0.4,0-0.6,0
			c-6.3,0-11.5,5.4-11.5,12.2c0,0.7,0.1,1.5,0.2,2.2C421.2,129.8,424.5,127.9,428.3,127.6z"/>
		<path class="st5" d="M465.5,132c0.5-1.4,0.8-2.8,0.8-4.4c0-6.2-4.4-11.3-10-12.1c1.6,2.1,2.7,4.7,3.1,7.5
			C462.1,125.4,464.2,128.5,465.5,132z"/>
		<path class="st5" d="M429.4,126.2c3.9-4.9,9.8-8.1,16.4-8.1c5.1,0,9.9,1.9,13.5,5c-0.4-2.8-1.5-5.4-3.1-7.5
			c-2.8-3.7-7-6.1-11.8-6.1c-6,0-11.2,3.7-13.6,9.1c-0.9,2.1-1.5,4.4-1.5,6.9C429.3,125.7,429.4,125.9,429.4,126.2z"/>
		<path class="st4" d="M445.8,161.1c11.6,0,21-9.6,21-21.5c0-2.7-0.5-5.2-1.4-7.6c-1.3-3.5-3.4-6.5-6.2-8.9c-3.7-3.1-8.4-5-13.5-5
			c-6.7,0-12.6,3.2-16.4,8.1c-0.4,0.5-0.7,1-1.1,1.5c0.2,0,0.5,0,0.7,0c7,0,12.7,6,12.7,13.5c0,6.9-4.9,12.5-11.1,13.4
			c2.9,3.1,6.7,5.3,10.9,6.3c1,0.2,2.1,0.3,3.1,0.4C445,161.1,445.4,161.1,445.8,161.1z"/>
		<path class="st4" d="M441.7,141.1c0-7.4-5.7-13.5-12.7-13.5c-0.2,0-0.5,0-0.7,0c-3.8,0.2-7.2,2.2-9.4,5.2
			c-1.7,2.3-2.7,5.1-2.7,8.2c0,7.4,5.7,13.5,12.7,13.5c0.5,0,1.1,0,1.6-0.1C436.9,153.6,441.7,147.9,441.7,141.1z"/>
		<path class="st7" d="M583.4,152.3v3.2v7.2h2.1v-7.3v-3.1c-0.4,0-0.7,0-1.1,0C584.1,152.3,583.7,152.3,583.4,152.3z"/>
		<path class="st5" d="M577.6,126.8c3.9,1.2,7.8,2.4,11.7,3.8c1,0.3,1.6,1.3,1.5,2.6c0,0.1-0.1,0.3-0.2,0.4
			c-0.4,0.9-1.3,1.5-2.3,1.5c-4.1-0.2-8.2-0.6-12.2-1c-1.9-0.2-3.8-0.3-5.8-0.5c-0.3,1.5-0.4,3.1-0.4,4.6c0,9.4,5.9,13.7,13.4,14
			c0.3,0,0.7,0,1,0c0.4,0,0.7,0,1.1,0c7.4-0.4,13.3-4.6,13.3-14c0-9.9-6.4-21.7-14.4-21.7c-4.5,0-8.5,3.8-11.2,8.9
			C574.7,125.9,576.2,126.4,577.6,126.8C577.6,126.8,577.6,126.8,577.6,126.8z"/>
		<path class="st7" d="M183.9,208.9v-4.8v-5.6c-0.4,0-0.7,0-1.1,0c-0.3,0-0.7,0-1,0v6v4.3H183.9z"/>
		<path class="st5" d="M183.9,198.6c7.4-0.4,13.3-4.6,13.3-14c0-9.9-6.4-21.7-14.4-21.7c-8,0-14.4,11.8-14.4,21.7
			c0,9.4,5.9,13.7,13.4,14c0.3,0,0.7,0,1,0C183.1,198.6,183.5,198.6,183.9,198.6z"/>
		<path class="st7" d="M28.6,233.9c-0.3,0-0.7,0-1,0v5.7v4.7h2.1V239v-5.2C29.4,233.9,29,233.9,28.6,233.9z"/>
		<path class="st5" d="M29.7,233.9c7.4-0.4,13.3-4.6,13.3-14c0-9.9-6.4-21.7-14.4-21.7S14.2,210,14.2,219.9c0,9.4,5.9,13.7,13.4,14
			c0.3,0,0.7,0,1,0C29,233.9,29.4,233.9,29.7,233.9z"/>
		<path class="st7" d="M157.7,216.1v-6.5v-1.7c-0.3,0-0.6,0-0.9,0c-0.3,0-0.5,0-0.8,0v2.1v6.2H157.7z"/>
		<path class="st5" d="M157.7,207.9c5.9-0.3,10.6-3.7,10.6-11.1c0-7.9-5.1-17.3-11.5-17.3c-6.3,0-11.5,9.4-11.5,17.3
			c0,7.5,4.7,10.9,10.6,11.1c0.3,0,0.5,0,0.8,0C157.1,207.9,157.4,207.9,157.7,207.9z"/>
		<path class="st7" d="M272.7,195.6v-7.9v-2.5c-0.4,0-0.7,0-1.1,0c-0.3,0-0.7,0-1,0v2.8v7.5H272.7z"/>
		<path class="st5" d="M272.7,185.2c7.4-0.4,13.3-4.6,13.3-14c0-9.9-6.4-21.7-14.4-21.7s-14.4,11.8-14.4,21.7
			c0,9.4,5.9,13.7,13.4,14c0.3,0,0.7,0,1,0C272,185.2,272.3,185.2,272.7,185.2z"/>
		<path class="st7" d="M916.6,183.4v-9.7v-0.6c-0.4,0-0.7,0-1.1,0c-0.3,0-0.7,0-1,0v0.3v10.1H916.6z"/>
		<path class="st4" d="M916.6,173.1c7.4-0.4,13.3-4.6,13.3-14c0-9.9-6.4-21.7-14.4-21.7s-14.4,11.8-14.4,21.7
			c0,9.4,5.9,13.7,13.4,14c0.3,0,0.7,0,1,0C915.9,173.1,916.3,173.1,916.6,173.1z"/>
		<path class="st7" d="M1017.6,205v-11.6v-3.6c-1.1-0.1-2.1-0.2-3.1-0.4v3.3V205H1017.6z"/>
		<path class="st5" d="M1001.3,156.5c0.3-0.5,0.7-1,1.1-1.5c0-0.2,0-0.5,0-0.7c0-2.5,0.5-4.8,1.5-6.9c-0.2,0-0.4,0-0.6,0
			c-6.3,0-11.5,5.4-11.5,12.2c0,0.7,0.1,1.5,0.2,2.2C994.1,158.7,997.4,156.7,1001.3,156.5z"/>
		<path class="st5" d="M1038.4,160.8c0.5-1.4,0.8-2.8,0.8-4.4c0-6.2-4.4-11.3-10-12.1c1.6,2.1,2.7,4.7,3.1,7.5
			C1035,154.3,1037.1,157.3,1038.4,160.8z"/>
		<path class="st5" d="M1002.3,155c3.9-4.9,9.8-8.1,16.4-8.1c5.1,0,9.9,1.9,13.5,5c-0.4-2.8-1.5-5.4-3.1-7.5
			c-2.8-3.7-7-6.1-11.8-6.1c-6,0-11.2,3.7-13.6,9.1c-0.9,2.1-1.5,4.4-1.5,6.9C1002.3,154.5,1002.3,154.7,1002.3,155z"/>
		<path class="st4" d="M1018.8,190c11.6,0,21-9.6,21-21.5c0-2.7-0.5-5.2-1.4-7.6c-1.3-3.5-3.4-6.5-6.2-8.9c-3.7-3.1-8.4-5-13.5-5
			c-6.7,0-12.6,3.2-16.4,8.1c-0.4,0.5-0.7,1-1.1,1.5c0.2,0,0.5,0,0.7,0c7,0,12.7,6,12.7,13.5c0,6.9-4.9,12.5-11.1,13.4
			c2.9,3.1,6.7,5.3,10.9,6.3c1,0.2,2.1,0.3,3.1,0.4C1018,189.9,1018.3,190,1018.8,190z"/>
		<path class="st4" d="M1014.6,169.9c0-7.4-5.7-13.5-12.7-13.5c-0.2,0-0.5,0-0.7,0c-3.8,0.2-7.2,2.2-9.4,5.2
			c-1.7,2.3-2.7,5.1-2.7,8.2c0,7.4,5.7,13.5,12.7,13.5c0.5,0,1.1,0,1.6-0.1C1009.8,182.4,1014.6,176.8,1014.6,169.9z"/>
		<path class="st7" d="M947,182.2v-3.1v-4.6c-0.3,0-0.5,0-0.8,0c-0.3,0-0.5,0-0.8,0v4.3v3.4H947z"/>
		<path class="st5" d="M947,174.5c5.5-0.3,9.8-3.4,9.8-10.3c0-7.3-4.7-16-10.6-16c-5.9,0-10.6,8.7-10.6,16c0,7,4.3,10.1,9.8,10.3
			c0.3,0,0.5,0,0.8,0C946.5,174.6,946.7,174.6,947,174.5z"/>
		<path class="st8" d="M386.9,164.6c-0.6,0.6-1,1.4-1.2,2.3c0.5-0.1,1-0.1,1.4-0.1C387.1,166.1,387,165.4,386.9,164.6z"/>
		<path class="st8" d="M395.1,170.4c-0.2,0.4-0.4,0.7-0.6,1.1c0.2,0.1,0.5,0.2,0.7,0.3L395.1,170.4z"/>
		<path class="st8" d="M391.5,182.5c-1.1-1.8-2-3.4-2.8-5c-1.1,1.1-2.2,2.3-3.5,3.5l-4.4,124.8c0,1.2,0.3,2.3,0.9,3.2
			c0.9,1.3,2.5,2.2,4.3,2.2h8.8c2,0,3.8-1.2,4.6-2.8c0.4-0.8,0.6-1.7,0.6-2.6l-4.2-117.2C394.1,186.5,392.7,184.5,391.5,182.5z"/>
		<path class="st8" d="M401.8,128.9c-0.8,7.4-0.6,15-2.6,22.2c-1,3.6-2.1,7.2-3.5,10.7c-1.1,2.7-2.3,5.4-3.8,8
			c0.2,0.2,0.4,0.4,0.5,0.6c0,0,0.1,0.1,0.1,0.2c0.6,0.3,1.3,0.6,2,0.9c0.2-0.3,0.4-0.7,0.6-1.1c0-0.1,0.1-0.2,0.1-0.2
			c1-1.7,1.9-3.7,2.9-5.9c1.3-2.9,2.4-6.1,3.4-9.7c1.4-4.6,1.6-9.4,1.9-14c0.1-2,0.2-3.9,0.4-5.9c0.6-6.5,1.2-13.2,1.7-19.8
			c0.1-2.3,0.3-4.6,0.4-6.9c0.3-4.3,0.5-8.6,0.7-12.9c0-1.1-0.6-2-1.6-2.3c-0.3,4.7-0.7,9.3-1,14
			C403.3,114.1,402.6,121.5,401.8,128.9z"/>
		<path class="st8" d="M388.3,166.7c-0.3-2.1-0.4-4.2-0.5-6.3c-0.2-3.8-0.1-7.5,0.2-11.3c0.4-7.5,3.1-14.5,4.9-21.8
			c1.6-6.9,3.4-13.8,5.2-20.7c-0.6,2.2-1.2,4.4-1.9,6.6c-1.8,6.4-3.4,12.8-5,19.2c-0.5,1.9-1,3.8-1.6,5.7c-1.3,4.5-2.7,9.1-2.9,13.9
			c-0.2,3.7-0.2,7,0,10.2c0.1,0.8,0.1,1.6,0.2,2.3c0.1,0.7,0.2,1.4,0.2,2.1C387.6,166.7,388,166.7,388.3,166.7z"/>
		<path class="st9" d="M388,149.1c-0.3,3.7-0.4,7.5-0.2,11.3c0.1,2.1,0.2,4.2,0.5,6.3c1.8,0.1,3.1,0.7,3.5,3c0,0,0,0,0,0
			c1.5-2.6,2.7-5.3,3.8-8c1.4-3.5,2.6-7.1,3.5-10.7c2.1-7.2,1.9-14.8,2.6-22.2c0.8-7.4,1.5-14.8,2.1-22.3c0.3-4.7,0.7-9.3,1-14
			c-0.1,0-0.3-0.1-0.4-0.1c-1.4-0.1-2.4,0.6-2.7,1.7c-1.3,4.2-2.5,8.3-3.7,12.5c0,0,0,0,0,0c-1.8,6.9-3.5,13.8-5.2,20.7
			C391.2,134.6,388.5,141.7,388,149.1z"/>
		<path class="st8" d="M357.6,181.8c-1.2,0.9-2.4,1.7-3.5,2.5c-0.4,0.3-0.9,0.6-1.3,0.9c-5.5,3.6-11,7.4-16.4,11.1
			c-1.9,1.3-3.7,2.7-5.6,4c5.9-4,11.8-7.9,17.8-11.8c6.3-4,12-9,18.9-11.9c2.7-1.2,5.5-2.3,8.4-3.3c-0.4-0.3-0.7-0.6-0.9-1
			c-0.2,0.1-0.4,0.2-0.7,0.2c-1.4,0.5-2.9,1.1-4.4,1.8C365.3,176.2,361.4,179.1,357.6,181.8z"/>
		<path class="st8" d="M388.7,177.5c-0.2-0.4-0.4-0.7-0.5-1.1c-0.8,0-1.6-0.1-2.6-0.2c-1.2,1.2-2.4,2.4-3.7,3.5
			c-2.8,2.5-5.8,4.8-8.9,6.9c-6.1,4.4-13.3,6.7-20,9.9c-6.7,3.2-13.5,6.3-20.3,9.4c-4.3,1.9-8.6,3.7-12.9,5.6
			c0.7,0.8,1.8,1.1,2.8,0.8c4-1.6,8-3.3,12-5c2.1-0.9,4.2-1.8,6.4-2.7c6-2.6,12.1-5.4,18.1-8.2c1.8-0.8,3.6-1.6,5.4-2.3
			c4.3-1.8,8.7-3.6,12.6-6.5c3.1-2.2,5.7-4.3,8-6.4c0,0,0.1-0.1,0.1-0.1C386.5,179.8,387.7,178.6,388.7,177.5z"/>
		<path class="st8" d="M392.5,170.6c0-0.1-0.1-0.1-0.1-0.2c-0.1-0.2-0.3-0.4-0.5-0.6c0,0,0,0,0,0c0,0.2,0.1,0.4,0.1,0.6
			C392.1,170.4,392.3,170.5,392.5,170.6z"/>
		<path class="st9" d="M353,196.4c6.7-3.2,13.9-5.5,20-9.9c3.1-2.1,6.1-4.4,8.9-6.9c1.3-1.1,2.5-2.3,3.7-3.5
			c-0.7-0.1-1.5-0.2-2.3-0.3c-3.2-0.3-5.9-1.4-7.4-2.6c-2.9,1-5.6,2.1-8.4,3.3c-6.9,2.9-12.7,7.8-18.9,11.9
			c-6,3.9-11.9,7.8-17.8,11.8c0,0,0,0,0,0c-3.5,2.5-7.1,5-10.5,7.6c-0.9,0.7-1.2,1.8-0.7,3.1c0.1,0.1,0.2,0.2,0.3,0.3
			c4.3-1.9,8.6-3.8,12.9-5.6C339.5,202.8,346.3,199.6,353,196.4z"/>
		<path class="st8" d="M395.1,171.8c-0.2-0.1-0.5-0.2-0.7-0.3c-0.7-0.3-1.3-0.6-2-0.9c-0.2-0.1-0.4-0.1-0.5-0.2
			c0,0.4,0.1,0.8,0.1,1.2c0,0,0,0,0,0.1c3.1,1.3,5.9,2.9,8.6,4.7c3.2,2,6.2,4.3,9.1,6.6c5.9,4.6,10.1,10.9,15,16.5
			c4.7,5.3,9.4,10.7,14,16.1c-1.4-1.8-2.9-3.5-4.3-5.3c-4.2-5.1-8.5-10.2-12.9-15.1c-1.3-1.5-2.5-3-3.7-4.6
			c-2.9-3.6-5.9-7.4-9.7-10.4c-1.8-1.5-3.6-2.7-5.3-3.9c-1-0.7-2-1.4-3.1-2C398.1,173.3,396.6,172.5,395.1,171.8z"/>
		<path class="st8" d="M418.3,205.8c-5.6-4.9-11.9-9.1-16.6-14.9c-2.4-2.9-4.7-5.8-6.7-9c-1.4-2.1-2.7-4.3-3.9-6.7
			c-0.7,0.8-1.7,1.1-2.9,1.1c0.2,0.4,0.3,0.7,0.5,1.1c0.8,1.6,1.7,3.2,2.8,5c1.2,2,2.6,4,4.2,6.1c0.6,0.7,1.1,1.5,1.8,2.2
			c3,3.8,6.8,6.7,10.4,9.6c1.6,1.2,3.1,2.4,4.6,3.7c5,4.3,10.1,8.6,15.2,12.7c1.8,1.4,3.6,2.9,5.4,4.3c3.4,2.7,6.7,5.4,10.2,8
			c0.9,0.6,2,0.6,2.9,0c-3.6-2.9-7.3-5.9-10.9-8.8C429.6,215.6,423.9,210.7,418.3,205.8z"/>
		<path class="st9" d="M409.7,182.9c-2.9-2.4-5.9-4.6-9.1-6.6c-2.7-1.7-5.5-3.3-8.6-4.7c0,1.8-0.3,2.9-0.9,3.7
			c1.2,2.3,2.5,4.5,3.9,6.7c2.1,3.2,4.3,6.2,6.7,9c4.7,5.8,11,10,16.6,14.9c5.6,4.9,11.3,9.7,17,14.5c3.6,2.9,7.3,5.9,10.9,8.8
			c0.1-0.1,0.3-0.1,0.4-0.2c0.9-1.1,0.9-2.3,0.2-3.2c-2.6-3.5-5.4-6.8-8.1-10.2c0,0,0,0,0,0c-4.6-5.4-9.3-10.8-14-16.1
			C419.8,193.8,415.5,187.5,409.7,182.9z"/>
		<path class="st8" d="M375.8,173.4c1.5,1.2,4.3,2.3,7.4,2.6c0.8,0.1,1.6,0.2,2.3,0.3c0.9,0.1,1.8,0.2,2.6,0.2
			c1.2,0,2.2-0.3,2.9-1.1c0.6-0.7,0.9-1.9,0.9-3.7c0,0,0,0,0-0.1c0-0.4,0-0.8-0.1-1.2c0-0.2-0.1-0.4-0.1-0.6c-0.4-2.3-1.7-3-3.5-3
			c-0.4,0-0.8,0-1.2,0c-0.5,0-0.9,0.1-1.4,0.1c-0.8,0.1-1.6,0.2-2.4,0.3c-3.1,0.3-5.8,1.3-7.3,2.5c-0.9,0.6-1.4,1.3-1.4,1.9
			c0,0.3,0.1,0.6,0.3,0.9C375.1,172.7,375.4,173.1,375.8,173.4z M376.6,170.5c0-0.9,3.1-1.7,6-1.9c0.7-0.1,1.3-0.1,2-0.2
			c0.9-0.1,1.8-0.2,2.6-0.2c1.1,0,2.9,0,2.9,2.4c0,2.4-1.7,2.4-2.9,2.4c-0.8,0-1.7-0.1-2.6-0.2c-0.6-0.1-1.3-0.2-2-0.2
			C379.7,172.2,376.6,171.5,376.6,170.5z"/>
		<path class="st9" d="M382.6,172.5c0.7,0.1,1.3,0.1,2,0.2c0.9,0.1,1.8,0.2,2.6,0.2c1.1,0,2.9,0,2.9-2.4c0-2.4-1.7-2.4-2.9-2.4
			c-0.8,0-1.7,0.1-2.6,0.2c-0.6,0.1-1.3,0.2-2,0.2c-2.9,0.3-6,1-6,1.9C376.6,171.5,379.7,172.2,382.6,172.5z"/>
		<path class="st8" d="M720.6,134.5l-0.1-1.4c-0.2,0.4-0.4,0.7-0.6,1.1C720.1,134.2,720.3,134.3,720.6,134.5z"/>
		<path class="st8" d="M712.3,127.3c-0.6,0.6-1,1.4-1.2,2.3c0.5-0.1,1-0.1,1.4-0.1C712.5,128.7,712.4,128,712.3,127.3z"/>
		<path class="st8" d="M716.9,145.2c-1.1-1.8-2-3.4-2.8-5c-1.1,1.1-2.2,2.3-3.5,3.5l-0.3,8.3l-4.1,116.4c0,1.2,0.3,2.3,0.9,3.2
			c0.9,1.3,2.5,2.2,4.3,2.2h8.8c2,0,3.8-1.2,4.6-2.8c0.4-0.8,0.6-1.7,0.6-2.6l-4.1-116.1l0-1C719.6,149.2,718.2,147.2,716.9,145.2z"
			/>
		<path class="st8" d="M727.3,91.6c-0.8,7.4-0.6,15-2.6,22.2c-1,3.6-2.1,7.2-3.5,10.7c-1.1,2.7-2.3,5.4-3.8,8
			c0.2,0.2,0.4,0.4,0.5,0.6c0,0,0.1,0.1,0.1,0.2c0.6,0.3,1.3,0.6,2,0.9c0.2-0.3,0.4-0.7,0.6-1.1c1.1-1.8,2-3.8,3-6.2
			c1.3-2.9,2.4-6.1,3.4-9.7c1.4-4.6,1.6-9.4,1.9-14c0.1-2,0.2-3.9,0.4-5.9c0.6-6.5,1.2-13.2,1.7-19.8c0.1-2.3,0.3-4.6,0.4-6.9
			c0.3-4.3,0.5-8.6,0.7-12.9c0-1.1-0.6-2-1.6-2.3c-0.3,4.7-0.7,9.3-1,14C728.7,76.7,728.1,84.2,727.3,91.6z"/>
		<path class="st8" d="M713.8,129.4c-0.3-2.1-0.4-4.2-0.5-6.3c-0.2-3.8-0.1-7.5,0.2-11.3c0.4-7.5,3.1-14.5,4.9-21.8
			c1.6-6.9,3.4-13.8,5.2-20.7c-0.6,2.2-1.2,4.4-1.9,6.6c-1.8,6.4-3.4,12.8-5,19.2c-0.5,1.9-1,3.8-1.6,5.7c-1.3,4.5-2.7,9.1-2.9,13.9
			c-0.2,3.7-0.2,7,0,10.2c0.1,0.8,0.1,1.6,0.2,2.3c0.1,0.7,0.2,1.4,0.2,2.1C713,129.4,713.4,129.4,713.8,129.4z"/>
		<path class="st9" d="M713.5,111.8c-0.3,3.7-0.4,7.5-0.2,11.3c0.1,2.1,0.2,4.2,0.5,6.3c1.8,0.1,3.1,0.7,3.5,3c0,0,0,0,0,0
			c1.5-2.6,2.7-5.3,3.8-8c1.4-3.5,2.6-7.1,3.5-10.7c2.1-7.2,1.9-14.8,2.6-22.2c0.8-7.4,1.5-14.8,2.1-22.3c0.3-4.7,0.7-9.3,1-14
			c-0.1,0-0.3-0.1-0.4-0.1c-1.4-0.1-2.4,0.6-2.7,1.7c-1.3,4.2-2.5,8.3-3.7,12.5c0,0,0,0,0,0c-1.8,6.9-3.5,13.8-5.2,20.7
			C716.6,97.3,713.9,104.4,713.5,111.8z"/>
		<path class="st8" d="M710.5,143.8C710.5,143.8,710.6,143.7,710.5,143.8c1.4-1.3,2.6-2.5,3.6-3.6c-0.2-0.4-0.4-0.7-0.5-1.1
			c-0.8,0-1.6-0.1-2.6-0.2c-1.2,1.2-2.4,2.4-3.7,3.5c-2.8,2.5-5.8,4.8-8.9,6.9c-6.1,4.4-13.3,6.7-20,9.9c-6.7,3.2-13.5,6.3-20.3,9.4
			c-4.3,1.9-8.6,3.7-12.9,5.6c0.7,0.8,1.8,1.1,2.8,0.8c4-1.6,8-3.3,12-5c2.1-0.9,4.2-1.8,6.4-2.7c6-2.6,12.1-5.4,18.1-8.2
			c1.8-0.8,3.6-1.6,5.4-2.3c3.4-1.4,7-2.9,10.2-4.9c0.8-0.5,1.6-1,2.4-1.6C705.6,148.1,708.2,146,710.5,143.8z"/>
		<path class="st8" d="M656.2,163c5.9-4,11.8-7.9,17.8-11.8c6.3-4,12-9,18.9-11.9c2.7-1.2,5.5-2.3,8.4-3.3c-0.4-0.3-0.7-0.6-0.9-1
			c-1.7,0.6-3.4,1.2-5.1,2c-4.5,1.8-8.4,4.6-12.2,7.4c-1.6,1.2-3.2,2.3-4.8,3.4c-1.9,1.3-3.9,2.6-5.8,3.9c-3.6,2.4-7.1,4.8-10.7,7.3
			C659.9,160.3,658.1,161.6,656.2,163z"/>
		<path class="st8" d="M717.8,133.1c-0.1-0.2-0.3-0.4-0.5-0.6c0,0,0,0,0,0c0,0.2,0.1,0.4,0.1,0.6c0.2,0.1,0.4,0.1,0.5,0.2
			C717.9,133.2,717.9,133.1,717.8,133.1z"/>
		<path class="st9" d="M678.4,159.1c6.7-3.2,13.9-5.5,20-9.9c3.1-2.1,6.1-4.4,8.9-6.9c1.3-1.1,2.5-2.3,3.7-3.5
			c-0.7-0.1-1.5-0.2-2.3-0.3c-3.2-0.3-5.9-1.4-7.4-2.6c-2.9,1-5.6,2.1-8.4,3.3c-6.9,2.9-12.7,7.8-18.9,11.9
			c-6,3.9-11.9,7.8-17.8,11.8c0,0,0,0,0,0c-3.5,2.5-7.1,5-10.5,7.6c-0.9,0.7-1.2,1.8-0.7,3.1c0.1,0.1,0.2,0.2,0.3,0.3
			c4.3-1.9,8.6-3.8,12.9-5.6C664.9,165.4,671.7,162.3,678.4,159.1z"/>
		<path class="st8" d="M760.8,183c-5.7-4.8-11.4-9.6-17-14.5c-5.6-4.9-11.9-9.1-16.6-14.9c-2.4-2.9-4.7-5.8-6.7-9
			c-1.4-2.1-2.7-4.3-3.9-6.7c-0.7,0.8-1.7,1.1-2.9,1.1c0.2,0.4,0.3,0.7,0.5,1.1c0.8,1.6,1.7,3.2,2.8,5c1.2,2,2.6,4,4.2,6.1
			c0.3,0.4,0.6,0.7,0.9,1.1c0.3,0.4,0.6,0.7,0.9,1.1c3,3.8,6.8,6.7,10.4,9.6c1.6,1.2,3.1,2.4,4.6,3.7c5,4.3,10.1,8.6,15.2,12.7
			c1.8,1.4,3.6,2.9,5.4,4.3c3.4,2.7,6.7,5.4,10.2,8c0.9,0.6,2,0.6,2.9,0C768,188.9,764.4,185.9,760.8,183z"/>
		<path class="st8" d="M717.9,133.2c-0.2-0.1-0.4-0.1-0.5-0.2c0,0.4,0.1,0.8,0.1,1.2c0,0,0,0,0,0.1c3.1,1.3,5.9,2.9,8.6,4.7
			c3.2,2,6.2,4.3,9.1,6.6c5.9,4.6,10.1,10.9,15,16.5c4.7,5.3,9.4,10.7,14,16.1c-1.4-1.8-2.9-3.5-4.3-5.3
			c-4.2-5.1-8.5-10.2-12.9-15.1c-1.2-1.4-2.4-2.9-3.6-4.4c-0.1-0.1-0.1-0.1-0.2-0.2c-2.9-3.6-5.9-7.4-9.7-10.4
			c-2.9-2.3-5.6-4.2-8.4-5.9c-1.6-1-3.1-1.8-4.5-2.5c-0.2-0.1-0.5-0.2-0.7-0.3C719.2,133.8,718.6,133.5,717.9,133.2z"/>
		<path class="st9" d="M750.1,162.1c-4.9-5.6-9.2-11.9-15-16.5c-2.9-2.4-5.9-4.6-9.1-6.6c-2.7-1.7-5.5-3.3-8.6-4.7
			c0,1.8-0.3,2.9-0.9,3.7c1.2,2.3,2.5,4.5,3.9,6.7c2.1,3.2,4.3,6.2,6.7,9c4.7,5.8,11,10,16.6,14.9c5.6,4.9,11.3,9.7,17,14.5
			c3.6,2.9,7.3,5.9,10.9,8.8c0.1-0.1,0.3-0.1,0.4-0.2c0.9-1.1,0.9-2.3,0.2-3.2c-2.6-3.5-5.4-6.8-8.1-10.2c0,0,0,0,0,0
			C759.5,172.8,754.9,167.4,750.1,162.1z"/>
		<path class="st8" d="M701.3,136c1.5,1.2,4.3,2.3,7.4,2.6c0.8,0.1,1.6,0.2,2.3,0.3c0.9,0.1,1.8,0.2,2.6,0.2c1.2,0,2.2-0.3,2.9-1.1
			c0.6-0.7,0.9-1.9,0.9-3.7c0,0,0,0,0-0.1c0-0.4,0-0.8-0.1-1.2c0-0.2-0.1-0.4-0.1-0.6c-0.4-2.3-1.7-3-3.5-3c-0.4,0-0.8,0-1.2,0
			c-0.5,0-0.9,0.1-1.4,0.1c-0.8,0.1-1.6,0.2-2.4,0.3c-4.8,0.4-8.7,2.7-8.7,4.4c0,0.3,0.1,0.6,0.3,0.9
			C700.5,135.4,700.9,135.7,701.3,136z M702,133.2c0-0.9,3.1-1.7,6-1.9c0.7-0.1,1.3-0.1,2-0.2c0.9-0.1,1.8-0.2,2.6-0.2
			c1.1,0,2.9,0,2.9,2.4c0,2.4-1.7,2.4-2.9,2.4c-0.8,0-1.7-0.1-2.6-0.2c-0.6-0.1-1.3-0.2-2-0.2C705.1,134.9,702,134.2,702,133.2z"/>
		<path class="st9" d="M708,135.1c0.7,0.1,1.3,0.1,2,0.2c0.9,0.1,1.8,0.2,2.6,0.2c1.1,0,2.9,0,2.9-2.4c0-2.4-1.7-2.4-2.9-2.4
			c-0.8,0-1.7,0.1-2.6,0.2c-0.6,0.1-1.3,0.2-2,0.2c-2.9,0.3-6,1-6,1.9C702,134.2,705.1,134.9,708,135.1z"/>
		<path class="st5" d="M522.2,249.9h-8.3c-0.7,0-1.3-0.1-1.9-0.4l40.3,32.1c-0.8,0-1.7,0-2.7-0.1c-2.7-0.1-5.7,0-8.9,0.1
			c-4.2,0.1-8.3,0.7-12.2,1.3c-1.7,0.2-3.4,0.5-5,0.7c-5.6,0.7-11.4,1.4-17,2.2c-2,0.3-4,0.5-5.9,0.8c-3.7,0.5-7.4,1-11,1.6
			c-0.9,0.1-1.5,0.5-1.6,0.9c0,0.1,0,0.1,0,0.2c0.3,0.5,1.1,0.8,2.1,0.7c3.8-0.1,7.6-0.3,11.4-0.4c0,0,0,0,0,0c2-0.1,4-0.2,6-0.2
			c5.8-0.3,11.6-0.6,17.4-0.9c1.7-0.1,3.4-0.2,5.2-0.2c4.1-0.1,8.3-0.3,12.4-0.9c3-0.4,5.6-0.8,8.1-1.3c1.3-0.1,2.6-0.2,4.1-0.5
			c0.7-0.1,1.4-0.3,2.1-0.4c0.7,0.4,1.6,0.6,2.7,0.6c0.4,0.3,0.8,0.6,1.2,0.9c1.5,1,3.2,1.9,5.2,3c2.6,1.3,6,2.3,9.2,3.3
			c1.4,0.4,2.7,0.8,4,1.2c4.4,1.5,8.9,2.9,13.4,4.3c1.6,0.5,3.1,1,4.7,1.4c0,0,0,0,0,0c3,0.9,5.9,1.8,9,2.7c0.8,0.2,1.8,0.2,2.8-0.2
			c0.1,0,0.1-0.1,0.2-0.1c0.5-0.3,0.5-0.8,0-1.1c-2.3-1.2-4.7-2.4-7.1-3.6c-1.3-0.6-2.6-1.3-3.9-1.9c-3.7-1.8-7.5-3.6-11.3-5.3
			c-1.1-0.5-2.2-1.1-3.3-1.6c-2.5-1.3-5.2-2.6-8.5-3.6c-2.6-0.8-5-1.4-7.4-1.9c-1.7-0.4-3.3-0.7-4.9-0.9l-0.8-0.8
			c0.5-0.5,1.1-1,1.6-1.5c1.1-1.2,2.1-2.4,2.9-3.8c1.2-1.8,1.4-3.6,1.6-5.4c0.1-0.8,0.2-1.5,0.3-2.3c0.5-2.5,1-5.1,1.4-7.6
			c0.1-0.9,0.2-1.7,0.3-2.6c0,0,0,0,0,0c0.2-1.7,0.4-3.3,0.5-5c0-0.4-0.6-0.8-1.8-0.9c-0.1,0-0.3,0-0.4,0c-0.9,0-1.7,0.3-2,0.7
			c-1.1,1.6-2.1,3.2-3.1,4.8c-0.5,0.9-1.1,1.7-1.6,2.6c-1.5,2.5-2.9,5-4.3,7.5c-0.4,0.7-0.9,1.5-1.4,2.2c-0.6,1-1.3,2-1.7,3
			l-27.1-27.4C526.6,248.1,524.6,249.9,522.2,249.9z"/>
		<path class="st6" d="M522.2,249.9h-8.3c-0.7,0-1.3-0.1-1.9-0.4l40.3,32.1c-0.8,0-1.7,0-2.7-0.1c-2.7-0.1-5.7,0-8.9,0.1
			c-4.2,0.1-8.3,0.7-12.2,1.3c-1.7,0.2-3.4,0.5-5,0.7c-5.6,0.7-11.4,1.4-17,2.2c-2,0.3-4,0.5-5.9,0.8c-3.7,0.5-7.4,1-11,1.6
			c-0.9,0.1-1.5,0.5-1.6,0.9c0,0.1,0,0.1,0,0.2c0.3,0.5,1.1,0.8,2.1,0.7c3.8-0.1,7.6-0.3,11.4-0.4c0,0,0,0,0,0c2-0.1,4-0.2,6-0.2
			c5.8-0.3,11.6-0.6,17.4-0.9c1.7-0.1,3.4-0.2,5.2-0.2c4.1-0.1,8.3-0.3,12.4-0.9c3-0.4,5.6-0.8,8.1-1.3c1.3-0.1,2.6-0.2,4.1-0.5
			c0.7-0.1,1.4-0.3,2.1-0.4c0.7,0.4,1.6,0.6,2.7,0.6c0.4,0.3,0.8,0.6,1.2,0.9c1.5,1,3.2,1.9,5.2,3c2.6,1.3,6,2.3,9.2,3.3
			c1.4,0.4,2.7,0.8,4,1.2c4.4,1.5,8.9,2.9,13.4,4.3c1.6,0.5,3.1,1,4.7,1.4c0,0,0,0,0,0c3,0.9,5.9,1.8,9,2.7c0.8,0.2,1.8,0.2,2.8-0.2
			c0.1,0,0.1-0.1,0.2-0.1c0.5-0.3,0.5-0.8,0-1.1c-2.3-1.2-4.7-2.4-7.1-3.6c-1.3-0.6-2.6-1.3-3.9-1.9c-3.7-1.8-7.5-3.6-11.3-5.3
			c-1.1-0.5-2.2-1.1-3.3-1.6c-2.5-1.3-5.2-2.6-8.5-3.6c-2.6-0.8-5-1.4-7.4-1.9c-1.7-0.4-3.3-0.7-4.9-0.9l-0.8-0.8
			c0.5-0.5,1.1-1,1.6-1.5c1.1-1.2,2.1-2.4,2.9-3.8c1.2-1.8,1.4-3.6,1.6-5.4c0.1-0.8,0.2-1.5,0.3-2.3c0.5-2.5,1-5.1,1.4-7.6
			c0.1-0.9,0.2-1.7,0.3-2.6c0,0,0,0,0,0c0.2-1.7,0.4-3.3,0.5-5c0-0.4-0.6-0.8-1.8-0.9c-0.1,0-0.3,0-0.4,0c-0.9,0-1.7,0.3-2,0.7
			c-1.1,1.6-2.1,3.2-3.1,4.8c-0.5,0.9-1.1,1.7-1.6,2.6c-1.5,2.5-2.9,5-4.3,7.5c-0.4,0.7-0.9,1.5-1.4,2.2c-0.6,1-1.3,2-1.7,3
			l-27.1-27.4C526.6,248.1,524.6,249.9,522.2,249.9z"/>
		<path class="st8" d="M844.5,103.1l0-0.9c-0.1-1.8-1.4-3.3-3.1-3.8c0.3,1.8,0.4,3.4,0.5,5C842.7,103.2,843.6,103.1,844.5,103.1z"/>
		<path class="st8" d="M840.6,110.5c-0.2,1.4-0.5,2.8-0.9,4.4c-0.6,2.7-1.5,5.5-2.7,8.5c-0.4,1.2-1,2.4-1.6,3.5l-1,28l-0.2,6.6
			l-2.2,60.8c-0.1,1.5,0.6,2.8,1.6,3.7c0.8,0.7,1.8,1.1,2.9,1.1h7.6c1.9,0,3.5-1.2,4.2-2.8c0.2-0.6,0.4-1.2,0.4-1.9l-2.1-59.2
			l-0.5-14.6l-1.3-35.9C843.3,112,841.9,111.3,840.6,110.5z"/>
		<path class="st8" d="M826.8,69c3,5.7,6.8,11.1,8.7,17.3c1,3.1,1.9,6.2,2.6,9.5c0.4,1.9,0.7,3.7,0.9,5.7c1.2,0.1,2.1,0.6,2.6,2
			c0.1,0,0.2,0,0.3,0c0-1.6-0.2-3.2-0.5-5c-0.1-0.7-0.2-1.3-0.3-2c-0.5-2.7-1.2-5.5-2.2-8.6c-1.2-4-3.3-7.6-5.4-11.1
			c-0.9-1.5-1.7-3-2.6-4.5c-2.7-5-5.5-10.1-8.3-15.1c-1-1.8-2-3.5-3-5.2c-1.9-3.2-3.7-6.5-5.7-9.7c-0.5-0.8-1.4-1.1-2.3-0.9
			c2,3.5,4,7.1,6,10.6C820.7,57.5,823.8,63.2,826.8,69z"/>
		<path class="st8" d="M831.7,98.5c-2-2.7-3.7-5.4-5.3-8.3c-3.3-5.6-4.7-12-6.9-18.1c-2.1-5.8-4.2-11.6-6.2-17.5
			c0.6,1.9,1.2,3.8,1.8,5.7c1.8,5.5,3.7,10.9,5.6,16.3c0.6,1.6,1.1,3.2,1.6,4.9c1.2,3.9,2.4,7.9,4.6,11.5c1.6,2.8,3.2,5.2,4.9,7.4
			c0.4,0.5,0.8,1,1.2,1.5c0.4-0.1,0.8-0.1,1.2-0.2C833.4,100.7,832.5,99.6,831.7,98.5z"/>
		<path class="st9" d="M826.5,90.3c1.6,2.8,3.3,5.6,5.3,8.3c0.8,1.1,1.6,2.2,2.5,3.2c0,0,0,0,0.1,0c1.8-0.2,3.4-0.5,4.7-0.4
			c-0.2-1.9-0.5-3.8-0.9-5.7c-0.6-3.2-1.5-6.4-2.6-9.5c-1.9-6.2-5.7-11.6-8.7-17.3c-3-5.7-6.1-11.5-9.2-17.1c-2-3.5-4-7.1-6-10.6
			c-0.1,0-0.2,0-0.4,0.1c-1.1,0.6-1.4,1.6-1.2,2.5c1,3.6,2.2,7.2,3.3,10.8c0,0,0,0,0,0c2,5.9,4.1,11.7,6.2,17.5
			C821.8,78.2,823.2,84.7,826.5,90.3z"/>
		<path class="st8" d="M819,153c3.1-4.8,6.2-9.7,9.2-14.6c0.9-1.5,1.9-2.9,2.8-4.3c1.6-2.3,3.2-4.7,4.5-7.3c0.6-1.1,1.1-2.3,1.6-3.5
			c1.2-3,2.1-5.8,2.7-8.5c0.4-1.6,0.7-3,0.9-4.4c-0.4-0.3-0.9-0.5-1.3-0.8c-0.4,0.1-0.9,0.1-1.3,0c-0.3,1.9-0.8,3.7-1.3,5.6
			c-0.8,3.2-1.9,6.3-3.1,9.3c-2.3,6.1-6.4,11.2-9.8,16.8c-3.3,5.6-6.7,11.1-10.2,16.5c-2.2,3.4-4.4,6.8-6.6,10.2
			c0.9,0.3,1.8,0,2.4-0.8c1.9-2.7,3.7-5.4,5.5-8.1c0.3-0.4,0.6-0.8,0.8-1.3C816.7,156.4,817.8,154.7,819,153z"/>
		<path class="st8" d="M824.8,120.1c1.7-2.7,3.6-5.4,5.7-7.9c0.8-1,1.7-2,2.5-2.9c-0.4-0.1-0.8-0.2-1.2-0.2
			c-0.4,0.4-0.7,0.8-1.1,1.3c-1.8,2.1-3.6,4.4-5.3,7.1c-2.4,3.5-3.9,7.4-5.3,11.2c-0.6,1.6-1.2,3.2-1.9,4.8
			c-2.3,5.3-4.5,10.6-6.6,16c-0.7,1.9-1.4,3.7-2.1,5.6c2.3-5.7,4.7-11.4,7.2-17.1C819.4,131.8,821.2,125.5,824.8,120.1z"/>
		<path class="st9" d="M806.6,168.1c0.1,0.1,0.2,0.1,0.4,0.1c2.2-3.4,4.4-6.8,6.6-10.2c3.5-5.5,6.9-11,10.2-16.5
			c3.3-5.5,7.4-10.7,9.8-16.8c1.2-3,2.3-6.1,3.1-9.3c0.5-1.8,0.9-3.7,1.3-5.6c-1.1-0.1-2.3-0.3-3.7-0.4c-0.4,0-0.8-0.1-1.2-0.2
			c-0.9,1-1.7,1.9-2.5,2.9c-2.1,2.5-4,5.2-5.7,7.9c-3.6,5.4-5.4,11.7-8,17.7c-2.5,5.7-4.9,11.4-7.2,17.1c0,0,0,0,0,0
			c-0.5,1.2-1,2.5-1.4,3.7c-0.9,2.3-1.7,4.6-2.6,6.9C805.3,166.4,805.6,167.4,806.6,168.1z"/>
		<path class="st8" d="M895,119.1c-6.4-0.7-12.9-1.5-19.3-2.3c-6.4-0.8-13-0.8-19.2-2.8c-3.1-0.9-6.2-2-9.2-3.3
			c-1.9-0.8-3.8-1.7-5.7-2.8c-0.4,1.2-1.2,1.6-2.2,1.8c0.4,0.3,0.8,0.5,1.3,0.8c1.3,0.7,2.7,1.5,4.2,2.2c0.1,0,0.1,0.1,0.2,0.1
			c2.5,1.2,5.2,2.2,8.3,3.2c4,1.3,8.1,1.6,12.2,1.9c1.7,0.1,3.4,0.3,5.1,0.5c5.7,0.7,11.4,1.3,17.1,1.9c2,0.2,4,0.3,6,0.5
			c1.4,0.1,2.9,0.3,4.3,0.4c2.3,0.2,4.6,0.4,6.9,0.5c0.9,0.1,1.7-0.5,2.1-1.4C903.1,119.9,899,119.5,895,119.1z"/>
		<path class="st8" d="M841.6,103.4c0.1,0.3,0.2,0.6,0.2,1c2.3-0.3,4.6-0.4,6.8-0.5c3.3-0.1,6.6,0.1,9.8,0.4
			c6.5,0.5,12.6,3.1,18.8,4.7c6,1.6,11.9,3.2,17.9,5c-1.9-0.6-3.8-1.2-5.7-1.8c-5.5-1.7-11.1-3.3-16.6-4.8c-1.6-0.5-3.3-1-4.9-1.5
			c-3.8-1.2-7.8-2.5-12-2.8c-3.2-0.3-6.1-0.4-8.9-0.2c-0.9,0-1.7,0.1-2.5,0.1c-0.9,0.1-1.8,0.2-2.6,0.3
			C841.8,103.4,841.7,103.4,841.6,103.4z"/>
		<path class="st9" d="M858.4,104.4c-3.2-0.3-6.5-0.5-9.8-0.4c-2.2,0-4.5,0.2-6.8,0.5c0,0.4,0.1,0.7,0.1,1.2c0,1-0.1,1.8-0.3,2.3
			c1.9,1.1,3.8,2,5.7,2.8c3,1.3,6.1,2.4,9.2,3.3c6.2,2,12.8,1.9,19.2,2.8c6.4,0.8,12.9,1.6,19.3,2.3c4.1,0.4,8.1,0.8,12.2,1.2
			c0-0.1,0.1-0.2,0.1-0.4c0.1-1.2-0.5-2.1-1.4-2.4c-0.1,0-0.2-0.1-0.3-0.1c-3.5-1.2-7-2.3-10.4-3.4c0,0,0,0,0,0
			c-5.9-1.7-11.9-3.4-17.9-5C871,107.4,864.9,104.9,858.4,104.4z"/>
		<path class="st8" d="M834.3,109.4c1.3,0.1,2.6,0.3,3.7,0.4c0.5,0,0.9,0,1.3,0c1-0.2,1.8-0.6,2.2-1.8c0.2-0.6,0.3-1.4,0.3-2.3
			c0-0.4,0-0.8-0.1-1.2c0-0.4-0.1-0.7-0.2-1c-0.4-1.4-1.3-1.9-2.6-2c-1.3-0.1-2.9,0.2-4.7,0.4c0,0,0,0-0.1,0c-0.4,0-0.8,0.1-1.2,0.2
			c-3.6,0.6-6.3,2.4-6.3,3.6c0,1.1,2.2,2.7,5.2,3.4c0.4,0.1,0.8,0.2,1.2,0.2C833.5,109.3,833.9,109.4,834.3,109.4z M828.4,104.7
			c0-0.8,2.7-1.4,5.2-1.7c0.6-0.1,1.2-0.1,1.7-0.2c0.8-0.1,1.6-0.2,2.3-0.2c1,0,2.5,0,2.5,2.1c0,2.1-1.5,2.1-2.5,2.1
			c-0.7,0-1.4-0.1-2.3-0.2c-0.5-0.1-1.1-0.1-1.7-0.2C831.2,106.2,828.4,105.5,828.4,104.7z"/>
		<path class="st9" d="M835.4,106.6c0.8,0.1,1.6,0.2,2.3,0.2c1,0,2.5,0,2.5-2.1c0-2.1-1.5-2.1-2.5-2.1c-0.7,0-1.4,0.1-2.3,0.2
			c-0.5,0.1-1.1,0.1-1.7,0.2c-2.5,0.2-5.2,0.9-5.2,1.7c0,0.8,2.7,1.5,5.2,1.7C834.2,106.4,834.8,106.5,835.4,106.6z"/>
		<path class="st8" d="M228.3,92.6c-0.8,0.5-1.4,1.1-1.7,1.9c0.6,0.1,1.1,0.1,1.6,0.2C228.2,94.1,228.3,93.3,228.3,92.6z"/>
		<path class="st8" d="M221.7,222.9c-0.1,1.8,0.9,3.4,2.3,4.3c0.7,0.4,1.6,0.7,2.5,0.7h8c2.4,0,4.4-1.8,4.7-4.1
			c0-0.3,0.1-0.6,0.1-0.9l-0.6-15.9l-0.5-13.2l-3-84.2c-0.6-0.7-1.2-1.4-1.8-2.1c-1.1-1.3-2.1-2.6-2.9-3.8c-1.1,0.7-2.7,0.5-4.6,0.3
			l-3.3,92.7l-0.5,14L221.7,222.9z"/>
		<path class="st8" d="M189.8,104.4c6.5-2.1,12.8-5.1,19.5-6.1c2.9-0.5,5.9-0.8,8.9-1c1.5-0.8,3.5-1.5,5.8-1.7
			c1.5-0.1,2.9-0.4,4.1-0.4c0-0.2,0-0.4,0-0.6c-0.5-0.1-1.1-0.1-1.6-0.2c-1.8-0.2-3.7-0.2-5.8-0.2c-2.9,0-6,0.3-9.4,0.8
			c-4.4,0.5-8.5,2.1-12.5,3.7c-1.7,0.7-3.4,1.3-5.1,1.9c-5.7,1.9-11.5,3.9-17.2,6c-2,0.8-4,1.5-6,2.2c-3.7,1.4-7.4,2.8-11.1,4.3
			c-0.9,0.4-1.4,1.3-1.4,2.2c4-1.5,8.1-2.9,12.1-4.4C176.8,108.7,183.3,106.6,189.8,104.4z"/>
		<path class="st8" d="M223,103.6c-0.5,0.3-1,0.5-1.6,0.8c-3.1,1.6-6.3,2.9-9.5,4c-6.4,2.4-13.4,2.8-20.1,4.1
			c-6.4,1.2-12.8,2.3-19.3,3.4c2.1-0.3,4.1-0.6,6.2-0.9c6-0.9,12-1.9,18-3c1.8-0.3,3.6-0.6,5.4-0.8c4.2-0.6,8.6-1.1,12.7-2.8
			c3.2-1.2,6-2.4,8.6-3.8c0.5-0.3,1-0.5,1.5-0.8c-0.3,0-0.6-0.1-0.9-0.1C223.7,103.7,223.4,103.7,223,103.6z"/>
		<path class="st9" d="M211.9,108.4c3.2-1.1,6.4-2.5,9.5-4c0.5-0.3,1-0.5,1.6-0.8c-3.9-0.6-6.9-2.5-6.9-3.9c0-0.7,0.8-1.6,2.2-2.3
			c-3,0.2-6,0.5-8.9,1c-6.8,0.9-13.1,4-19.5,6.1c-6.5,2.1-13,4.3-19.4,6.6c-4,1.5-8.1,2.9-12.1,4.4c0,0.1,0,0.3,0,0.4
			c0.5,1.2,1.4,1.8,2.4,1.7c4-0.5,7.9-1,11.8-1.6c0,0,0,0,0,0c6.4-1.1,12.9-2.2,19.3-3.4C198.6,111.2,205.5,110.9,211.9,108.4z"/>
		<path class="st8" d="M242.6,115.4c-2.5-2.3-5-4.7-7.3-7.4c-1.4-1.6-2.8-3.3-4-5.1c-0.2,0.3-0.5,0.6-0.8,0.8
			c0.8,1.2,1.8,2.5,2.9,3.8c0.6,0.7,1.2,1.4,1.8,2.1c1.4,1.6,2.9,3.1,4.7,4.7c3.2,3.1,7,5.3,10.7,7.4c1.6,0.9,3.1,1.8,4.6,2.8
			c5.1,3.3,10.3,6.5,15.5,9.6c1.8,1.1,3.6,2.1,5.4,3.2c-5.6-3.4-11.1-6.9-16.5-10.5C253.9,123.1,247.6,120.1,242.6,115.4z"/>
		<path class="st8" d="M233.3,99.6c2.2,0.7,4.4,1.6,6.4,2.6c3.2,1.4,6.2,3.1,9.1,4.9c5.9,3.5,10.6,8.6,15.7,13.1
			c5.2,4.4,10.3,8.9,15.4,13.5c3.2,2.9,6.3,5.8,9.5,8.7c0.4-0.9,0.3-1.9-0.4-2.6c-2.8-2.8-5.7-5.5-8.6-8.2c-1.6-1.4-3.1-2.9-4.7-4.4
			c-4.5-4.1-9-8.2-13.6-12.1c-1.4-1.2-2.7-2.4-4-3.7c-3.1-2.9-6.3-6-10.1-8.2c-2.9-1.8-5.7-3.2-8.4-4.3c-1.6-0.7-3-1.2-4.4-1.7
			C234.7,98.1,234,98.9,233.3,99.6z"/>
		<path class="st9" d="M264.6,120.1c-5.2-4.4-9.8-9.6-15.7-13.1c-2.9-1.8-5.9-3.5-9.1-4.9c-2.1-1-4.2-1.8-6.4-2.6
			c-0.4,0.4-0.7,0.7-1.1,1.1c-0.1,0.1-0.2,0.1-0.3,0.2c-0.1,0.9-0.3,1.6-0.6,2c1.3,1.8,2.6,3.5,4,5.1c2.3,2.6,4.7,5.1,7.3,7.4
			c5,4.7,11.3,7.7,17,11.4c5.5,3.6,11,7.1,16.5,10.5c0,0,0,0,0,0c3.4,2,6.8,4.1,10.3,6c0.9,0.5,2,0.3,2.9-0.6
			c0.1-0.1,0.1-0.2,0.2-0.4c-3.2-2.9-6.3-5.8-9.5-8.7C275,129,269.8,124.6,264.6,120.1z"/>
		<path class="st8" d="M248.1,61.9c-2,6.5-3.1,13.4-6.2,19.5c-1.5,3.1-3.1,6.1-5.1,9c-1.5,2.4-3.2,4.7-5.1,6.9
			c0.2,0.6,0.3,1.4,0.3,2.5c0,0.4,0,0.8-0.1,1.2c0.1-0.1,0.2-0.1,0.3-0.2c0.4-0.3,0.7-0.7,1.1-1.1c0.7-0.7,1.4-1.5,2.1-2.3
			c1-1.3,2.1-2.6,3.2-4.2c1.7-2.4,3.2-5,4.7-8.1c2.1-3.9,3.1-8.2,4.1-12.3c0.4-1.8,0.9-3.5,1.4-5.2c1.7-5.8,3.4-11.7,4.9-17.5
			c0.5-2.1,1.1-4.1,1.6-6.2c1-3.8,2-7.7,2.9-11.5c0.2-1-0.2-1.9-1.1-2.4c-1.1,4.1-2.2,8.3-3.3,12.4C252,48.8,250.1,55.4,248.1,61.9z
			"/>
		<path class="st8" d="M228.2,95.3c0.4,0,0.7,0,1.1,0c0.1-2.6,0.3-5.1,0.7-7.5c0.5-3.5,1.3-6.8,2.2-10.1c1.7-6.6,5.4-12.5,8.2-18.8
			c2.7-5.9,5.5-11.9,8.3-17.7c-0.9,1.9-1.9,3.7-2.8,5.6c-2.7,5.4-5.3,10.9-7.9,16.4c-0.8,1.6-1.6,3.2-2.4,4.8c-2,3.8-4,7.7-5,12
			c-0.9,3.3-1.5,6.3-1.8,9.2c-0.1,1.2-0.3,2.3-0.3,3.3c-0.1,0.7-0.1,1.4-0.1,2.1C228.2,94.9,228.2,95.1,228.2,95.3z"/>
		<path class="st9" d="M232.1,77.7c-0.9,3.3-1.7,6.7-2.2,10.1c-0.4,2.5-0.6,5-0.7,7.5c1.1,0.1,2,0.7,2.4,1.9
			c1.9-2.2,3.6-4.5,5.1-6.9c1.9-2.9,3.6-5.9,5.1-9c3.1-6.1,4.3-13,6.2-19.5c2-6.5,3.9-13.1,5.8-19.7c1.1-4.2,2.2-8.3,3.3-12.4
			c-0.1-0.1-0.2-0.2-0.3-0.2c-1.3-0.3-2.3,0.1-2.8,1c-1.9,3.5-3.7,7.1-5.5,10.6c0,0,0,0,0,0c-2.8,5.9-5.6,11.8-8.3,17.7
			C237.5,65.2,233.8,71.1,232.1,77.7z"/>
		<path class="st8" d="M230.6,103.7c0.3-0.2,0.6-0.4,0.8-0.8c0.3-0.5,0.5-1.1,0.6-2c0-0.4,0.1-0.7,0.1-1.2c0-1-0.1-1.8-0.3-2.5
			c-0.4-1.3-1.3-1.8-2.4-1.9c-0.3,0-0.7-0.1-1.1,0c-1.2,0-2.6,0.3-4.1,0.4c-2.3,0.2-4.4,0.9-5.8,1.7c-1.3,0.7-2.2,1.6-2.2,2.3
			c0,1.4,3,3.3,6.9,3.9c0.3,0.1,0.7,0.1,1.1,0.1c0.3,0,0.6,0.1,0.9,0.1c0.3,0,0.7,0.1,1,0.1C227.8,104.2,229.5,104.4,230.6,103.7z
			 M217.9,98.8c0-0.9,2.9-1.5,5.5-1.8c0.6-0.1,1.2-0.1,1.8-0.2c0.9-0.1,1.7-0.2,2.4-0.2c1,0,2.6,0,2.6,2.2c0,2.2-1.6,2.2-2.6,2.2
			c-0.7,0-1.5-0.1-2.4-0.2c-0.6-0.1-1.2-0.1-1.8-0.2C220.7,100.3,217.9,99.7,217.9,98.8z"/>
		<path class="st9" d="M225.2,100.8c0.9,0.1,1.7,0.2,2.4,0.2c1,0,2.6,0,2.6-2.2c0-2.2-1.6-2.2-2.6-2.2c-0.7,0-1.5,0.1-2.4,0.2
			c-0.6,0.1-1.2,0.1-1.8,0.2c-2.6,0.2-5.5,0.9-5.5,1.8c0,0.9,2.9,1.5,5.5,1.8C224,100.6,224.6,100.7,225.2,100.8z"/>
		<path class="st8" d="M522.9,125.3c-1.7-0.8-3.2-1.6-4.6-2.4c-0.2,1.5-0.6,3.1-1,4.8c-0.7,2.9-1.6,5.9-2.9,9.2
			c-0.5,1.3-1.1,2.6-1.7,3.8l-0.7,19.3l-0.1,1.7l-3,82.9c-0.1,2.1,1.2,4,3,4.8c0.6,0.2,1.2,0.4,1.9,0.4h8.3c2.4,0,4.4-1.7,4.8-4
			c0.1-0.4,0.1-0.7,0.1-1.1l-3-84.2l0-1L522.9,125.3z"/>
		<path class="st8" d="M522.5,114.9l0-1c-0.1-2-1.5-3.6-3.3-4.1c0.3,1.9,0.5,3.7,0.5,5.4C520.6,115,521.5,114.9,522.5,114.9z"/>
		<path class="st8" d="M508.6,109.9c-2.1-2.9-4-5.9-5.7-9c-3.6-6.1-5.1-13.1-7.6-19.7c-2.3-6.3-4.6-12.7-6.7-19.1
			c0.7,2.1,1.3,4.1,2,6.2c1.9,5.9,4,11.9,6.1,17.8c0.6,1.7,1.2,3.5,1.7,5.3c1.3,4.2,2.6,8.6,5,12.5c1.7,3,3.5,5.7,5.3,8.1
			c0.4,0.6,0.9,1.1,1.3,1.6c0.4-0.1,0.9-0.1,1.3-0.2C510.4,112.3,509.5,111.1,508.6,109.9z"/>
		<path class="st8" d="M503.2,77.7c3.3,6.2,7.4,12.1,9.5,18.9c1.1,3.3,2.1,6.8,2.8,10.3c0.4,2,0.8,4.1,1,6.2
			c1.3,0.1,2.3,0.7,2.8,2.2c0.1,0,0.2,0,0.3,0c0-1.7-0.2-3.5-0.5-5.4c-0.1-0.7-0.2-1.5-0.4-2.2c-0.5-3-1.3-6-2.4-9.4
			c-1.3-4.4-3.6-8.3-5.9-12.1c-1-1.6-1.9-3.2-2.8-4.9c-2.9-5.5-6-11-9-16.5c-1.1-1.9-2.2-3.8-3.3-5.7c-2-3.5-4.1-7.1-6.2-10.6
			c-0.5-0.9-1.6-1.2-2.5-1c2.2,3.9,4.4,7.7,6.6,11.6C496.6,65.2,500,71.5,503.2,77.7z"/>
		<path class="st9" d="M502.9,100.9c1.7,3.1,3.6,6.1,5.7,9c0.9,1.2,1.8,2.4,2.7,3.5c0,0,0,0,0.1,0c1.9-0.2,3.7-0.5,5.1-0.4
			c-0.2-2.1-0.6-4.1-1-6.2c-0.7-3.5-1.7-6.9-2.8-10.3c-2.1-6.8-6.3-12.6-9.5-18.9c-3.3-6.3-6.6-12.5-10-18.7
			c-2.2-3.9-4.4-7.7-6.6-11.6c-0.1,0-0.3,0-0.4,0.1c-1.2,0.7-1.6,1.8-1.3,2.8c1.1,4,2.4,7.9,3.6,11.8c0,0,0,0,0,0
			c2.2,6.4,4.4,12.7,6.7,19.1C497.8,87.8,499.3,94.8,502.9,100.9z"/>
		<path class="st8" d="M504.7,153.4c1-1.6,2-3.1,3.1-4.7c1.7-2.5,3.5-5.1,4.9-7.9c0.6-1.2,1.2-2.5,1.7-3.8c1.3-3.3,2.3-6.3,2.9-9.2
			c0.4-1.7,0.7-3.3,1-4.8c-0.5-0.3-0.9-0.6-1.4-0.9c-0.5,0.1-0.9,0.1-1.5,0.1c-0.4,2.1-0.8,4.1-1.4,6c-0.9,3.5-2.1,6.8-3.4,10.1
			c-2.5,6.6-7,12.2-10.6,18.3c-3.6,6-7.3,12.1-11.1,18c-2.4,3.7-4.8,7.4-7.2,11.2c0.9,0.3,2,0,2.6-0.8c2.4-3.4,4.6-6.8,6.9-10.2
			c1.2-1.8,2.4-3.6,3.6-5.5c1.3-2,2.6-4,3.8-6c0.5-0.8,1.1-1.6,1.6-2.5C501.7,158.3,503.2,155.8,504.7,153.4z"/>
		<path class="st8" d="M486.8,165.2c-0.8,2-1.5,4-2.3,6.1c2.6-6.2,5.2-12.5,7.9-18.6c2.8-6.5,4.8-13.4,8.7-19.2
			c1.9-3,3.9-5.9,6.3-8.6c0.9-1.1,1.8-2.1,2.8-3.2c-0.4-0.1-0.9-0.2-1.3-0.3c-0.4,0.4-0.8,0.9-1.2,1.4c-2,2.3-3.9,4.8-5.8,7.7
			c-2.6,3.8-4.2,8.1-5.7,12.2c-0.7,1.7-1.3,3.5-2,5.2c-1.9,4.5-3.8,9.1-5.7,13.7c-0.4,1-0.8,2-1.2,3.1
			C487,164.8,486.9,165,486.8,165.2z"/>
		<path class="st9" d="M500,156.6c3.6-6,8.1-11.6,10.6-18.3c1.3-3.3,2.5-6.6,3.4-10.1c0.5-2,1-4,1.4-6c-1.2-0.1-2.5-0.3-4-0.4
			c-0.5,0-0.9-0.1-1.3-0.2c-1,1-1.9,2.1-2.8,3.2c-2.3,2.8-4.4,5.7-6.3,8.6c-3.9,5.9-5.9,12.8-8.7,19.2c-2.7,6.2-5.3,12.4-7.9,18.6
			c0,0,0,0,0,0c-1.5,3.8-3,7.6-4.3,11.5c-0.3,1,0,2.1,1.1,2.8c0.1,0.1,0.3,0.1,0.4,0.1c2.4-3.7,4.8-7.4,7.2-11.2
			C492.7,168.6,496.4,162.6,500,156.6z"/>
		<path class="st8" d="M522.9,125.3c0.1,0,0.2,0.1,0.2,0.1c2.7,1.3,5.7,2.4,9.1,3.4c4.3,1.4,8.9,1.8,13.3,2.1
			c1.9,0.1,3.7,0.3,5.6,0.5c6.2,0.8,12.5,1.5,18.7,2.1c0.3,0,0.5,0,0.8,0.1c1.9,0.2,3.9,0.3,5.8,0.5c4.1,0.4,8.1,0.7,12.2,1
			c1,0.1,1.9-0.6,2.3-1.5c-4.4-0.4-8.8-0.9-13.2-1.3c-7-0.7-14-1.6-21-2.5c-7-0.9-14.2-0.9-20.9-3c-3.4-1-6.7-2.2-10-3.6
			c-2.1-0.9-4.2-1.9-6.2-3.1c-0.4,1.3-1.3,1.8-2.4,2c0.5,0.3,0.9,0.6,1.4,0.9C519.7,123.8,521.2,124.5,522.9,125.3z"/>
		<path class="st8" d="M519.4,115.2c0.1,0.3,0.2,0.7,0.2,1.1c2.5-0.3,5-0.5,7.4-0.5c3.6-0.1,7.1,0.1,10.7,0.5
			c7.1,0.6,13.7,3.3,20.5,5.1c6.5,1.7,13,3.5,19.5,5.4c-1.5-0.5-2.9-0.9-4.4-1.4c-0.6-0.2-1.2-0.4-1.8-0.6c-6-1.8-12-3.6-18.1-5.2
			c-1.8-0.5-3.6-1.1-5.3-1.6c-4.2-1.4-8.5-2.8-13.1-3.1c-3.5-0.3-6.7-0.4-9.7-0.3c-1,0-1.9,0.1-2.7,0.2c-1,0.1-2,0.2-2.9,0.3
			C519.5,115.2,519.4,115.2,519.4,115.2z"/>
		<path class="st9" d="M525.5,123.2c3.3,1.5,6.7,2.6,10,3.6c6.7,2.1,13.9,2.1,20.9,3c7,0.9,14,1.8,21,2.5c4.4,0.4,8.8,0.9,13.2,1.3
			c0.1-0.1,0.1-0.2,0.2-0.4c0.1-1.3-0.5-2.3-1.5-2.6c-3.9-1.3-7.8-2.6-11.7-3.8c0,0,0,0,0,0c-6.5-1.9-13-3.7-19.5-5.4
			c-6.8-1.8-13.4-4.6-20.5-5.1c-3.5-0.4-7.1-0.6-10.7-0.5c-2.4,0-4.9,0.2-7.4,0.5c0,0.4,0.1,0.8,0.1,1.3c0,1.1-0.1,1.9-0.4,2.6
			C521.3,121.3,523.4,122.3,525.5,123.2z"/>
		<path class="st8" d="M511.4,121.7c1.5,0.1,2.8,0.4,4,0.4c0.5,0,1,0,1.5-0.1c1.1-0.2,2-0.7,2.4-2c0.2-0.6,0.4-1.5,0.4-2.6
			c0-0.5,0-0.9-0.1-1.3c0-0.4-0.1-0.8-0.2-1.1c-0.5-1.5-1.5-2.1-2.8-2.2c-1.4-0.1-3.2,0.2-5.1,0.4c0,0,0,0-0.1,0
			c-0.4,0-0.9,0.1-1.3,0.2c-3.9,0.7-6.9,2.6-6.9,4c0,1.2,2.4,2.9,5.6,3.7c0.4,0.1,0.8,0.2,1.3,0.3
			C510.5,121.6,511,121.7,511.4,121.7z M505,116.6c0-0.9,3-1.6,5.7-1.8c0.6-0.1,1.3-0.1,1.9-0.2c0.9-0.1,1.7-0.2,2.5-0.2
			c1.1,0,2.7,0,2.7,2.2c0,2.2-1.6,2.2-2.7,2.2c-0.7,0-1.6-0.1-2.5-0.2c-0.6-0.1-1.2-0.1-1.9-0.2C508,118.2,505,117.5,505,116.6z"/>
		<path class="st9" d="M512.6,118.7c0.9,0.1,1.7,0.2,2.5,0.2c1.1,0,2.7,0,2.7-2.2c0-2.2-1.6-2.2-2.7-2.2c-0.7,0-1.6,0.1-2.5,0.2
			c-0.6,0.1-1.2,0.1-1.9,0.2c-2.7,0.2-5.7,0.9-5.7,1.8c0,0.9,3,1.6,5.7,1.8C511.4,118.5,512,118.6,512.6,118.7z"/>
	</g>
</g>
</svg>
