<?xml version="1.0" standalone="no"?>
<!DOCTYPE svg PUBLIC "-//W3C//DTD SVG 20010904//EN"
 "http://www.w3.org/TR/2001/REC-SVG-20010904/DTD/svg10.dtd">
<svg version="1.0" xmlns="http://www.w3.org/2000/svg"
 width="303.000000pt" height="303.000000pt" viewBox="0 0 303.000000 303.000000"
 preserveAspectRatio="xMidYMid meet">
<metadata>
Created by potrace 1.11, written by Peter Selinger 2001-2013
</metadata>
<g transform="translate(0.000000,303.000000) scale(0.100000,-0.100000)"
fill="#000000" stroke="none">
<path d="M1325 2964 c-320 -48 -602 -190 -830 -419 -180 -179 -306 -393 -370
-629 -29 -107 -30 -113 -44 -207 -10 -67 -8 -342 3 -394 4 -16 11 -55 17 -85
18 -98 72 -253 126 -357 73 -146 151 -252 272 -373 204 -203 442 -333 728
-396 56 -13 132 -18 273 -20 172 -3 208 0 305 20 293 62 527 187 736 396 229
228 365 499 416 825 10 67 10 336 0 404 -38 246 -134 476 -278 668 -28 38 -95
111 -148 163 -193 189 -412 310 -681 377 -92 23 -129 26 -300 29 -107 1 -208
0 -225 -2z m445 -165 c539 -106 950 -536 1035 -1084 14 -87 14 -328 1 -385 -4
-14 -9 -38 -11 -55 -67 -381 -344 -741 -708 -919 -747 -364 -1646 68 -1833
879 -25 109 -28 141 -28 285 -1 157 6 214 39 338 97 363 340 662 674 828 147
72 310 119 456 131 39 3 71 6 72 7 11 9 219 -8 303 -25z"/>
<path d="M1315 2679 c-242 -44 -445 -150 -620 -324 -246 -243 -371 -580 -343
-920 8 -105 15 -143 44 -244 127 -437 523 -773 979 -830 74 -9 266 -7 325 3
251 45 474 158 646 330 223 224 338 495 343 811 4 270 -74 513 -234 726 -183
245 -441 399 -760 455 -87 15 -279 12 -380 -7z m-74 -504 c32 -20 129 -136
129 -154 0 -11 -6 -26 -14 -33 -7 -7 -71 -67 -141 -133 -71 -66 -145 -136
-165 -155 -128 -125 -170 -160 -190 -160 -24 0 -135 109 -151 148 -12 30 -3
46 63 107 73 67 327 306 346 325 36 35 83 68 95 66 6 -1 19 -6 28 -11z m643
-19 c22 -21 91 -86 319 -299 69 -65 129 -127 132 -138 4 -11 0 -31 -9 -45 -31
-47 -123 -134 -142 -134 -10 0 -32 11 -48 25 -41 35 -272 252 -379 356 -105
102 -105 101 -18 195 71 78 98 85 145 40z m-810 -1055 c140 -132 252 -181 421
-187 186 -7 320 46 466 183 101 94 119 100 186 56 75 -48 76 -90 4 -180 -225
-280 -670 -369 -1005 -201 -89 45 -177 110 -235 174 -93 105 -99 151 -28 204
68 50 93 44 191 -49z"/>
</g>
</svg>
