<?xml version="1.0" encoding="UTF-8"?><!DOCTYPE svg PUBLIC "-//W3C//DTD SVG 1.1//EN" "http://www.w3.org/Graphics/SVG/1.1/DTD/svg11.dtd"><svg xmlns="http://www.w3.org/2000/svg" xmlns:xlink="http://www.w3.org/1999/xlink"><symbol id="arrow-left" viewBox="0 0 642.8 500">
<title>Icon/Arrow right/Grey</title>
<desc>Created with Sketch.</desc>
<path class="st0" d="M2.7,263.6c1.8,4.4,4.4,8.3,7.7,11.6l214.3,214.3c13.9,13.9,36.6,13.9,50.5,0c13.9-13.9,13.9-36.6,0-50.5
	L121.9,285.7h485.2c19.7,0,35.7-16,35.7-35.7s-16-35.7-35.7-35.7H121.9L275.2,61c13.9-13.9,13.9-36.6,0-50.5
	c-13.9-13.9-36.6-13.9-50.5,0L10.4,224.7c-3.3,3.3-5.9,7.2-7.7,11.6C-0.9,245.1-0.9,254.9,2.7,263.6z"/>
</symbol><symbol id="arrow-right" viewBox="0 0 500 500">
<title>Icon/Arrow right/Grey</title>
<desc>Created with Sketch.</desc>
<path class="st0" d="M497.9,239.4c-1.4-3.4-3.4-6.5-6-9L325.2,63.7c-10.8-10.8-28.5-10.8-39.3,0s-10.8,28.5,0,39.3l119.2,119.2H27.8
	C12.4,222.2,0,234.7,0,250c0,15.3,12.4,27.8,27.8,27.8h377.4L285.9,397c-10.8,10.8-10.8,28.5,0,39.3s28.5,10.8,39.3,0l166.7-166.7
	c2.6-2.6,4.6-5.6,6-9C500.7,253.8,500.7,246.2,497.9,239.4z"/>
</symbol><symbol id="ausgreen" viewBox="0 0 70 70">
	<g stroke="#ed193a" stroke-width="2" fill="none" fill-rule="evenodd" stroke-linecap="round" stroke-linejoin="round">
		<path d="M64.8 27.8c1.8 2.4 3.9 5 3.8 8.7 -0.1 3.7-1.1 8-4.4 13.2 -1 2-1.5 3.2-1.6 3.9 0 0.7 0.4 2.4-2.2 2.9 -2.6 0.5-3.7 1.3-4.8 0.8 -1.1-0.5-2-1.2-2-1.2s-1.9 1.7-3.8 1.7c-1.9 0-7.3-4.2-8.2-7.6 -0.8 0.5-1.4 0.9-1.8 0.8S38.9 51 36.3 48.7c-2.6-2.3-4.1-2.8-6.1-2.7 -2 0.2-6.9 3-14 7.7 -4.6 2.2-6.3 1.6-7.5 0.5C8.4 53.9 8.1 53.2 8.1 52c0-1.1 0.4-1.7-1.6-4.1 -1.9-2.4-6.4-12.2-4.7-17s7.8-3.4 10.6-6.3 2.2-5.7 6.7-10.3c2.1-2.1 2.2-2.8 5.1-1.3l1.4 0.9c0 0 0.8-2.2 1.1-2.9s0.2-2 2.9-2.4c2.7-0.4 8.4-0.7 10.2 0.2"/><line x1="48.6" y1="35.9" x2="48.6" y2="17.1"/><path d="M43.9 9.9c0-2.6 2.1-8.2 4.8-8.2s4.8 5.6 4.8 8.3 -2.1 6.9-4.7 6.9S43.9 12.5 43.9 9.9z"/><path d="M51.3 18.7c2.1-2.1 8.2-4.8 10.3-2.8s-0.7 8.2-2.8 10.3 -7.2 3.8-9.2 1.7C47.5 25.9 49.2 20.8 51.3 18.7z"/><path d="M46 18.7c-2.1-2.1-8.2-4.8-10.3-2.8s0.7 8.2 2.8 10.3c2.1 2.1 7.2 3.8 9.2 1.7S48.1 20.8 46 18.7z"/><path d="M56.8 68.2c2.8 0 4.6-2.9 4.6-5.1s-1.6-2.6-2.3-2.6 -2 0.3-2.5 0.3c-0.4 0-2.1-0.6-2.8-0.4 -0.7 0.1-1.9 1.1-1.2 3.6S54.7 68.2 56.8 68.2z"/>
	</g>
</symbol><symbol id="chevron-down-small" viewBox="0 0 500 285.7">
<path d="M250,246.7c-5.9,0-11.8-2.3-16.3-6.8L96,102.2c-9-9-9-23.5,0-32.5s23.5-9,32.5,0L250,191.3L371.5,69.8c9-9,23.5-9,32.5,0
	c8.9,9,9,23.5,0,32.5L266.3,240C261.8,244.4,255.8,246.7,250,246.7z"/>
</symbol><symbol id="chevron-down" viewBox="0 0 500 285.7">
<path class="st0" d="M250,285.7c-9.1,0-18.3-3.5-25.3-10.5L10.5,61c-14-14-14-36.6,0-50.5s36.6-14,50.5,0l189,189l189-189
	c14-14,36.6-14,50.5,0s14,36.6,0,50.5L275.3,275.3C268.3,282.2,259.1,285.7,250,285.7z"/>
</symbol><symbol id="chevron-left-double" viewBox="0 0 10 8.67"><title>chevron-left-double</title><g id="Layer_2" data-name="Layer 2"><g id="Layer_1-2" data-name="Layer 1"><g id="Layer_2-2" data-name="Layer 2"><g id="Layer_1-2-2" data-name="Layer 1-2"><g id="Page-1"><g id="_4.0_Blog_Listing_SML" data-name=" 4.0 Blog Listing SML"><g id="Icon_Chevrons-right_Grey" data-name="Icon Chevrons-right Grey"><g id="chevrons-right"><path id="Shape" d="M4.33,0A1,1,0,0,1,5,.3,1,1,0,0,1,5,1.67L2.41,4.34,5,7A1,1,0,0,1,5,8.37H5a1,1,0,0,1-1.41,0L.29,5A1,1,0,0,1,0,4.34a1,1,0,0,1,.29-.67L3.63.3A1,1,0,0,1,4.33,0Z"/><path id="Shape-2" d="M9,0a1,1,0,0,1,1,1,1,1,0,0,1-.26.64L7.08,4.34,9.71,7A1,1,0,0,1,8.29,8.38L5,5a1,1,0,0,1-.29-.7A1,1,0,0,1,5,3.67L8.29.3A1,1,0,0,1,9,0Z"/></g></g></g></g></g></g></g></g></symbol><symbol id="chevron-left" viewBox="0 0 285.7 500">
<path class="st0" d="M0,250c0-9.1,3.5-18.3,10.5-25.3L224.7,10.5c14-14,36.6-14,50.5,0c14,14,14,36.6,0,50.5l-189,189l189,189
	c14,14,14,36.6,0,50.5c-14,14-36.6,14-50.5,0L10.5,275.3C3.5,268.3,0,259.1,0,250z"/>
</symbol><symbol id="chevron-right-double" viewBox="0 0 10 8.67"><g id="Layer_2" data-name="Layer 2"><g id="Layer_1-2" data-name="Layer 1"><g id="Page-1"><g id="_4.0_Blog_Listing_SML" data-name="4.0_Blog_Listing_SML"><g id="Icon_Chevrons-right_Grey" data-name="Icon/Chevrons-right/Grey"><g id="chevrons-right"><path class="cls-1" d="M5.67 8.67a1 1 0 0 1-.67-.3A1 1 0 0 1 5 7l2.59-2.67L5 1.71A1 1 0 0 1 5 .29a1 1 0 0 1 1.41 0l3.3 3.34a1 1 0 0 1 .29.7 1 1 0 0 1-.29.67L6.37 8.37a1 1 0 0 1-.7.3z" id="Shape"/><path class="cls-1" d="M1 8.67A1 1 0 0 1 .29 7l2.63-2.67L.29 1.71A1 1 0 0 1 1.71.29L5 3.63a1 1 0 0 1 .29.7A1 1 0 0 1 5 5L1.71 8.37a1 1 0 0 1-.71.3z" id="Shape-2" data-name="Shape"/></g></g></g></g></g></g></symbol><symbol id="chevron-right" viewBox="0 0 285.7 500">
<path class="st0" d="M285.7,250c0,9.1-3.5,18.3-10.5,25.3L61,489.5c-14,14-36.6,14-50.5,0s-14-36.6,0-50.5l189-189L10.5,61
	c-14-14-14-36.6,0-50.5s36.6-14,50.5,0l214.3,214.3C282.2,231.7,285.7,240.9,285.7,250z"/>
</symbol><symbol id="chevron-up" viewBox="0 0 500 285.7">
<path class="st0" d="M250,0c9.1,0,18.3,3.5,25.3,10.5l214.3,214.3c14,14,14,36.6,0,50.5c-14,14-36.6,14-50.5,0l-189-189l-189,189
	c-14,14-36.6,14-50.5,0c-14-14-14-36.6,0-50.5L224.7,10.5C231.7,3.5,240.9,0,250,0z"/>
</symbol><symbol id="conversation" viewBox="0 0 68 59">
    <!-- Generator: Sketch 50.2 (55047) - http://www.bohemiancoding.com/sketch -->
    <title>LargeIcon/Leaf Copy 3</title>
    <desc>Created with Sketch.</desc>

    <g id="Design-system" stroke="none" stroke-width="1" fill="none" fill-rule="evenodd" stroke-linecap="round" stroke-linejoin="round">
        <g id="2-Icons" transform="translate(-713.000000, -1641.000000)" stroke="#ed193a">
            <g id="LargeIcon/Conversation" transform="translate(707.000000, 1631.000000)">
                <g id="Group" transform="translate(7.000000, 11.000000)">
                    <path d="M31,46.6666667 C31,48.5689808 29.4578697,50.1111111 27.5555556,50.1111111 L6.88888889,50.1111111 L0,57 L0,29.4444444 C0,27.5421303 1.54213031,26 3.44444444,26 L27.5555556,26 C29.4578697,26 31,27.5421303 31,29.4444444 L31,46.6666667 Z" id="Shape" stroke-width="2" fill="#ed193a"/>
                    <path d="M66,33.3333333 C66,36.4015819 63.5126931,38.8888889 60.4444444,38.8888889 L27.1111111,38.8888889 L16,50 L16,5.55555556 C16,2.48730695 18.4873069,0 21.5555556,0 L60.4444444,0 C63.5126931,0 66,2.48730695 66,5.55555556 L66,33.3333333 Z" id="Shape" stroke-width="2" fill="#FFFFFF" transform="translate(41.000000, 25.000000) scale(-1, 1) translate(-41.000000, -25.000000) "/>
                </g>
            </g>
        </g>
    </g>
</symbol><symbol id="cross" viewBox="0 0 500 500">
<title>Icon/X/Grey</title>
<desc>Created with Sketch.</desc>
<path class="st0" d="M300.5,250l189-189c14-14,14-36.6,0-50.5s-36.6-14-50.5,0l-189,189L61,10.5c-14-14-36.6-14-50.5,0
	s-14,36.6,0,50.5l189,189l-189,189c-14,14-14,36.6,0,50.5c7,7,16.1,10.5,25.3,10.5S54,496.5,61,489.5l189-189l189,189
	c7,7,16.1,10.5,25.3,10.5c9.1,0,18.3-3.5,25.3-10.5c14-14,14-36.6,0-50.5L300.5,250z"/>
</symbol><symbol id="dedicated-account" viewBox="0 0 70 70">
	<g stroke="#ed193a" stroke-width="2" fill="none" fill-rule="evenodd" stroke-linecap="round" stroke-linejoin="round">
		<path d="M34.98,34.42"/>
		<path class="st0" d="M58.4,10.83c-8.48-4.4-18.92-1.09-23.33,7.39c-0.03,0.05-0.05,0.1-0.08,0.15c-0.03-0.05-0.05-0.1-0.08-0.15
			c-4.4-8.48-14.84-11.79-23.33-7.39c-8.48,4.4-11.79,14.84-7.39,23.33c2.36,4.55,9.3,13.08,16.53,19.33
			c2.04-8.12,7.65-13.95,14.26-13.95c6.61,0,12.22,5.83,14.26,13.95c7.23-6.25,14.17-14.78,16.53-19.33
			C70.19,25.67,66.88,15.23,58.4,10.83z"/>
			<path class="st0" d="M49.26,53.49C44.15,57.9,38.9,61.18,35,61.12c-3.9,0.06-9.15-3.22-14.26-7.63"/>
			<path d="M27.8,29a7.2,7.2 0 1,0 14.4,0a7.2,7.2 0 1,0 -14.4,0"/>
	</g>
</symbol><symbol id="facebook" viewBox="0 0 500 846.2">
<title>Icon/Facebook/Grey</title>
<desc>Created with Sketch.</desc>
<g id="Icon_x2F_Facebook_x2F_Grey">
	<g id="facebook" transform="translate(6.000000, 2.000000)">
		<path class="st0" d="M301.7,844.2H147.8c-21.2,0-38.5-17.2-38.5-38.5V536.5H32.5C11.2,536.5-6,519.2-6,498V344.2
			c0-21.2,17.2-38.5,38.5-38.5h76.9v-76.9C109.4,101.5,212.9-2,340.2-2h115.4C476.8-2,494,15.2,494,36.5v153.8
			c0,21.2-17.2,38.5-38.5,38.5H340.2v76.9h115.4c11.9,0,23,5.5,30.3,14.8c7.3,9.3,9.9,21.5,7,33l-38.5,153.8
			c-4.3,17.1-19.7,29.1-37.3,29.1h-76.9v269.2C340.2,826.9,322.9,844.2,301.7,844.2z M186.3,767.2h76.9V498
			c0-21.2,17.2-38.5,38.5-38.5H387l19.2-76.9H301.7c-21.2,0-38.5-17.2-38.5-38.5V228.8c0-42.4,34.5-76.9,76.9-76.9h76.9V74.9h-76.9
			c-84.8,0-153.8,69-153.8,153.8v115.4c0,21.2-17.2,38.5-38.5,38.5H70.9v76.9h76.9c21.2,0,38.5,17.2,38.5,38.5V767.2z"/>
	</g>
</g>
</symbol><symbol id="feather" viewBox="0 0 70 70">
    <!-- Generator: Sketch 50.2 (55047) - http://www.bohemiancoding.com/sketch -->
    <title>feather copy</title>
    <desc>Created with Sketch.</desc>

    <g id="Symbols" stroke="none" stroke-width="1" fill="none" fill-rule="evenodd" stroke-linecap="round" stroke-linejoin="round">
        <g id="LargeIcon/Leaf" transform="translate(-5.000000, -5.000000)" stroke="#ed193a" stroke-width="2">
            <g id="feather-copy" transform="translate(6.666667, 3.333333)">
                <path d="M60.8,37.4666667 C68.6148292,29.6518375 68.6148292,16.9814959 60.8,9.16666667 C52.9851708,1.35183746 40.3148292,1.35183746 32.5,9.16666667 L10,31.6666667 L10,60 L38.3333333,60 L60.8,37.4666667 Z" id="Shape"/>
                <path d="M46.6666667,23.3333333 L0,70" id="Shape"/>
                <path d="M50,46.6666667 L23.3333333,46.6666667" id="Shape"/>
            </g>
        </g>
    </g>
</symbol><symbol id="file"><path class="st0" d="M500 193.1c-.4-7.2-3.5-13.7-8.3-18.4L325.4 8.3C321 3.8 315 .8 308.3.1h-.2c-.4 0-.8-.1-1.2-.1H83.3C37.4 0 0 37.4 0 83.3v444.4c0 46 37.4 83.3 83.3 83.3h333.3c46 0 83.3-37.4 83.3-83.3V194.4c.1-.4.1-.9.1-1.3zM333.3 94.8l71.8 71.8h-71.8V94.8zm83.4 460.8H83.3c-15.3 0-27.8-12.5-27.8-27.8V83.3C55.6 68 68 55.6 83.3 55.6h194.4v138.9c0 15.3 12.4 27.8 27.8 27.8h138.9v305.6c0 15.2-12.4 27.7-27.7 27.7z"/><path class="st0" d="M361.1 305.6H138.9c-15.3 0-27.8 12.4-27.8 27.8s12.4 27.8 27.8 27.8h222.2c15.4 0 27.8-12.4 27.8-27.8s-12.4-27.8-27.8-27.8zM361.1 416.7H138.9c-15.3 0-27.8 12.4-27.8 27.8s12.4 27.8 27.8 27.8h222.2c15.4 0 27.8-12.4 27.8-27.8s-12.4-27.8-27.8-27.8zM138.9 250h55.6c15.3 0 27.8-12.4 27.8-27.8 0-15.3-12.4-27.8-27.8-27.8h-55.6c-15.3 0-27.8 12.4-27.8 27.8s12.4 27.8 27.8 27.8z"/></symbol><symbol id="green-rating" viewBox="0 0 500 100">
<path class="leaf" d="M14.9,87.6c-7.2-9.7-8.6-39.7,10.8-54S71.9,21.3,84.5,7.4c2.7,21.6,3.8,44.9-12,62.4
    C59.8,83.7,40,85.9,23.3,92.6c0-10,2.3-27.3,31.3-48.7C18.7,62.3,14.9,87.6,14.9,87.6z"/>
<path class="leaf" d="M115.9,87.6c-7.2-9.7-8.6-39.7,10.8-54s46.2-12.3,58.8-26.2c2.7,21.6,3.8,44.9-12,62.4
    c-12.7,13.9-32.5,16.1-49.2,22.8c0-10,2.3-27.3,31.3-48.7C119.7,62.3,115.9,87.6,115.9,87.6z"/>
<path class="leaf" d="M216.8,87.6c-7.2-9.7-8.6-39.7,10.8-54s46.2-12.3,58.8-26.2c2.7,21.6,3.8,44.9-12,62.4
    c-12.7,13.9-32.5,16.1-49.2,22.8c0-10,2.3-27.3,31.3-48.7C220.6,62.3,216.8,87.6,216.8,87.6z"/>
<path class="leaf" d="M317.8,87.6c-7.2-9.7-8.6-39.7,10.8-54c19.4-14.3,46.2-12.3,58.8-26.2c2.7,21.6,3.8,44.9-12,62.4
    c-12.7,13.9-32.5,16.1-49.2,22.8c0-10,2.3-27.3,31.3-48.7C321.6,62.3,317.8,87.6,317.8,87.6z"/>
<path class="leaf-last" d="M418.8,87.6c-7.2-9.7-8.6-39.7,10.8-54c19.4-14.3,46.2-12.3,58.8-26.2
    c2.7,21.6,3.8,44.9-12,62.4c-12.7,13.9-32.5,16.1-49.2,22.8c0-10,2.3-27.3,31.3-48.7C422.6,62.3,418.8,87.6,418.8,87.6z"/>
</symbol><symbol id="greenpower" viewBox="0 0 67 73">
    <!-- Generator: Sketch 50.2 (55047) - http://www.bohemiancoding.com/sketch -->
    <title>Group</title>
    <desc>Created with Sketch.</desc>

    <g id="Symbols" stroke="none" stroke-width="1" fill="none" fill-rule="evenodd">
        <g id="LargeIcon/GreenPower" transform="translate(-6.000000, -4.000000)">
            <g id="Group" transform="translate(6.000000, 4.000000)">
                <path d="M56,15.6923828 L56,51.5 C56,62.8218374 46.8218374,72 35.5,72 C24.1781626,72 15,62.8218374 15,51.5 L15,37.0350342" id="Rectangle-9" stroke="#ed193a" stroke-width="2"/>
                <path d="M29,18 L3,18 L3,30 C3,33.8659932 6.13400675,37 10,37 L22,37 C25.8659932,37 29,33.8659932 29,30 L29,18 Z" id="Rectangle-6" stroke="#ed193a" stroke-width="2"/>
                <rect id="Rectangle-4" stroke="#ed193a" stroke-width="2" x="1" y="15" width="29" height="3" rx="1.5"/>
                <path d="M8,13.0473965 L12,13.0319343 L12,3 C12,1.8954305 11.1045695,1 10,1 C8.8954305,1 8,1.8954305 8,3 L8,13.0473965 Z" id="Rectangle-7" stroke="#ed193a" stroke-width="2"/>
                <path d="M20,13.0473965 L24,13.0319343 L24,3 C24,1.8954305 23.1045695,1 22,1 C20.8954305,1 20,1.8954305 20,3 L20,13.0473965 Z" id="Rectangle-7-Copy" stroke="#ed193a" stroke-width="2"/>
                <rect id="Rectangle-8" fill="#ed193a" x="9" y="23" width="14" height="3" rx="1.5"/>
                <rect id="Rectangle-8-Copy" fill="#ed193a" x="9" y="29" width="14" height="3" rx="1.5"/>
                <path d="M46,34.3296323 L46,17.1396272 C46,11.8569035 50.2824937,7.57440982 55.5652174,7.57440982 L56.4347826,7.57440982 C61.7175063,7.57440982 66,11.8569035 66,17.1396272 C66,25.6602718 66,31.3902735 66,34.3296323 C66,35.0617711 62.6666667,38.8768611 56,45.7749023 C56,45.8640951 52.6666667,42.049005 46,34.3296323 Z" id="Rectangle" stroke="#ed193a" stroke-width="2"/>
                <path d="M66,24 L56,34" id="Path-3" stroke="#ed193a" stroke-width="2"/>
            </g>
        </g>
    </g>
</symbol><symbol id="home" viewBox="0 0 500 550">
<title>Home</title>
<path class="st0" d="M490.3,180.3l-225-175c-9-7-21.7-7-30.7,0l-225,175C3.6,185,0,192.3,0,200v275c0,41.4,33.6,75,75,75h350
	c41.4,0,75-33.6,75-75V200C500,192.3,496.4,185,490.3,180.3z M300,500H200V300h100V500z M450,475c0,13.8-11.2,25-25,25h-75V275
	c0-13.8-11.2-25-25-25H175c-13.8,0-25,11.2-25,25v225H75c-13.8,0-25-11.2-25-25V212.2L250,56.7l200,155.6V475z"/>
</symbol><symbol id="instagram" viewBox="0 0 500 500">
<title>Icon/Insta/Grey</title>
<desc>Created with Sketch.</desc>
<g id="Icon_x2F_Insta_x2F_Grey">
	<g id="instagram" transform="translate(2.000000, 2.000000)">
		<path class="st0" d="M361.6,498H134.4C59.2,498-2,436.8-2,361.6V134.4C-2,59.2,59.2-2,134.4-2h227.3C436.8-2,498,59.2,498,134.4
			v227.3C498,436.8,436.8,498,361.6,498z M134.4,43.5c-50.1,0-90.9,40.8-90.9,90.9v227.3c0,50.1,40.8,90.9,90.9,90.9h227.3
			c50.1,0,90.9-40.8,90.9-90.9V134.4c0-50.1-40.8-90.9-90.9-90.9H134.4z"/>
		<path class="st0" d="M248.9,360.7c-29.4,0-58.4-11.5-80.3-33.3c-34.7-34.7-43.2-87.6-21.2-131.4c22.1-43.9,69.5-68.6,118.2-61.3
			c49.9,7.4,88.3,45.9,95.7,95.7v0c7.2,48.6-17.4,96.1-61.3,118.2C283.8,356.7,266.3,360.7,248.9,360.7z M248.9,178.8
			c-25.5,0-49.1,14.2-60.8,37.5c-13.3,26.3-8.2,58,12.7,78.9c20.8,20.9,52.6,25.9,78.9,12.7c26.3-13.2,41.1-41.7,36.8-70.9l0,0
			c-4.4-29.9-27.5-53-57.4-57.5C255.6,179.1,252.2,178.8,248.9,178.8z"/>
	</g>
</g>
</symbol><symbol id="linked-in" viewBox="0 0 500 477.3">
<title>Icon/Linkedin/Grey</title>
<desc>Created with Sketch.</desc>
<g id="Icon_x2F_Linkedin_x2F_Grey">
	<g id="linkedin" transform="translate(2.000000, 3.000000)">
		<path class="st0" d="M475.3,474.3h-90.9c-12.6,0-22.7-10.2-22.7-22.7V292.5c0-12.5-10.2-22.7-22.7-22.7s-22.7,10.2-22.7,22.7
			v159.1c0,12.6-10.2,22.7-22.7,22.7h-90.9c-12.6,0-22.7-10.2-22.7-22.7V292.5c0-87.7,71.4-159.1,159.1-159.1
			c87.7,0,159.1,71.4,159.1,159.1v159.1C498,464.1,487.8,474.3,475.3,474.3z M407.1,428.8h45.5V292.5c0-62.7-51-113.6-113.6-113.6
			s-113.6,51-113.6,113.6v136.4h45.5V292.5c0-37.6,30.6-68.2,68.2-68.2s68.2,30.6,68.2,68.2V428.8z"/>
		<path class="st0" d="M111.6,474.3H20.7C8.2,474.3-2,464.1-2,451.5V178.8c0-12.6,10.2-22.7,22.7-22.7h90.9
			c12.6,0,22.7,10.2,22.7,22.7v272.7C134.4,464.1,124.2,474.3,111.6,474.3z M43.5,428.8h45.5V201.5H43.5V428.8z"/>
		<path class="st0" d="M66.2,133.4C28.6,133.4-2,102.8-2,65.2S28.6-3,66.2-3s68.2,30.6,68.2,68.2S103.8,133.4,66.2,133.4z
			 M66.2,42.5c-12.5,0-22.7,10.2-22.7,22.7s10.2,22.7,22.7,22.7s22.7-10.2,22.7-22.7S78.7,42.5,66.2,42.5z"/>
	</g>
</g>
</symbol><symbol id="loader"><g fill="#464646"><path d="M11 6c-.6 0-1-.4-1-1V1c0-.6.4-1 1-1s1 .4 1 1v4c0 .6-.4 1-1 1z"/><path d="M11 22c-.6 0-1-.4-1-1v-4c0-.6.4-1 1-1s1 .4 1 1v4c0 .6-.4 1-1 1z" opacity=".6"/><path d="M6.8 7.8c-.3 0-.5-.1-.7-.3L3.2 4.6c-.4-.4-.4-1 0-1.4s1-.4 1.4 0L7.4 6c.4.4.4 1 0 1.4-.1.3-.4.4-.6.4z" opacity=".9"/><path d="M18.1 19.1c-.3 0-.5-.1-.7-.3L14.6 16c-.4-.4-.4-1 0-1.4s1-.4 1.4 0l2.8 2.8c.4.4.4 1 0 1.4-.2.2-.5.3-.7.3z" opacity=".5"/><path d="M5 12H1c-.6 0-1-.4-1-1s.4-1 1-1h4c.6 0 1 .4 1 1s-.4 1-1 1z" opacity=".8"/><path d="M21 12h-4c-.6 0-1-.4-1-1s.4-1 1-1h4c.6 0 1 .4 1 1s-.4 1-1 1z" opacity=".4"/><path d="M3.9 19.1c-.3 0-.5-.1-.7-.3-.4-.4-.4-1 0-1.4L6 14.6c.4-.4 1-.4 1.4 0s.4 1 0 1.4l-2.8 2.8c-.2.2-.4.3-.7.3z" opacity=".7"/><path d="M15.2 7.8c-.3 0-.5-.1-.7-.3-.4-.4-.4-1 0-1.4l2.8-2.8c.4-.4 1-.4 1.4 0s.4 1 0 1.4l-2.8 2.8c-.1.2-.4.3-.7.3z" opacity=".3"/></g></symbol><symbol id="maxsave" viewBox="0 0 70 70">
	<g stroke="#ed193a" stroke-width="2" fill="none" fill-rule="evenodd" stroke-linecap="round" stroke-linejoin="round">
		<path d="M52.9 42.5h5.4c0-12.9-10.4-23.3-23.3-23.3S11.7 29.6 11.7 42.5h3.7"/><path d="M28.8 51c1.2 1.5 3.6 2.7 6 2.7 2.3 0 3.6-0.9 3.6-2.4 0-1.7-2-2.2-4.3-2.8 -2.8-0.6-6.5-1.7-6.5-5.9 0-3 2.2-5.2 5.6-5.9v-1.2c0-1.5 0.5-2.2 1.8-2.2h0.2c1.3 0 1.8 0.7 1.8 2.2v1.1c3.5 0.4 5.5 2 5.5 3.6 0 1.4-1.6 2.4-1.7 2.3 -1.2-1.4-3.3-2.4-5.4-2.4 -2.1 0-3.4 1-3.4 2.4 0 1.7 1.7 2.1 4.2 2.6 2.9 0.6 6.8 1.8 6.8 6 0 3.2-2.2 5.4-5.9 6v1.2c0 1.5-0.6 2.2-1.8 2.2h-0.2c-1.3 0-1.8-0.7-1.8-2.2v-1.2c-3.8-0.4-6-2.2-6-3.9C27.1 51.8 28.7 50.8 28.8 51z"/><line x1="35" y1="9.6" x2="35" y2="15.5"/><line x1="18.5" y1="14" x2="21.5" y2="19.1"/><line x1="6.5" y1="26" x2="11.6" y2="29"/><line x1="2.1" y1="42.5" x2="8" y2="42.5"/><line x1="68" y1="42.5" x2="62" y2="42.5"/><line x1="63.5" y1="26" x2="58.4" y2="29"/><line x1="51.5" y1="14" x2="48.5" y2="19.1"/>
	</g>
</symbol><symbol id="more-horizontal" viewBox="0 0 18 4"><g id="Layer_2" data-name="Layer 2"><g id="Layer_1-2" data-name="Layer 1"><circle class="cls-1" cx="9" cy="2" r="2"/><circle class="cls-1" cx="16" cy="2" r="2"/><circle class="cls-1" cx="2" cy="2" r="2"/></g></g></symbol><symbol id="phone-bold" viewBox="0 0 500 500.87">
  <g data-name="Layer 2">
    <path d="M441 294.67a271.37 271.37 0 0 1-59.39-14.77 68.49 68.49 0 0 0-72.25 15.44l-16.47 16.47a342.71 342.71 0 0 1-104.71-104.76l16.38-16.38a68.57 68.57 0 0 0 15.51-72.38 270.1 270.1 0 0 1-14.72-59.14A68.59 68.59 0 0 0 136.79 0H68.48A68.54 68.54 0 0 0 .28 74.7 475.26 475.26 0 0 0 74 283.11 468.22 468.22 0 0 0 218 427a474.59 474.59 0 0 0 206.92 73.55A68.52 68.52 0 0 0 500 432.1v-68.19a68.53 68.53 0 0 0-59-69.24zm13.3 137.52a22.83 22.83 0 0 1-24.9 22.93 428.79 428.79 0 0 1-186.76-66.54 423 423 0 0 1-130.21-130.14A429.48 429.48 0 0 1 45.74 70.23a22.86 22.86 0 0 1 22.77-24.54H137a22.9 22.9 0 0 1 23.07 19.64 315.47 315.47 0 0 0 17.21 69 22.88 22.88 0 0 1-5.12 24.15l-28.92 28.92a22.84 22.84 0 0 0-3.71 27.44 388.25 388.25 0 0 0 145.64 145.61 22.85 22.85 0 0 0 27.44-3.71l29-29a22.8 22.8 0 0 1 24-5.05 316.11 316.11 0 0 0 69.24 17.26c11.28 1.59 19.72 11.56 19.43 23.72z" data-name="Layer 1"/>
  </g>
</symbol><symbol id="phone-thin" viewBox="0 0 41 41">
<title>Icon/Home/Base</title>
<desc>Created with Sketch.</desc>
<g id="Page-1">
	<g id="_x32_.1_x5F_Getaprice_x5F_Business_x5F_LGE" transform="translate(-566.000000, -424.000000)">
		<g id="Icon_x2F_Phone_x2F_White" transform="translate(563.000000, 422.000000)">
			<g id="phone" transform="translate(3.833333, 3.833333)">
				<g id="Shape">
					<path class="st0" d="M34.5,39.2c-0.1,0-0.3,0-0.4,0c-6-0.7-11.9-2.7-17-6c-4.7-3-8.8-7.1-11.8-11.8c-3.3-5.1-5.4-11-6-17
						c-0.1-1.4,0.3-2.7,1.2-3.7C1.4-0.4,2.7-1,4-1h5.8c0,0,0,0,0,0c2.4,0,4.4,1.8,4.8,4.2c0.2,1.8,0.7,3.5,1.3,5.2
						c0.7,1.8,0.2,3.8-1.1,5.1l-1.9,1.9c2.5,4.1,6,7.6,10.1,10.1l1.9-1.9c1.3-1.3,3.3-1.8,5.1-1.1c1.7,0.6,3.4,1.1,5.2,1.3
						c2.4,0.3,4.2,2.4,4.2,4.9v5.7c0,1.4-0.6,2.7-1.6,3.6C36.9,38.7,35.7,39.2,34.5,39.2z M9.8,1C9.8,1,9.8,1,9.8,1H4
						C3.3,1,2.5,1.3,2,1.9C1.4,2.5,1.2,3.3,1.2,4.1C1.8,9.8,3.8,15.4,7,20.3c2.9,4.5,6.7,8.4,11.2,11.2c4.8,3.1,10.4,5.1,16.1,5.7
						c0.8,0.1,1.6-0.2,2.2-0.7c0.6-0.5,0.9-1.3,0.9-2.1v-5.8c0,0,0,0,0,0c0-1.4-1-2.7-2.4-2.9c-1.9-0.3-3.8-0.7-5.6-1.4
						c-1-0.4-2.2-0.1-3,0.6l-2.4,2.4c-0.3,0.3-0.8,0.4-1.2,0.2c-5-2.8-9.1-6.9-11.9-11.9c-0.2-0.4-0.2-0.9,0.2-1.2l2.4-2.4
						c0.8-0.8,1-2,0.6-3c-0.7-1.8-1.1-3.7-1.4-5.6C12.4,2,11.2,1,9.8,1z"/>
				</g>
			</g>
		</g>
	</g>
</g>
</symbol><symbol id="quick-signup" viewBox="0 0 70 70">
	<g stroke="#ed193a" stroke-width="2" fill="none" fill-rule="evenodd" stroke-linecap="round" stroke-linejoin="round">
		<circle cx="35" cy="35" r="33.6"/><circle cx="35" cy="35" r="28.3"/><polyline points="35 22.3 35 35.6 41.9 14.8 "/><line x1="35" y1="9.7" x2="35" y2="6.7"/><line x1="17.2" y1="17.1" x2="15.1" y2="15"/><line x1="9.8" y1="34.9" x2="6.8" y2="34.9"/><line x1="17.2" y1="52.7" x2="15.1" y2="54.8"/><line x1="35" y1="60.1" x2="35" y2="63.1"/><line x1="52.8" y1="52.7" x2="54.9" y2="54.8"/><line x1="60.2" y1="34.9" x2="63.2" y2="34.9"/><line x1="52.8" y1="17.1" x2="54.9" y2="15"/>
	</g>
</symbol><symbol id="search" viewBox="0 0 500 500">
<title>Icon/Search/Grey</title>
<desc>Created with Sketch.</desc>
<path class="st0" d="M492.7,457.3l-92-92C431.5,326.9,450,278,450,225C450,100.9,349.1,0,225,0C100.9,0,0,100.9,0,225
	c0,124.1,100.9,225,225,225c53,0,101.9-18.5,140.4-49.3l92,92c4.9,4.9,11.3,7.3,17.7,7.3s12.8-2.4,17.7-7.3
	C502.4,482.9,502.4,467.1,492.7,457.3z M50,225c0-96.5,78.5-175,175-175c96.5,0,175,78.5,175,175c0,47.4-19,90.5-49.7,122
	c-0.6,0.5-1.2,1-1.7,1.6s-1.1,1.1-1.6,1.7C315.5,381,272.4,400,225,400C128.5,400,50,321.5,50,225z"/>
</symbol><symbol id="shop" viewBox="0 0 53 70">
    <!-- Generator: Sketch 50.2 (55047) - http://www.bohemiancoding.com/sketch -->
    <title>LargeIcon/Leaf Copy 4</title>
    <desc>Created with Sketch.</desc>

    <g id="Design-system" stroke="none" stroke-width="1" fill="none" fill-rule="evenodd">
        <g id="2-Icons" transform="translate(-852.000000, -1636.000000)">
            <g id="LargeIcon/ShopPower" transform="translate(837.000000, 1631.000000)">
                <g id="smartphone" transform="translate(16.666667, 6.666667)">
                    <rect id="Rectangle-path" stroke="#ed193a" stroke-width="2" stroke-linecap="round" stroke-linejoin="round" x="0" y="0" width="50" height="66.6666667" rx="2"/>
                    <circle id="Oval-2" fill="#ed193a" cx="25" cy="58.3333333" r="1.66666667"/>
                    <polygon id="Shape" stroke="#ed193a" stroke-width="2" stroke-linecap="round" stroke-linejoin="round" points="28.3333333 9.33333333 18.3333333 21.3333333 27.3333333 21.3333333 26.3333333 29.3333333 36.3333333 17.3333333 27.3333333 17.3333333"/>
                    <circle id="Oval" stroke="#ed193a" stroke-width="2" stroke-linecap="round" stroke-linejoin="round" cx="19.8333333" cy="39.8333333" r="1.5"/>
                    <circle id="Oval" stroke="#ed193a" stroke-width="2" stroke-linecap="round" stroke-linejoin="round" cx="34.8333333" cy="39.8333333" r="1.5"/>
                    <path d="M7.33333333,14.3333333 L12.4242424,14.3333333 L15.8351515,31.2935796 C16.0753622,32.4971764 17.147822,33.3563741 18.3806061,33.3328624 L35.7515152,33.3328624 C36.9842992,33.3563741 38.056759,32.4971764 38.2969697,31.2935796 L40.3333333,20.6665097" id="Shape" stroke="#ed193a" stroke-width="2" stroke-linecap="round" stroke-linejoin="round"/>
                    <path d="M1.33112637,50.8333333 L49.3359373,50.8333333" id="Line-Copy-2" stroke="#ed193a" stroke-width="2" stroke-linecap="square"/>
                </g>
            </g>
        </g>
    </g>
</symbol><symbol id="sun" viewBox="0 0 76 76">
    <!-- Generator: Sketch 50.2 (55047) - http://www.bohemiancoding.com/sketch -->
    <title>LargeIcon/Leaf Copy 2</title>
    <desc>Created with Sketch.</desc>

    <g id="Design-system" stroke="none" stroke-width="1" fill="none" fill-rule="evenodd" stroke-linecap="round" stroke-linejoin="round">
        <g id="2-Icons" transform="translate(-579.000000, -1633.000000)" stroke="#ed193a">
            <g id="Icon/Sun/Base" transform="translate(577.000000, 1631.000000)">
                <g id="sun" transform="translate(3.333333, 3.333333)">
                    <circle id="Oval" stroke-width="2" cx="36.6666667" cy="36.6666667" r="16.6666667"/>
                    <path d="M36.6666667,0 L36.6666667,6.66666667" id="Shape" stroke-width="2"/>
                    <path d="M36.6666667,66.6666667 L36.6666667,73.3333333" id="Shape" stroke-width="2"/>
                    <path d="M10.7333333,10.7333333 L15.4666667,15.4666667" id="Shape" stroke-width="2"/>
                    <path d="M57.8666667,57.8666667 L62.6,62.6" id="Shape" stroke-width="2"/>
                    <path d="M0,36.6666667 L6.66666667,36.6666667" id="Shape" stroke-width="2"/>
                    <path d="M66.6666667,36.6666667 L73.3333333,36.6666667" id="Shape" stroke-width="2"/>
                    <path d="M10.7333333,62.6 L15.4666667,57.8666667" id="Shape" stroke-width="2"/>
                    <path d="M57.8666667,15.4666667 L62.6,10.7333333" id="Shape" stroke-width="2"/>
                </g>
            </g>
        </g>
    </g>
</symbol><symbol id="track" viewBox="0 0 53 70">
    <!-- Generator: Sketch 50.2 (55047) - http://www.bohemiancoding.com/sketch -->
    <title>LargeIcon/Leaf Copy 5</title>
    <desc>Created with Sketch.</desc>

    <g id="Design-system" stroke="none" stroke-width="1" fill="none" fill-rule="evenodd">
        <g id="2-Icons" transform="translate(-982.000000, -1636.000000)">
            <g id="LargeIcon/Track" transform="translate(967.000000, 1631.000000)">
                <g id="smartphone" transform="translate(16.666667, 6.666667)">
                    <rect id="Rectangle-path" stroke="#ed193a" stroke-width="2" stroke-linecap="round" stroke-linejoin="round" x="0" y="0" width="50" height="66.6666667" rx="2"/>
                    <circle id="Oval-2" fill="#ed193a" cx="25" cy="58.3333333" r="1.66666667"/>
                    <path d="M1.33112637,50.8333333 L49.3359373,50.8333333" id="Line" stroke="#ed193a" stroke-width="2" stroke-linecap="square"/>
                    <rect id="Rectangle-3" fill="#ed193a" x="9.33333333" y="18.3333333" width="5" height="20" rx="2"/>
                    <rect id="Rectangle-3-Copy-3" fill="#ed193a" x="18.3333333" y="10.3333333" width="5" height="28" rx="2"/>
                    <rect id="Rectangle-3-Copy-5" fill="#ed193a" x="27.3333333" y="24.3333333" width="5" height="14" rx="2"/>
                    <rect id="Rectangle-3-Copy-6" fill="#ed193a" x="36.3333333" y="20.3333333" width="5" height="18" rx="2"/>
                </g>
            </g>
        </g>
    </g>
</symbol><symbol id="twitter" viewBox="0 0 500 415.7">
<title>Icon/Twitter/Grey</title>
<desc>Created with Sketch.</desc>
<g id="Icon_x2F_Twitter_x2F_Grey">
	<g id="twitter" transform="translate(1.000000, 2.000000)">
		<path class="st0" d="M171.2,413.7c-54.1,0-109.6-14.4-161.4-43.2c-8.4-4.7-12.5-14.5-9.9-23.8c2.6-9.3,11.7-16,20.9-15.2
			c35.5,1.5,70-5.5,101.6-20.1C-36.2,214,41.6,33.3,42.5,31.4c3-6.9,9.5-11.5,17-12.3c7.4-0.7,14.8,2.6,19.1,8.8
			c34.9,49.7,89.8,80.6,149.6,85c-0.4-47.2,29-90.5,73.5-107.4C341.7-9.8,386.9-1.1,418.4,27c16.9-6.2,32.9-14.6,47.7-25.1
			c7.1-5,16.5-5.1,23.7-0.2c7.2,4.9,10.6,13.7,8.5,22.1c-7.1,29.3-21.4,56.3-41.6,78.6c0.3,3.4,0.5,6.7,0.5,10.1
			c0,114.3-50.6,209.5-138.8,261.4C273.6,400.5,223,413.7,171.2,413.7z M102.3,363.2c67.7,17.4,137,9.2,195.1-25
			c75.1-44.2,118.2-126.4,118.2-225.4c0-4.5-0.4-9-1.3-13.3c-1.3-6.8,0.9-13.9,5.8-18.8c4.6-4.6,9-9.5,12.9-14.6
			c-4.7,1.7-9.5,3.3-14.3,4.8c-7.8,2.4-16.3-0.1-21.7-6.3c-19.9-22.9-52.3-30.9-80.6-20.2c-28.3,10.8-47,38.4-46.6,68.7v21.1
			c0,11.3-9,20.5-20.3,20.8c-68.3,2-133-24.9-179.8-72.8c-12.4,53.2-17.3,155.3,104.4,209.4c6.9,3.1,11.6,9.7,12.3,17.2
			c0.7,7.5-2.8,14.8-9.1,19.1C154.1,343.7,128.8,355.5,102.3,363.2z"/>
	</g>
</g>
</symbol><symbol id="upload" viewBox="0 0 500 500"><path class="st0" d="M475 300c-13.8 0-25 11.2-25 25v100c0 13.8-11.2 25-25 25H75c-13.8 0-25-11.2-25-25V325c0-13.8-11.2-25-25-25S0 311.1 0 325v100c0 41.4 33.6 75 75 75h350c41.4 0 75-33.6 75-75V325c0-13.9-11.2-25-25-25z"/><path class="st0" d="M142.7 167.6L225 85.3V325c0 13.8 11.2 25 25 25s25-11.2 25-25V85.3l82.3 82.3c4.9 4.9 11.3 7.3 17.7 7.3s12.8-2.4 17.7-7.3c9.8-9.8 9.8-25.6 0-35.4l-125-125c-2.3-2.3-5.1-4.1-8.1-5.4-6.1-2.5-13-2.5-19.1 0-3.1 1.3-5.8 3.1-8.1 5.4l-125 125c-9.8 9.8-9.8 25.6 0 35.4s25.5 9.8 35.3 0z"/></symbol><symbol id="user" viewBox="0 0 500 555.6">
<title>Icon/User/Grey</title>
<desc>Created with Sketch.</desc>
<g id="Icon_x2F_User_x2F_Grey">
	<g id="user" transform="translate(4.000000, 3.000000)">
		<path class="st0" d="M468.2,552.6c-15.4,0-27.8-12.4-27.8-27.8v-55.6c0-46-37.4-83.3-83.3-83.3H134.9c-46,0-83.3,37.4-83.3,83.3
			v55.6c0,15.4-12.4,27.8-27.8,27.8S-4,540.1-4,524.8v-55.6c0-76.6,62.3-138.9,138.9-138.9h222.2c76.6,0,138.9,62.3,138.9,138.9
			v55.6C496,540.1,483.6,552.6,468.2,552.6z"/>
		<path class="st0" d="M246,274.8c-76.6,0-138.9-62.3-138.9-138.9S169.4-3,246-3s138.9,62.3,138.9,138.9S322.6,274.8,246,274.8z
			 M246,52.6c-46,0-83.3,37.4-83.3,83.3s37.4,83.3,83.3,83.3s83.3-37.4,83.3-83.3S292,52.6,246,52.6z"/>
	</g>
</g>
</symbol><symbol id="warning" viewBox="0 0 500 439"><path class="st0" d="M491.2 340.7L306.1 31.6C294.1 12 272.9 0 250 0s-44.1 12-56.1 31.6L8.9 340.4c-11.8 20.5-11.9 45.3-.3 65.5 11.5 20.2 32.9 32.8 56.2 33.1H435c23.5-.3 44.9-12.8 56.4-33.1 11.5-20.2 11.5-45-.2-65.2zm-37.7 43.6c-3.8 6.7-11 10.9-18.7 11H65.1c-7.5-.1-14.7-4.3-18.5-11-3.8-6.7-3.8-15 .1-21.7L231.3 54.1c4-6.5 11-10.5 18.6-10.5 7.6 0 14.7 4 18.7 10.5l184.9 308.7c3.8 6.5 3.8 14.8 0 21.5z"/><circle class="st0" cx="250" cy="329.8" r="21.8"/><path class="st0" d="M250 133.3c-12.1 0-21.8 9.8-21.8 21.8v87.4c0 12.1 9.8 21.8 21.8 21.8s21.8-9.8 21.8-21.8v-87.4c0-12-9.7-21.8-21.8-21.8z"/></symbol><symbol id="youtube" viewBox="0 0 500 363.7">
<title>Icon/Youtube/Grey</title>
<desc>Created with Sketch.</desc>
<g id="Icon_x2F_Youtube_x2F_Grey">
	<g id="youtube" transform="translate(0.000000, 4.000000)">
		<path class="st0" d="M250,359.7c-15,0-147.1-0.3-184.5-10.3c-26.5-7.3-47.6-28.1-55.1-54.4C3.1,255.2-0.2,216.6,0,178.2
			c-0.2-37.9,3.1-76.3,9.9-113.8c7.1-28.6,28.2-50.4,55.2-58C102.9-3.7,235-4,250-4c14.9,0,146.9,0.3,184.1,9.3
			c27.8,7.8,48.8,29.5,55.7,56.8c0.1,0.4,0.2,0.9,0.3,1.4c6.8,37.7,10.1,76.4,9.9,114.9c0.1,37.7-3.2,75.8-9.9,113
			c-7.1,28.6-28.2,50.4-55.3,58C397.1,359.4,265,359.7,250,359.7z M250,37.7c-56.5,0-149.4,2.4-173.8,8.9
			c-12.5,3.5-22.4,13.8-25.6,26.6c-6,33.6-9.1,69.4-9,105c-0.2,36.1,2.9,72.2,9.2,107.4c3.1,10.4,13,20.2,25.4,23.6
			c24.2,6.5,117.1,8.8,173.7,8.8s149.4-2.4,173.8-8.9c12.5-3.5,22.4-13.8,25.6-26.6c6-33.3,9.1-68.8,9-104.2
			c0.2-35.9-2.8-71.7-9.1-106.7c-3.4-12.6-13.2-22.5-25.7-26.1C396.8,39.1,289.2,37.7,250,37.7z"/>
		<path class="st0" d="M203.1,267.2c-3.6,0-7.2-0.9-10.5-2.8c-6.4-3.7-10.4-10.6-10.4-18V110.2c0-7.4,3.9-14.3,10.4-18
			c6.4-3.7,14.3-3.8,20.8-0.1l119.8,68.1c6.5,3.7,10.5,10.6,10.5,18.1c0,7.5-4,14.4-10.5,18.1l-119.8,68.1
			C210.2,266.3,206.7,267.2,203.1,267.2z M224,146v64.6l56.8-32.3L224,146z"/>
	</g>
</g>
</symbol><symbol id="zap-thin" viewBox="0 0 36.5 40.33">
  <g data-name="Layer 2">
    <g data-name="Layer 1">
      <g data-name="7.1_MakeTheSwitch_LGE">
        <path d="M16.33 40.33a.88.88 0 0 1-.39-.08 1 1 0 0 1-.6-1L17.12 25H1a1 1 0 0 1-.91-.58 1 1 0 0 1 .14-1.06L19.4.36a1 1 0 0 1 1.17-.28 1 1 0 0 1 .59 1l-1.78 14.25H35.5a1 1 0 0 1 .91.58 1 1 0 0 1-.14 1.09L17.1 40a1 1 0 0 1-.77.33zM3.14 23h15.11a1 1 0 0 1 .75.34 1 1 0 0 1 .24.78l-1.49 12 15.62-18.79H18.25a1 1 0 0 1-.75-.33 1 1 0 0 1-.24-.78l1.49-12z" data-name="Icon/Zap/Base"/>
      </g>
    </g>
  </g>
</symbol><symbol id="zap" viewBox="0 0 500 550"><path d="M225 550c-3.3 0-6.7-.7-9.9-2.1-10.2-4.4-16.2-15-14.9-26L221.7 350H25c-9.7 0-18.5-5.6-22.6-14.4-4.1-8.8-2.8-19.1 3.4-26.6l250-300c7.1-8.6 19-11.3 29.2-6.9s16.2 15 14.8 26L278.3 200H475c9.7 0 18.5 5.6 22.6 14.4 4.1 8.8 2.8 19.2-3.4 26.6l-250 300c-4.9 5.8-11.9 9-19.2 9zM78.4 300H250c7.2 0 14 3.1 18.7 8.4 4.7 5.4 7 12.5 6.1 19.7l-14.4 115.4L421.6 250H250c-7.2 0-14-3.1-18.7-8.5-4.7-5.4-7-12.5-6.1-19.6l14.4-115.4L78.4 300z"/></symbol><symbol id="zapgas" viewBox="0 0 59 42.99">
  <g data-name="Layer 2">
    <g data-name="Layer 1">
      <path d="M58 21.61c-.76-2.09-2-4.13-4.43-7.6.37.51-6.42-8.89-9.15-12.84L43.64 0l-.83 1.16C40.55 4.35 34.73 12.29 34 13.3l1.63 1.16c.64-.89 5.36-7.35 8-11 3.08 4.39 8.7 12.18 8.36 11.69a31.52 31.52 0 0 1 4.19 7.13A15.43 15.43 0 0 1 57 27.8a13.17 13.17 0 0 1-6.81 11.49 7.8 7.8 0 0 0 1.14-4.06 8.86 8.86 0 0 0-.48-3.12 15.94 15.94 0 0 0-2.13-3.74c.17.24-3-4.23-4.27-6.11l-.81-1.2-.84 1.19c-1 1.49-3.82 5.38-4.24 6a16.09 16.09 0 0 0-2.16 3.85 9.06 9.06 0 0 0-.48 3.13 7.72 7.72 0 0 0 1.29 4.3c-3.83-1.67-7.33-4.63-8.94-8.15l-1.82.83C29.29 38.43 37.08 43 43.63 43A15.29 15.29 0 0 0 59 27.8a17.24 17.24 0 0 0-1-6.19zM37.92 35.23a7.13 7.13 0 0 1 .37-2.47 14.26 14.26 0 0 1 1.91-3.38c.33-.48 2.15-3 3.42-4.81 1.47 2.13 3.61 5.15 3.46 4.94A14.33 14.33 0 0 1 49 32.78a7.11 7.11 0 0 1 .36 2.45 5.71 5.71 0 1 1-11.41 0z"/>
      <path d="M36.41 16.48a1 1 0 0 0-.91-.57H19.38L21.16 1.7A1 1 0 0 0 19.4.93l-19.17 23A1 1 0 0 0 .09 25a1 1 0 0 0 .91.57h16.12l-1.78 14.21a1 1 0 0 0 .6 1 .89.89 0 0 0 .39.09 1 1 0 0 0 .77-.36l19.17-23a1 1 0 0 0 .14-1.03zM17.75 36.65l1.49-11.95a1 1 0 0 0-.24-.79 1 1 0 0 0-.75-.34H3.14L18.75 4.83l-1.49 12a1 1 0 0 0 .24.79 1 1 0 0 0 .75.34h15.12z"/>
    </g>
  </g>
</symbol></svg>
